<svg width="71" height="29" viewBox="0 0 71 29" fill="none" xmlns="http://www.w3.org/2000/svg">
<g clip-path="url(#clip0_34_1642)">
<rect width="71" height="29" rx="14.5" fill="#FFE4C0"/>
<mask id="mask0_34_1642" style="mask-type:luminance" maskUnits="userSpaceOnUse" x="0" y="0" width="71" height="29">
<rect width="71" height="29" rx="14.5" fill="white"/>
</mask>
<g mask="url(#mask0_34_1642)">
<path opacity="0.6" fill-rule="evenodd" clip-rule="evenodd" d="M46.7383 20.6664C46.7383 20.0782 47.2144 19.6021 47.8026 19.6021C48.3838 19.6021 48.86 20.0782 48.86 20.6664C48.86 21.2476 48.3838 21.7238 47.8026 21.7238C47.2144 21.7238 46.7383 21.2476 46.7383 20.6664ZM54.6159 20.6664C54.6159 20.0782 55.0921 19.6021 55.6803 19.6021C56.2615 19.6021 56.7376 20.0782 56.7376 20.6664C56.7376 21.2476 56.2615 21.7238 55.6803 21.7238C55.0921 21.7238 54.6159 21.2476 54.6159 20.6664Z" fill="black"/>
<path fill-rule="evenodd" clip-rule="evenodd" d="M56.7378 10.6954C57.1649 10.6954 57.445 10.8425 57.7251 11.1646C58.0052 11.4867 58.0542 11.9488 57.9912 12.3683L57.326 16.9618C57.1999 17.8448 56.4437 18.4953 55.5544 18.4953H47.9148C46.9835 18.4953 46.2133 17.7811 46.1362 16.8575L45.492 9.22424L44.4347 9.04218C44.1546 8.99316 43.9585 8.72007 44.0075 8.43998C44.0565 8.15288 44.3296 7.96382 44.6167 8.00583L46.2868 8.25792C46.5249 8.30063 46.6999 8.496 46.7209 8.73408L46.854 10.3026C46.875 10.5274 47.057 10.6954 47.2811 10.6954H56.7378ZM52.4944 14.3359H54.434C54.7281 14.3359 54.9592 14.0979 54.9592 13.8108C54.9592 13.5167 54.7281 13.2856 54.434 13.2856H52.4944C52.2003 13.2856 51.9692 13.5167 51.9692 13.8108C51.9692 14.0979 52.2003 14.3359 52.4944 14.3359Z" fill="black"/>
</g>
</g>
<defs>
<clipPath id="clip0_34_1642">
<rect width="71" height="29" fill="white"/>
</clipPath>
</defs>
</svg>
