<svg width="31" height="52" viewBox="0 0 31 52" fill="none" xmlns="http://www.w3.org/2000/svg">
<path d="M10.5009 49H9.26089L8.77089 47.59H5.79089L5.30089 49H4.05089L6.59089 42H7.97089L10.5009 49ZM7.28089 43.35L6.17089 46.51H8.39089L7.28089 43.35ZM14.5405 46.68V44H15.6205V49H14.5405V48.36C14.2071 48.8733 13.6905 49.13 12.9905 49.13C12.4105 49.13 11.9438 48.9467 11.5905 48.58C11.2438 48.2067 11.0705 47.7033 11.0705 47.07V44H12.1505V46.96C12.1505 47.3333 12.2505 47.62 12.4505 47.82C12.6505 48.02 12.9238 48.12 13.2705 48.12C13.6638 48.12 13.9738 48 14.2005 47.76C14.4271 47.5133 14.5405 47.1533 14.5405 46.68ZM20.8888 44.71V42H21.9688V49H20.8888V48.28C20.4822 48.8467 19.8988 49.13 19.1388 49.13C18.4522 49.13 17.8655 48.8767 17.3788 48.37C16.8922 47.8633 16.6488 47.24 16.6488 46.5C16.6488 45.76 16.8922 45.1367 17.3788 44.63C17.8655 44.1233 18.4522 43.87 19.1388 43.87C19.8988 43.87 20.4822 44.15 20.8888 44.71ZM18.1788 47.65C18.4788 47.95 18.8555 48.1 19.3088 48.1C19.7622 48.1 20.1388 47.95 20.4388 47.65C20.7388 47.3433 20.8888 46.96 20.8888 46.5C20.8888 46.04 20.7388 45.66 20.4388 45.36C20.1388 45.0533 19.7622 44.9 19.3088 44.9C18.8555 44.9 18.4788 45.0533 18.1788 45.36C17.8788 45.66 17.7288 46.04 17.7288 46.5C17.7288 46.9533 17.8788 47.3367 18.1788 47.65ZM24.2931 43.05C24.1598 43.1833 23.9998 43.25 23.8131 43.25C23.6264 43.25 23.4631 43.1833 23.3231 43.05C23.1898 42.91 23.1231 42.7467 23.1231 42.56C23.1231 42.3733 23.1898 42.2133 23.3231 42.08C23.4564 41.94 23.6198 41.87 23.8131 41.87C24.0064 41.87 24.1698 41.94 24.3031 42.08C24.4364 42.2133 24.5031 42.3733 24.5031 42.56C24.5031 42.7467 24.4331 42.91 24.2931 43.05ZM24.3531 49H23.2731V44H24.3531V49ZM29.8825 48.37C29.3759 48.8767 28.7525 49.13 28.0125 49.13C27.2725 49.13 26.6492 48.8767 26.1425 48.37C25.6292 47.8567 25.3725 47.2333 25.3725 46.5C25.3725 45.7667 25.6292 45.1433 26.1425 44.63C26.6492 44.1233 27.2725 43.87 28.0125 43.87C28.7525 43.87 29.3759 44.1233 29.8825 44.63C30.3959 45.1433 30.6525 45.7667 30.6525 46.5C30.6525 47.2333 30.3959 47.8567 29.8825 48.37ZM26.4525 46.5C26.4525 46.9533 26.6025 47.33 26.9025 47.63C27.2025 47.93 27.5725 48.08 28.0125 48.08C28.4525 48.08 28.8225 47.93 29.1225 47.63C29.4225 47.33 29.5725 46.9533 29.5725 46.5C29.5725 46.0467 29.4225 45.67 29.1225 45.37C28.8225 45.07 28.4525 44.92 28.0125 44.92C27.5725 44.92 27.2025 45.07 26.9025 45.37C26.6025 45.67 26.4525 46.0467 26.4525 46.5Z" fill="#1D1C1C"/>
<path fill-rule="evenodd" clip-rule="evenodd" d="M14.0942 13.7244L14.0816 14.0844C13.5128 13.7357 12.954 13.5057 12.3473 13.4329C9.71342 13.1249 7.50405 15.1404 7.49956 17.8492C7.49469 20.5304 9.95933 22.6238 12.5365 22.1291C14.5871 21.7357 16.0091 20.0456 16.0913 17.8844C16.1577 16.1314 16.2178 14.3782 16.2779 12.6251C16.3032 11.8869 16.3285 11.1487 16.3543 10.4106L16.3658 10.0822C19.987 9.59433 23.5711 9.11139 27.1721 8.62559L26.9678 14.4766C26.9589 14.4799 26.952 14.4832 26.9467 14.4858C26.9388 14.4895 26.9341 14.4918 26.931 14.4905C26.9118 14.4812 26.8929 14.4708 26.8741 14.4603C26.8415 14.4422 26.8088 14.4242 26.7744 14.4121C26.6183 14.3571 26.4633 14.2937 26.3083 14.2303C25.9619 14.0887 25.6155 13.947 25.2571 13.8989C22.6369 13.5467 20.4059 15.5827 20.3969 18.2865C20.3867 21.3335 23.4809 23.4977 26.2406 22.3414C27.9876 21.6093 28.9159 20.2322 28.9881 18.2983C29.1123 14.9747 29.2266 11.6511 29.341 8.3274L29.341 8.32733L29.341 8.32726C29.3884 6.95173 29.4357 5.57617 29.4838 4.20058C29.4871 4.10645 29.4884 4.01157 29.4876 3.9173C29.4751 2.17717 28.0349 0.863889 26.3405 1.05236C25.9524 1.09531 25.5656 1.14822 25.1788 1.20111C25.0664 1.21648 24.954 1.23185 24.8416 1.24698C24.0927 1.34813 23.3441 1.45101 22.5954 1.55389L22.5954 1.5539C20.9814 1.77568 19.3676 1.99746 17.7518 2.20184C15.785 2.45097 14.4375 3.91317 14.366 5.94066C14.3051 7.67069 14.2449 9.40043 14.1846 11.1301L14.0942 13.7244ZM16.5213 7.83895L16.458 7.8449C16.4658 7.62116 16.4701 7.39967 16.4743 7.18001L16.4743 7.17998C16.4839 6.68263 16.4933 6.19457 16.5433 5.71058C16.6137 5.02445 17.165 4.50645 17.8549 4.41016C19.1161 4.23409 20.3784 4.06504 21.6406 3.89601L21.6412 3.89592C22.15 3.8278 22.6587 3.75967 23.1673 3.69109C23.5062 3.6453 23.8452 3.6 24.1842 3.5547C24.9095 3.45778 25.6348 3.36085 26.3596 3.25912C27.0448 3.16336 27.3644 3.44486 27.3418 4.14986C27.3336 4.4071 27.3243 4.66431 27.3151 4.92152C27.2999 5.34242 27.2847 5.76331 27.2742 6.18436C27.2707 6.34246 27.2249 6.40208 27.0621 6.42323C25.6684 6.60663 24.2752 6.79525 22.882 6.98388L22.8817 6.98392C22.3794 7.05192 21.8772 7.11992 21.3749 7.18768L16.6355 7.82702C16.6009 7.8316 16.5661 7.83482 16.5214 7.83894L16.5213 7.83895ZM13.9465 17.8783C13.9937 16.6781 13.0647 15.6489 11.8845 15.596C10.7149 15.5435 9.70403 16.494 9.64434 17.7026C9.58549 18.9064 10.5346 19.9576 11.7186 19.9983C12.8933 20.0393 13.899 19.0825 13.9465 17.8783ZM24.6128 20.4486C23.437 20.4048 22.5024 19.3795 22.5411 18.1756C22.5804 16.9746 23.5802 16.0141 24.7592 16.0456C25.9396 16.0765 26.8935 17.1231 26.8433 18.3314C26.7931 19.5369 25.7867 20.4923 24.6128 20.4486Z" fill="#1D1C1C"/>
<path d="M14.0816 14.0844L13.9771 14.2549L14.2695 14.4342L14.2815 14.0914L14.0816 14.0844ZM14.0942 13.7244L14.2941 13.7314L14.2941 13.7313L14.0942 13.7244ZM12.3473 13.4329L12.3711 13.2344L12.3705 13.2343L12.3473 13.4329ZM7.49956 17.8492L7.69956 17.8495L7.69956 17.8495L7.49956 17.8492ZM12.5365 22.1291L12.4988 21.9327L12.4988 21.9327L12.5365 22.1291ZM16.0913 17.8844L16.2911 17.892L16.2911 17.8919L16.0913 17.8844ZM16.2779 12.6251L16.4778 12.6319L16.2779 12.6251ZM16.3658 10.0822L16.3391 9.88396L16.1718 9.90649L16.1659 10.0752L16.3658 10.0822ZM27.1721 8.62559L27.372 8.63257L27.3803 8.3957L27.1454 8.42739L27.1721 8.62559ZM26.9678 14.4766L27.038 14.6639L27.163 14.617L27.1677 14.4836L26.9678 14.4766ZM26.9467 14.4858L26.8604 14.3054L26.8603 14.3054L26.9467 14.4858ZM26.931 14.4905L26.8439 14.6708L26.8529 14.6746L26.931 14.4905ZM26.8741 14.4603L26.7771 14.6352L26.8741 14.4603ZM26.7744 14.4121L26.7079 14.6007L26.7082 14.6008L26.7744 14.4121ZM26.3083 14.2303L26.384 14.0452L26.3083 14.2303ZM25.2571 13.8989L25.2305 14.0971L25.2305 14.0971L25.2571 13.8989ZM20.3969 18.2865L20.5969 18.2872L20.5969 18.2872L20.3969 18.2865ZM26.2406 22.3414L26.3179 22.5259L26.3179 22.5259L26.2406 22.3414ZM28.9881 18.2983L29.188 18.3057L28.9881 18.2983ZM29.341 8.3274L29.1412 8.32042L29.1412 8.32052L29.341 8.3274ZM29.341 8.32726L29.5409 8.33424L29.5409 8.33414L29.341 8.32726ZM29.4876 3.9173L29.2876 3.91874L29.2876 3.91887L29.4876 3.9173ZM26.3405 1.05236L26.3625 1.25115L26.3626 1.25114L26.3405 1.05236ZM25.1788 1.20111L25.2059 1.39927L25.1788 1.20111ZM24.8416 1.24698L24.8149 1.04876L24.8148 1.04878L24.8416 1.24698ZM22.5954 1.55389L22.5682 1.35575L22.5677 1.35582L22.5954 1.55389ZM22.5954 1.5539L22.6226 1.75203L22.6231 1.75196L22.5954 1.5539ZM17.7518 2.20184L17.7267 2.00342L17.7267 2.00343L17.7518 2.20184ZM14.366 5.94066L14.1661 5.93361L14.1661 5.93363L14.366 5.94066ZM14.1846 11.1301L14.3845 11.137L14.3845 11.137L14.1846 11.1301ZM16.458 7.8449L16.2581 7.83792L16.2502 8.06532L16.4767 8.04402L16.458 7.8449ZM16.5213 7.83895L16.5401 8.03809L16.5427 8.0378L16.5213 7.83895ZM16.4743 7.18001L16.2744 7.17303L16.2743 7.17616L16.4743 7.18001ZM16.4743 7.17998L16.6742 7.18696L16.6743 7.18383L16.4743 7.17998ZM16.5433 5.71058L16.7422 5.73114L16.7423 5.73098L16.5433 5.71058ZM17.8549 4.41016L17.8825 4.60824L17.8825 4.60824L17.8549 4.41016ZM21.6406 3.89601L21.6141 3.69777L21.6141 3.69778L21.6406 3.89601ZM21.6412 3.89592L21.6677 4.09416L21.6678 4.09415L21.6412 3.89592ZM23.1673 3.69109L23.194 3.88929L23.1941 3.88929L23.1673 3.69109ZM24.1842 3.5547L24.2107 3.75294L24.1842 3.5547ZM26.3596 3.25912L26.3319 3.06105L26.3318 3.06106L26.3596 3.25912ZM27.3418 4.14986L27.1419 4.14345L27.1419 4.14347L27.3418 4.14986ZM27.3151 4.92152L27.1152 4.91431L27.1152 4.91431L27.3151 4.92152ZM27.2742 6.18436L27.0742 6.17936L27.0742 6.17993L27.2742 6.18436ZM27.0621 6.42323L27.0363 6.22489L27.036 6.22494L27.0621 6.42323ZM22.882 6.98388L22.8551 6.78569L22.8549 6.78572L22.882 6.98388ZM22.8817 6.98392L22.9085 7.18211L22.9087 7.18208L22.8817 6.98392ZM21.3749 7.18768L21.3481 6.98948L21.3749 7.18768ZM16.6355 7.82702L16.6617 8.02529L16.6622 8.02523L16.6355 7.82702ZM16.5214 7.83894L16.503 7.63977L16.5 7.64009L16.5214 7.83894ZM11.8845 15.596L11.8755 15.7958L11.8755 15.7958L11.8845 15.596ZM13.9465 17.8783L13.7466 17.8704L13.7466 17.8704L13.9465 17.8783ZM9.64434 17.7026L9.44459 17.6927L9.44458 17.6928L9.64434 17.7026ZM11.7186 19.9983L11.7256 19.7984L11.7255 19.7984L11.7186 19.9983ZM22.5411 18.1756L22.3412 18.1691L22.3412 18.1692L22.5411 18.1756ZM24.6128 20.4486L24.6203 20.2487L24.6203 20.2487L24.6128 20.4486ZM24.7592 16.0456L24.7539 16.2456L24.754 16.2456L24.7592 16.0456ZM26.8433 18.3314L27.0431 18.3397L27.0431 18.3397L26.8433 18.3314ZM14.2815 14.0914L14.2941 13.7314L13.8943 13.7174L13.8817 14.0774L14.2815 14.0914ZM12.3235 13.6315C12.8935 13.6999 13.4248 13.9163 13.9771 14.2549L14.1861 13.9139C13.6009 13.5551 13.0145 13.3115 12.3711 13.2344L12.3235 13.6315ZM7.69956 17.8495C7.70386 15.2551 9.81394 13.3381 12.3241 13.6316L12.3705 13.2343C9.6129 12.9118 7.30424 15.0256 7.29956 17.8488L7.69956 17.8495ZM12.4988 21.9327C10.0503 22.4027 7.69491 20.4105 7.69956 17.8495L7.29956 17.8488C7.29447 20.6504 9.86833 22.8449 12.5742 22.3255L12.4988 21.9327ZM15.8914 17.8768C15.8126 19.9491 14.454 21.5575 12.4988 21.9327L12.5742 22.3255C14.7201 21.9138 16.2056 20.1422 16.2911 17.892L15.8914 17.8768ZM16.078 12.6182C16.0179 14.3715 15.9578 16.1243 15.8914 17.8768L16.2911 17.8919C16.3576 16.1386 16.4177 14.385 16.4778 12.6319L16.078 12.6182ZM16.1544 10.4036C16.1286 11.1418 16.1033 11.8801 16.078 12.6182L16.4778 12.6319C16.5031 11.8937 16.5284 11.1556 16.5542 10.4176L16.1544 10.4036ZM16.1659 10.0752L16.1544 10.4036L16.5542 10.4176L16.5656 10.0891L16.1659 10.0752ZM27.1454 8.42739C23.5444 8.91318 19.9603 9.39612 16.3391 9.88396L16.3925 10.2804C20.0137 9.79254 23.5978 9.30959 27.1988 8.8238L27.1454 8.42739ZM27.1677 14.4836L27.372 8.63257L26.9722 8.61861L26.7679 14.4696L27.1677 14.4836ZM27.033 14.6662C27.0379 14.6639 27.038 14.6639 27.038 14.6639L26.8975 14.2894C26.8798 14.296 26.8662 14.3026 26.8604 14.3054L27.033 14.6662ZM26.8529 14.6746C26.9258 14.7055 26.989 14.6836 27.0013 14.6794C27.0114 14.676 27.0195 14.6724 27.0235 14.6706C27.0276 14.6688 27.0316 14.6669 27.033 14.6662L26.8603 14.3054C26.852 14.3094 26.8614 14.3045 26.8728 14.3006C26.8799 14.2982 26.896 14.2932 26.9175 14.2915C26.9405 14.2896 26.9734 14.2912 27.0091 14.3063L26.8529 14.6746ZM26.7771 14.6352C26.7952 14.6452 26.819 14.6585 26.8441 14.6706L27.0179 14.3103C27.0047 14.3039 26.9907 14.2963 26.971 14.2853L26.7771 14.6352ZM26.7082 14.6008C26.724 14.6063 26.7418 14.6157 26.7771 14.6352L26.971 14.2853C26.9411 14.2688 26.8937 14.242 26.8405 14.2233L26.7082 14.6008ZM26.2326 14.4154C26.3868 14.4785 26.5464 14.5438 26.7079 14.6007L26.8408 14.2234C26.6902 14.1704 26.5398 14.1089 26.384 14.0452L26.2326 14.4154ZM25.2305 14.0971C25.559 14.1413 25.8815 14.2719 26.2326 14.4154L26.384 14.0452C26.0423 13.9055 25.6719 13.7528 25.2838 13.7007L25.2305 14.0971ZM20.5969 18.2872C20.6056 15.6963 22.7375 13.762 25.2305 14.0971L25.2838 13.7007C22.5362 13.3313 20.2063 15.469 20.1969 18.2858L20.5969 18.2872ZM26.1633 22.157C23.5442 23.2544 20.5871 21.2004 20.5969 18.2872L20.1969 18.2858C20.1862 21.4667 23.4177 23.7411 26.3179 22.5259L26.1633 22.157ZM28.7882 18.2908C28.7533 19.2271 28.5118 20.0169 28.0769 20.6583C27.6422 21.2992 27.0063 21.8037 26.1633 22.157L26.3179 22.5259C27.2219 22.147 27.9236 21.5968 28.4079 20.8828C28.8919 20.169 29.1507 19.3034 29.188 18.3057L28.7882 18.2908ZM29.1412 8.32052C29.0268 11.6443 28.9124 14.9676 28.7882 18.2908L29.188 18.3057C29.3121 14.9818 29.4265 11.6579 29.5409 8.33428L29.1412 8.32052ZM29.1412 8.32035L29.1412 8.32042L29.5409 8.33438L29.5409 8.33431L29.1412 8.32035ZM29.1412 8.32028L29.1412 8.32035L29.5409 8.33431L29.5409 8.33424L29.1412 8.32028ZM29.2839 4.1936C29.2359 5.56925 29.1885 6.94486 29.1412 8.32038L29.5409 8.33414C29.5883 6.9586 29.6356 5.58309 29.6837 4.20756L29.2839 4.1936ZM29.2876 3.91887C29.2883 4.01027 29.2871 4.10231 29.2839 4.1936L29.6837 4.20756C29.687 4.1106 29.6884 4.01286 29.6876 3.91572L29.2876 3.91887ZM26.3626 1.25114C27.9342 1.07632 29.2759 2.29229 29.2876 3.91874L29.6876 3.91586C29.6743 2.06204 28.1355 0.651459 26.3184 0.85359L26.3626 1.25114ZM25.2059 1.39927C25.5931 1.34631 25.9774 1.29377 26.3625 1.25115L26.3185 0.853578C25.9274 0.896855 25.538 0.950119 25.1517 1.00296L25.2059 1.39927ZM24.8683 1.44519C24.9809 1.43003 25.0935 1.41463 25.2059 1.39927L25.1517 1.00296C25.0392 1.01833 24.9271 1.03367 24.8149 1.04876L24.8683 1.44519ZM22.6226 1.75203C23.3713 1.64914 24.1198 1.54629 24.8684 1.44518L24.8148 1.04878C24.0657 1.14996 23.3168 1.25288 22.5682 1.35575L22.6226 1.75203ZM22.6231 1.75196L22.6231 1.75196L22.5677 1.35582L22.5676 1.35583L22.6231 1.75196ZM17.7769 2.40026C19.3939 2.19573 21.0088 1.9738 22.6226 1.75203L22.5681 1.35576C20.954 1.57757 19.3412 1.7992 17.7267 2.00342L17.7769 2.40026ZM14.5659 5.94771C14.6339 4.01763 15.908 2.63699 17.7769 2.40026L17.7267 2.00343C15.662 2.26495 14.241 3.8087 14.1661 5.93361L14.5659 5.94771ZM14.3845 11.137C14.4448 9.40739 14.505 7.67768 14.5659 5.94769L14.1661 5.93363C14.1053 7.6637 14.045 9.39348 13.9848 11.1231L14.3845 11.137ZM14.2941 13.7313L14.3845 11.137L13.9848 11.1231L13.8943 13.7174L14.2941 13.7313ZM16.4767 8.04402L16.5401 8.03807L16.5026 7.63982L16.4393 7.64578L16.4767 8.04402ZM16.2743 7.17616C16.2701 7.39607 16.2659 7.616 16.2581 7.83792L16.6579 7.85188C16.6658 7.62631 16.67 7.40328 16.6743 7.18386L16.2743 7.17616ZM16.2744 7.173L16.2744 7.17303L16.6742 7.18699L16.6742 7.18696L16.2744 7.173ZM16.3444 5.69002C16.2933 6.18375 16.2839 6.68024 16.2743 7.17613L16.6743 7.18383C16.6839 6.68501 16.6932 6.20539 16.7422 5.73114L16.3444 5.69002ZM17.8272 4.21208C17.0565 4.31965 16.4251 4.90242 16.3443 5.69018L16.7423 5.73098C16.8022 5.14647 17.2734 4.69325 17.8825 4.60824L17.8272 4.21208ZM21.6141 3.69778C20.3519 3.8668 19.0891 4.03592 17.8272 4.21208L17.8825 4.60824C19.1431 4.43226 20.4048 4.26328 21.6671 4.09424L21.6141 3.69778ZM21.6147 3.69769L21.6141 3.69777L21.6671 4.09425L21.6677 4.09416L21.6147 3.69769ZM23.1406 3.49288C22.6321 3.56145 22.1234 3.62956 21.6147 3.69769L21.6678 4.09415C22.1765 4.02603 22.6853 3.95789 23.194 3.88929L23.1406 3.49288ZM24.1577 3.35646C23.8187 3.40176 23.4796 3.44707 23.1405 3.49289L23.1941 3.88929C23.5328 3.84352 23.8717 3.79824 24.2107 3.75294L24.1577 3.35646ZM26.3318 3.06106C25.6077 3.16269 24.8831 3.25952 24.1577 3.35646L24.2107 3.75294C24.9359 3.65603 25.6618 3.55902 26.3874 3.45718L26.3318 3.06106ZM27.5417 4.15627C27.5538 3.78071 27.4775 3.46046 27.25 3.25558C27.0223 3.05058 26.6975 3.00995 26.3319 3.06105L26.3873 3.4572C26.7069 3.41253 26.8845 3.46477 26.9823 3.55283C27.0802 3.64101 27.1525 3.81401 27.1419 4.14345L27.5417 4.15627ZM27.5149 4.92873C27.5242 4.67159 27.5335 4.41397 27.5417 4.15624L27.1419 4.14347C27.1337 4.40024 27.1245 4.65703 27.1152 4.91431L27.5149 4.92873ZM27.4741 6.18936C27.4846 5.7696 27.4997 5.34981 27.5149 4.92873L27.1152 4.91431C27.1 5.33502 27.0848 5.75702 27.0742 6.17936L27.4741 6.18936ZM27.0878 6.62156C27.1828 6.60922 27.2974 6.58052 27.3792 6.4859C27.4594 6.39309 27.4721 6.27747 27.4741 6.1888L27.0742 6.17993C27.0735 6.21153 27.0708 6.22779 27.0689 6.23502C27.0674 6.24056 27.0683 6.2339 27.0765 6.2244C27.0849 6.21466 27.0921 6.21232 27.0883 6.21384C27.0827 6.21612 27.0677 6.22082 27.0363 6.22489L27.0878 6.62156ZM22.9088 7.18208C24.3021 6.99343 25.6949 6.80486 27.0882 6.62152L27.036 6.22494C25.6418 6.40839 24.2483 6.59707 22.8551 6.78569L22.9088 7.18208ZM22.9087 7.18208L22.909 7.18205L22.8549 6.78572L22.8547 6.78576L22.9087 7.18208ZM21.4016 7.38589C21.904 7.31812 22.4063 7.25011 22.9085 7.18211L22.8549 6.78573C22.3526 6.85373 21.8504 6.92173 21.3481 6.98948L21.4016 7.38589ZM16.6622 8.02523L21.4016 7.38589L21.3481 6.98948L16.6087 7.62882L16.6622 8.02523ZM16.5397 8.0381C16.5835 8.03406 16.6225 8.03049 16.6617 8.02529L16.6092 7.62875C16.5793 7.63271 16.5486 7.63558 16.503 7.63979L16.5397 8.0381ZM16.5427 8.0378L16.5427 8.0378L16.5 7.64009L16.5 7.64009L16.5427 8.0378ZM11.8755 15.7958C12.9426 15.8437 13.7897 16.7769 13.7466 17.8704L14.1463 17.8861C14.1978 16.5794 13.1869 15.4542 11.8934 15.3962L11.8755 15.7958ZM9.8441 17.7124C9.89866 16.6076 10.8221 15.7485 11.8755 15.7958L11.8934 15.3962C10.6078 15.3385 9.5094 16.3803 9.44459 17.6927L9.8441 17.7124ZM11.7255 19.7984C10.6564 19.7617 9.79053 18.8082 9.8441 17.7123L9.44458 17.6928C9.38045 19.0046 10.4127 20.1536 11.7118 20.1982L11.7255 19.7984ZM13.7466 17.8704C13.7033 18.9692 12.7856 19.8354 11.7256 19.7984L11.7117 20.1982C13.0009 20.2432 14.0947 19.1957 14.1463 17.8861L13.7466 17.8704ZM22.3412 18.1692C22.2992 19.4787 23.3152 20.6004 24.6054 20.6484L24.6203 20.2487C23.5587 20.2092 22.7057 19.2803 22.741 18.1821L22.3412 18.1692ZM24.7645 15.8457C23.472 15.8111 22.384 16.8617 22.3412 18.1691L22.741 18.1822C22.7768 17.0874 23.6884 16.217 24.7539 16.2456L24.7645 15.8457ZM27.0431 18.3397C27.0978 17.0246 26.0611 15.8796 24.7644 15.8457L24.754 16.2456C25.8181 16.2734 26.6892 17.2217 26.6434 18.3231L27.0431 18.3397ZM24.6054 20.6484C25.8943 20.6965 26.9885 19.6501 27.0431 18.3397L26.6434 18.3231C26.5976 19.4236 25.6791 20.2882 24.6203 20.2487L24.6054 20.6484Z" fill="#F3F4F6"/>
<path d="M4.46045 7.18668C5.41987 7.18668 6.37889 7.18526 7.33831 7.1874C7.57371 7.18811 7.75522 7.42006 7.82004 7.79117C7.88203 8.14658 7.81437 8.54196 7.63326 8.73251C7.54291 8.82743 7.42704 8.89166 7.32251 8.89238C5.40407 8.90166 3.48563 8.90094 1.5672 8.89737C1.26292 8.89666 1.049 8.52911 1.04981 8.03882C1.05062 7.53853 1.269 7.1874 1.583 7.1874C2.54201 7.18597 3.50143 7.18668 4.46045 7.18668Z" fill="#FF3B9E" stroke="#FF0BA0" stroke-width="0.3"/>
<path d="M7.01048 2.76958C5.35189 2.76958 3.6933 2.7703 2.03471 2.76744C1.9041 2.76744 1.76779 2.75745 1.64361 2.72105C1.2725 2.61257 1.03127 2.25573 1.04983 1.86749C1.06838 1.48353 1.34886 1.15595 1.72996 1.08102C1.82845 1.06175 1.93051 1.0539 2.03114 1.0539C5.36402 1.05247 8.69619 1.0539 12.0291 1.05176C12.448 1.05176 12.7806 1.19021 12.9497 1.59344C13.1888 2.16296 12.7692 2.76387 12.1254 2.76744C11.0199 2.77458 9.91372 2.76958 8.80823 2.76958C8.20946 2.76958 7.60997 2.76958 7.01048 2.76958Z" fill="#FF3B9E" stroke="#FF0BA0" stroke-width="0.3"/>
</svg>
