<svg width="29" height="29" viewBox="0 0 29 29" fill="none" xmlns="http://www.w3.org/2000/svg">
<path fill-rule="evenodd" clip-rule="evenodd" d="M20.793 0H8.2215C3.306 0 0 3.451 0 8.584V20.4305C0 25.549 3.306 29 8.2215 29H20.793C25.7085 29 29 25.549 29 20.4305V8.584C29 3.451 25.7085 0 20.793 0Z" fill="#DEE1E6"/>
<path fill-rule="evenodd" clip-rule="evenodd" d="M8.62004 13.0002C7.72618 13.0002 7 13.7264 7 14.6176C7 15.5101 7.72618 16.2376 8.62004 16.2376C9.51389 16.2376 10.2401 15.5101 10.2401 14.6176C10.2401 13.7264 9.51389 13.0002 8.62004 13.0002ZM14.677 13.0002C13.7832 13.0002 13.057 13.7264 13.057 14.6176C13.057 15.5101 13.7832 16.2376 14.677 16.2376C15.5709 16.2376 16.2971 15.5101 16.2971 14.6176C16.2971 13.7264 15.5709 13.0002 14.677 13.0002ZM19.1144 14.6176C19.1144 13.7264 19.8406 13.0002 20.7345 13.0002C21.6283 13.0002 22.3545 13.7264 22.3545 14.6176C22.3545 15.5101 21.6283 16.2376 20.7345 16.2376C19.8406 16.2376 19.1144 15.5101 19.1144 14.6176Z" fill="black"/>
</svg>
