<svg width="375" height="436" viewBox="0 0 375 436" fill="none" xmlns="http://www.w3.org/2000/svg">
<ellipse cx="188" cy="396" rx="122" ry="21" fill="#F5F4FA"/>
<path fill-rule="evenodd" clip-rule="evenodd" d="M173.366 301.848C172.756 301.688 181.513 307.758 182.3 310.449C182.495 311.539 182.213 312.66 181.525 313.529C180.838 314.398 179.81 314.933 178.701 314.998C177.801 315.11 177.191 317.192 175.905 317.497C174.62 317.801 171.952 315.991 171.84 316.183C170.233 318.73 162.44 310.321 162.038 302.12C161.829 298.004 163.131 282.788 163.742 277.102C166.955 248.271 174.989 182.394 194.4 159.361C196.007 157.423 197.212 160.21 198.546 160.515C200.651 161.011 202.579 162.308 204.764 169.564C207.062 177.236 203.864 195.688 197.324 199.996C191.797 227.898 177.769 271.144 187.458 300.503C188.487 303.706 185.594 306.909 183.168 305.868C181.561 305.18 180.26 303.562 178.476 298.18C178.026 296.851 175.439 291.597 174.491 291.149C172.306 289.964 172.884 298.709 173.366 301.912" fill="#E3DCFF"/>
<path d="M178.733 314.998C183.104 315.222 183.666 309.744 180.18 307.166C175.68 303.834 173.013 302.793 172.611 295.361" stroke="black" stroke-width="0.708943" stroke-linecap="round" stroke-linejoin="round"/>
<path d="M172.306 300.006C172.303 303.428 173.026 306.812 174.427 309.937C176.644 315.206 169.301 321.148 164.32 309.696C162.215 304.891 161.781 298.485 162.327 289.163C164.031 272.105 172.097 190.674 192.857 161.027" stroke="black" stroke-width="0.708943" stroke-linecap="round" stroke-linejoin="round"/>
<path d="M172.402 301.848C171.969 298.645 172.708 289.899 174.893 291.085C175.841 291.533 177.978 296.771 178.412 298.116C180.212 303.498 181.079 305.083 182.654 305.804C186.559 307.598 188.487 303.69 187.635 300.999C184.747 292.67 183.465 283.872 183.859 275.068C184.534 251.267 191.765 223.061 196.36 199.9" stroke="black" stroke-width="0.708943" stroke-linecap="round" stroke-linejoin="round"/>
<path d="M175.986 292.558C175.327 290.957 173.865 288.65 171.631 290.876" stroke="black" stroke-width="0.708943" stroke-linecap="round" stroke-linejoin="round"/>
<path d="M171.84 316.183C177.496 320.252 180.71 314.213 177.544 310.369C173.993 306.044 172.29 303.53 172.386 297.235" stroke="black" stroke-width="0.708943" stroke-linecap="round" stroke-linejoin="round"/>
<path fill-rule="evenodd" clip-rule="evenodd" d="M184.1 373.78H217.843C218.404 373.797 218.855 374.246 218.872 374.805L220.479 397.485H166.441C165.428 387.987 172.402 385.12 180.629 381.036C183.843 378.681 184.1 373.78 184.1 373.78Z" fill="#E3DCFF"/>
<path fill-rule="evenodd" clip-rule="evenodd" d="M184.1 373.78H217.843C218.404 373.797 218.855 374.246 218.872 374.805L220.479 397.485H166.441C165.428 387.987 172.402 385.12 180.629 381.036C183.843 378.681 184.1 373.78 184.1 373.78Z" stroke="black" stroke-width="0.708943" stroke-linecap="round" stroke-linejoin="round"/>
<rect x="165.413" y="393.865" width="56.6569" height="6.9033" rx="0.796006" fill="#FFBFFB"/>
<rect x="165.413" y="393.865" width="56.6569" height="6.9033" rx="0.796006" fill="black" stroke="black" stroke-width="0.708943" stroke-linecap="round" stroke-linejoin="round"/>
<path fill-rule="evenodd" clip-rule="evenodd" d="M217.297 373.78H251.041C251.601 373.797 252.052 374.246 252.069 374.805L253.676 397.485H199.622C198.61 387.987 205.583 385.12 213.81 381.036C217.072 378.681 217.297 373.78 217.297 373.78Z" fill="#E3DCFF"/>
<path fill-rule="evenodd" clip-rule="evenodd" d="M217.297 373.78H251.041C251.601 373.797 252.052 374.246 252.069 374.805L253.676 397.485H199.622C198.61 387.987 205.583 385.12 213.81 381.036C217.072 378.681 217.297 373.78 217.297 373.78Z" stroke="black" stroke-width="0.708943" stroke-linecap="round" stroke-linejoin="round"/>
<rect x="198.642" y="393.865" width="56.6569" height="6.9033" rx="0.796006" fill="#FFBFFB"/>
<rect x="198.642" y="393.865" width="56.6569" height="6.9033" rx="0.796006" fill="black" stroke="black" stroke-width="0.708943" stroke-linecap="round" stroke-linejoin="round"/>
<path fill-rule="evenodd" clip-rule="evenodd" d="M193.596 116.516C193.596 130.227 193.596 129.986 193.596 143.745C193.596 179.959 177.078 187.599 176.05 224.839C175.857 231.646 181.963 230.797 183.007 239.943C190.72 241.817 211.368 234.305 219.081 236.163C226.762 234.305 247.072 249.521 254.769 247.647C268.234 188.416 239.793 176.9 239.793 146.083V116.516C239.793 86.18 193.629 87.2211 193.596 116.516Z" fill="#E3DCFF"/>
<path fill-rule="evenodd" clip-rule="evenodd" d="M193.596 116.516C193.596 130.227 193.596 129.986 193.596 143.745C193.596 179.959 177.078 187.599 176.05 224.839C175.857 231.646 181.963 230.797 183.007 239.943C190.72 241.817 211.368 234.305 219.081 236.163C226.762 234.305 247.072 249.521 254.769 247.647C268.234 188.416 239.793 176.9 239.793 146.083V116.516C239.793 86.18 193.629 87.2211 193.596 116.516Z" stroke="black" stroke-width="0.708943" stroke-linecap="round" stroke-linejoin="round"/>
<path fill-rule="evenodd" clip-rule="evenodd" d="M193.597 116.516C193.597 130.227 193.597 129.986 193.597 143.745C193.61 147.775 193.384 151.802 192.922 155.806H240.757C240.132 152.64 239.814 149.422 239.809 146.195V116.628C239.793 86.18 193.629 87.2211 193.597 116.516Z" fill="#E3DCFF"/>
<path fill-rule="evenodd" clip-rule="evenodd" d="M193.597 116.516C193.597 130.227 193.597 129.986 193.597 143.745C193.61 147.775 193.384 151.802 192.922 155.806H240.757C240.132 152.64 239.814 149.422 239.809 146.195V116.628C239.793 86.18 193.629 87.2211 193.597 116.516Z" stroke="black" stroke-width="0.708943" stroke-linecap="round" stroke-linejoin="round"/>
<path fill-rule="evenodd" clip-rule="evenodd" d="M239.697 114.098C237.415 87.0609 196.151 87.9419 193.709 114.098H239.697Z" fill="#E3DCFF"/>
<path fill-rule="evenodd" clip-rule="evenodd" d="M239.697 114.098C237.415 87.0609 196.151 87.9419 193.709 114.098H239.697Z" stroke="black" stroke-width="0.708943" stroke-linecap="round" stroke-linejoin="round"/>
<path fill-rule="evenodd" clip-rule="evenodd" d="M257.886 223.782C257.886 224.118 257.886 224.454 257.966 224.775C258.255 240.263 253.242 248.8 253.274 262.943C253.371 293.615 254.206 372.483 254.11 374.068H182.204C182.204 374.068 181.577 293.824 182.011 263.744C182.252 247.727 177.592 243.13 175.857 224.951C175.833 224.561 175.833 224.171 175.857 223.782L257.886 223.782Z" fill="#E3DCFF"/>
<path fill-rule="evenodd" clip-rule="evenodd" d="M257.886 223.782C257.886 224.118 257.886 224.454 257.966 224.775C258.255 240.263 253.242 248.8 253.274 262.943C253.371 293.615 254.206 372.483 254.11 374.068H182.204C182.204 374.068 181.577 293.824 182.011 263.744C182.252 247.727 177.592 243.13 175.857 224.951C175.833 224.561 175.833 224.171 175.857 223.782L257.886 223.782Z" stroke="black" stroke-width="0.708943" stroke-linecap="round" stroke-linejoin="round"/>
<path fill-rule="evenodd" clip-rule="evenodd" d="M195.637 132.485C196.73 132.491 197.72 131.84 198.142 130.835C198.565 129.83 198.338 128.67 197.568 127.897C196.797 127.124 195.635 126.891 194.624 127.307C193.613 127.722 192.954 128.704 192.954 129.794C192.949 130.506 193.23 131.191 193.734 131.696C194.238 132.201 194.923 132.485 195.637 132.485Z" fill="#FEFEFE"/>
<path fill-rule="evenodd" clip-rule="evenodd" d="M195.637 132.485C196.73 132.491 197.72 131.84 198.142 130.835C198.565 129.83 198.338 128.67 197.568 127.897C196.797 127.124 195.635 126.891 194.624 127.307C193.613 127.722 192.954 128.704 192.954 129.794C192.949 130.506 193.23 131.191 193.734 131.696C194.238 132.201 194.923 132.485 195.637 132.485Z" stroke="black" stroke-width="0.708943" stroke-linecap="round" stroke-linejoin="round"/>
<path fill-rule="evenodd" clip-rule="evenodd" d="M218.181 127.119C217.086 127.113 216.096 127.766 215.674 128.773C215.252 129.78 215.482 130.941 216.256 131.713C217.03 132.484 218.195 132.714 219.205 132.293C220.216 131.872 220.871 130.885 220.864 129.794C220.864 128.317 219.663 127.119 218.181 127.119Z" fill="#FEFEFE"/>
<path fill-rule="evenodd" clip-rule="evenodd" d="M218.181 127.119C217.086 127.113 216.096 127.766 215.674 128.773C215.252 129.78 215.482 130.941 216.256 131.713C217.03 132.484 218.195 132.714 219.205 132.293C220.216 131.872 220.871 130.885 220.864 129.794C220.864 128.317 219.663 127.119 218.181 127.119Z" stroke="black" stroke-width="0.708943" stroke-linecap="round" stroke-linejoin="round"/>
<path d="M217.008 264.064C217.008 257.513 206.226 258.138 202.273 248.816" stroke="black" stroke-width="0.708943" stroke-linecap="round" stroke-linejoin="round"/>
<path d="M196.649 119.415C195.591 119.269 194.512 119.436 193.548 119.896" stroke="black" stroke-width="0.708943" stroke-linecap="round"/>
<path d="M217.04 119.415C218.099 119.266 219.178 119.433 220.141 119.896" stroke="black" stroke-width="0.708943" stroke-linecap="round"/>
<path fill-rule="evenodd" clip-rule="evenodd" d="M239.375 151.577H193.58C191.806 151.577 190.367 153.011 190.367 154.78C190.367 156.55 191.806 157.984 193.58 157.984H239.375C241.15 157.984 242.589 156.55 242.589 154.78C242.589 153.011 241.15 151.577 239.375 151.577Z" fill="#E3DCFF"/>
<path fill-rule="evenodd" clip-rule="evenodd" d="M239.375 151.577H193.58C191.806 151.577 190.367 153.011 190.367 154.78C190.367 156.55 191.806 157.984 193.58 157.984H239.375C241.15 157.984 242.589 156.55 242.589 154.78C242.589 153.011 241.15 151.577 239.375 151.577Z" stroke="black" stroke-width="0.708943" stroke-linecap="round"/>
<path d="M239.809 113.857H169.349" stroke="black" stroke-width="0.708943" stroke-linecap="round"/>
<path d="M253.29 261.726L239.584 199.932C239.423 201.117 241.046 212.554 242.541 223.781C242.541 224.214 244.147 223.301 244.26 223.781C247.184 245.5 252.407 272.329 249.177 293.743C248.229 299.99 252.728 301.624 252.503 301.175C251.447 298.767 251.183 296.087 251.748 293.519C252.342 290.316 254.447 288.714 253.355 287.112L253.29 261.726Z" fill="black"/>
<path fill-rule="evenodd" clip-rule="evenodd" d="M253.29 261.726L239.584 199.932C239.423 201.117 241.046 212.554 242.541 223.781C242.541 224.214 244.147 223.301 244.26 223.781C247.184 245.5 252.407 272.329 249.177 293.743C248.229 299.99 252.728 301.624 252.503 301.175C251.447 298.767 251.183 296.087 251.748 293.519C252.342 290.316 254.447 288.714 253.355 287.112L253.29 261.726Z" stroke="black" stroke-width="0.708943" stroke-linecap="round"/>
<path d="M182.477 190.979C180.468 196.953 173.768 213.402 174.218 226.312C174.539 235.634 175.825 240.215 179.36 251.587C181.899 259.836 181.85 268.244 182.043 263.215C182.59 249.232 175.375 235.522 175.825 223.781C176.424 212.582 178.665 201.531 182.477 190.979Z" fill="black"/>
<path fill-rule="evenodd" clip-rule="evenodd" d="M182.477 190.979C180.468 196.953 173.768 213.402 174.218 226.312C174.539 235.634 175.825 240.215 179.36 251.587C181.899 259.836 181.85 268.244 182.043 263.215C182.59 249.232 175.375 235.522 175.825 223.781C176.424 212.582 178.665 201.531 182.477 190.979Z" stroke="black" stroke-width="0.708943" stroke-linecap="round"/>
<path d="M192.938 157.904L192.247 160.739C201.172 159.301 210.176 158.391 219.209 158.016L192.938 157.904Z" fill="black"/>
<path fill-rule="evenodd" clip-rule="evenodd" d="M192.938 157.904L192.247 160.739C201.172 159.301 210.176 158.391 219.209 158.016L192.938 157.904Z" stroke="black" stroke-width="0.708943" stroke-linecap="round"/>
<path d="M183.811 374.02L183.104 376.839C192.038 375.422 201.045 374.513 210.082 374.116L183.811 374.02Z" fill="black"/>
<path fill-rule="evenodd" clip-rule="evenodd" d="M183.811 374.02L183.104 376.839C192.038 375.422 201.045 374.513 210.082 374.116L183.811 374.02Z" stroke="black" stroke-width="0.708943" stroke-linecap="round"/>
<path d="M217.49 374.02L216.783 376.839C225.717 375.42 234.724 374.511 243.762 374.116L217.49 374.02Z" fill="black"/>
<path fill-rule="evenodd" clip-rule="evenodd" d="M217.49 374.02L216.783 376.839C225.717 375.42 234.724 374.511 243.762 374.116L217.49 374.02Z" stroke="black" stroke-width="0.708943" stroke-linecap="round"/>
<path d="M194.303 113.745L193.613 116.58C202.517 115.144 211.499 114.235 220.511 113.857L194.303 113.745Z" fill="black"/>
<path fill-rule="evenodd" clip-rule="evenodd" d="M194.303 113.745L193.613 116.58C202.517 115.144 211.499 114.235 220.511 113.857L194.303 113.745Z" stroke="black" stroke-width="0.708943" stroke-linecap="round"/>
<path d="M202.386 132.565V132.565C202.291 134.071 203.042 135.504 204.337 136.286C205.632 137.067 207.254 137.067 208.549 136.286C209.844 135.504 210.595 134.071 210.5 132.565" stroke="black" stroke-width="0.708943" stroke-linecap="round"/>
<path d="M195.637 129.794C195.466 129.803 195.332 129.944 195.332 130.114C195.34 130.279 195.472 130.411 195.637 130.419C195.806 130.419 195.942 130.282 195.942 130.114C195.947 130.031 195.917 129.949 195.859 129.889C195.801 129.828 195.721 129.794 195.637 129.794V129.794Z" fill="black"/>
<path fill-rule="evenodd" clip-rule="evenodd" d="M195.637 129.794C195.466 129.803 195.332 129.944 195.332 130.114C195.34 130.279 195.472 130.411 195.637 130.419C195.806 130.419 195.942 130.282 195.942 130.114C195.947 130.031 195.917 129.949 195.859 129.889C195.801 129.828 195.721 129.794 195.637 129.794V129.794Z" stroke="black" stroke-width="0.708943" stroke-linecap="round" stroke-linejoin="round"/>
<path d="M218.486 130.419C218.657 130.41 218.792 130.269 218.792 130.098C218.783 129.934 218.651 129.802 218.486 129.794C218.318 129.794 218.181 129.93 218.181 130.098C218.177 130.182 218.207 130.263 218.264 130.324C218.322 130.385 218.402 130.419 218.486 130.419Z" fill="black"/>
<path fill-rule="evenodd" clip-rule="evenodd" d="M218.486 130.419C218.657 130.41 218.792 130.269 218.792 130.098C218.783 129.934 218.651 129.802 218.486 129.794C218.318 129.794 218.181 129.93 218.181 130.098C218.177 130.182 218.207 130.263 218.264 130.324C218.322 130.385 218.402 130.419 218.486 130.419Z" stroke="black" stroke-width="0.708943" stroke-linecap="round" stroke-linejoin="round"/>
<path d="M216.96 374.068V263.872" stroke="black" stroke-width="0.708943" stroke-linecap="round"/>
<path fill-rule="evenodd" clip-rule="evenodd" d="M264.538 301.848C265.647 301.56 262.096 310.577 262.674 312.243C263.799 315.446 268.603 312.403 269.503 310.946C269.953 310.225 275.93 315.11 276.332 302.12C276.461 298.004 273.584 282.66 273.279 277.102C271.881 251.475 262.658 187.695 241.271 160.867C239.664 158.865 238.298 160.21 236.981 160.515C234.876 161.011 232.964 162.309 230.907 169.564C228.738 177.236 232.241 195.688 238.861 199.996C243.842 223.157 251.555 251.363 252.615 275.164C252.856 280.257 253.451 283.845 252.615 286.792C251.924 289.275 249.964 291.021 248.695 295.682C247.827 298.885 252.39 306.493 254.784 305.42C256.391 304.715 256.745 303.562 258.432 298.18C258.866 296.835 260.907 291.597 261.855 291.149C264.008 289.964 264.891 298.709 264.522 301.912" fill="#E3DCFF"/>
<path d="M264.602 300.006C264.664 303.417 263.995 306.803 262.642 309.937C261.758 312.131 263.156 313.14 264.763 313.252C267.012 313.492 268.764 311.891 270.451 307.406C271.719 303.574 272.216 299.529 271.913 295.505C271.72 293.199 274.661 292.638 274.404 289.098C272.411 272.04 270.049 204.577 241.865 160.45" stroke="black" stroke-width="0.708943" stroke-linecap="round" stroke-linejoin="round"/>
<path d="M264.538 301.848C264.908 298.645 264.024 289.899 261.871 291.085C260.923 291.533 258.882 296.771 258.448 298.116C257.774 300.262 257.581 302.793 257.083 303.962C255.347 307.87 250.173 302.793 249.322 299.285C247.715 292.542 252.342 287.577 252.632 286.728C253.644 283.797 252.776 278.72 252.632 275.1C251.571 251.299 243.858 223.093 238.877 199.932" stroke="black" stroke-width="0.708943" stroke-linecap="round" stroke-linejoin="round"/>
<path fill-rule="evenodd" clip-rule="evenodd" d="M264.313 292.846C265.711 297.652 264.313 311.186 259.878 313.829C257.725 315.11 254.849 314.101 254.528 312.691C253.724 309.28 255.572 308.399 256.488 303.45C257.239 299.151 257.288 294.759 256.633 290.444C256.022 287.128 260.296 284.806 263.413 290.764C263.803 291.416 264.106 292.116 264.313 292.846V292.846Z" fill="#E3DCFF"/>
<path fill-rule="evenodd" clip-rule="evenodd" d="M264.313 292.846C265.711 297.652 264.313 311.186 259.878 313.829C257.725 315.11 254.849 314.101 254.528 312.691C253.724 309.28 255.572 308.399 256.488 303.45C257.239 299.151 257.288 294.759 256.633 290.444C256.022 287.128 260.296 284.806 263.413 290.764C263.803 291.416 264.106 292.116 264.313 292.846V292.846Z" stroke="black" stroke-width="0.708943" stroke-linecap="round"/>
<path d="M273.729 283.557C273.568 284.438 276.734 295.361 276.107 303.049C275.754 307.326 273.135 312.868 269.503 310.946" stroke="black" stroke-width="0.708943" stroke-linecap="round"/>
<path fill-rule="evenodd" clip-rule="evenodd" d="M261.324 281.458C257.762 281.648 254.998 284.63 255.09 288.186C254.967 289.875 255.534 291.543 256.662 292.81C257.791 294.077 259.385 294.835 261.083 294.913C264.646 294.723 267.41 291.741 267.318 288.186C267.436 286.497 266.868 284.832 265.74 283.566C264.612 282.3 263.021 281.54 261.324 281.458" fill="#E3DCFF"/>
<path fill-rule="evenodd" clip-rule="evenodd" d="M272.042 282.596C270.74 282.596 265.904 294.448 270.628 294.913C275.352 295.377 272.476 302.921 273.842 302.921C275.207 302.921 275.448 298.693 275.448 296.739C275.448 294.785 273.36 282.564 272.042 282.564" fill="#E3DCFF"/>
<path d="M256.857 293.76C256.857 292.366 255.652 291.934 255.427 294.048C255.249 295.888 255.714 297.733 256.745 299.269" stroke="black" stroke-width="0.708943" stroke-linecap="round"/>
<path fill-rule="evenodd" clip-rule="evenodd" d="M171.763 16.744H71.8965C58.15 16.744 47.0095 27.894 47.0213 41.6405L47.043 67.0256C47.0548 80.7554 58.1883 91.8795 71.9182 91.8795H163.086C164.404 94.9387 168.115 98.2863 172.245 100.16C181.436 104.373 192.861 102.499 188.313 100.577C182.85 98.2863 181.774 94.1699 183.204 90.1016C198.827 85.1139 209.444 70.6562 209.491 54.3037C209.43 33.5669 192.566 16.7792 171.763 16.744Z" fill="black"/>
<path d="M61.7051 40.6047C61.7051 40.2193 61.7561 39.7998 61.8581 39.3464C61.9715 38.8929 62.1245 38.4395 62.3172 37.986C62.51 37.5212 62.7424 37.0734 63.0144 36.6427C63.2865 36.2005 63.5926 35.8151 63.9327 35.4864C64.2728 35.1463 64.6412 34.8799 65.038 34.6871C65.4347 34.4831 65.8542 34.3811 66.2963 34.3811C66.6591 34.3811 66.9992 34.4321 67.3166 34.5341C67.634 34.6248 67.9061 34.7665 68.1328 34.9592C68.3595 35.1519 68.5352 35.3957 68.6599 35.6904C68.796 35.9738 68.864 36.3139 68.864 36.7107C68.6146 36.7107 68.4105 36.6483 68.2518 36.5236C68.1044 36.3876 67.9627 36.2402 67.8267 36.0815C67.702 35.9228 67.5603 35.7811 67.4016 35.6564C67.2542 35.5317 67.0615 35.4694 66.8234 35.4694C66.472 35.4694 66.1319 35.56 65.8032 35.7414C65.4858 35.9228 65.1853 36.1665 64.9019 36.4726C64.6299 36.7787 64.3861 37.1245 64.1707 37.5099C63.9667 37.8953 63.7853 38.2864 63.6266 38.6832C63.4792 39.0686 63.3602 39.4484 63.2695 39.8225C63.1901 40.1966 63.1505 40.5197 63.1505 40.7918C63.1505 41.3813 63.2355 41.9367 63.4055 42.4582C63.5869 42.9683 63.842 43.4161 64.1707 43.8016C64.4995 44.1757 64.9076 44.4704 65.3951 44.6858C65.8825 44.9012 66.438 45.0089 67.0615 45.0089C67.4583 45.0089 67.8324 44.9522 68.1838 44.8388C68.5466 44.7141 68.8923 44.5838 69.2211 44.4477C69.5612 44.3004 69.8956 44.1643 70.2243 44.0396C70.5531 43.9149 70.8819 43.8526 71.2106 43.8526C71.256 43.8526 71.3183 43.8583 71.3977 43.8696C71.4883 43.8696 71.5677 43.8809 71.6357 43.9036C71.7151 43.9263 71.7831 43.9659 71.8398 44.0226C71.8965 44.068 71.9248 44.1417 71.9248 44.2437C71.9248 44.6518 71.7661 44.9976 71.4487 45.281C71.1426 45.5644 70.7742 45.7968 70.3434 45.9781C69.9126 46.1482 69.4648 46.2729 69 46.3522C68.5352 46.4316 68.1555 46.4713 67.8607 46.4713C66.9992 46.4713 66.1943 46.3352 65.4461 46.0632C64.6979 45.7798 64.046 45.383 63.4906 44.8729C62.9351 44.3627 62.4986 43.7506 62.1812 43.0364C61.8638 42.3108 61.7051 41.5003 61.7051 40.6047ZM72.639 39.2954C72.639 39.1933 72.6447 39.0913 72.656 38.9893C72.6673 38.8759 72.69 38.7796 72.724 38.7002C72.758 38.6095 72.809 38.5358 72.8771 38.4792C72.9564 38.4225 73.0641 38.3941 73.2001 38.3941C73.3135 38.3941 73.4382 38.4848 73.5742 38.6662C73.7216 38.8362 73.869 39.0573 74.0164 39.3294C74.1637 39.5901 74.3054 39.8792 74.4415 40.1966C74.5888 40.514 74.7135 40.8088 74.8156 41.0808C74.9289 41.3416 75.0196 41.5683 75.0876 41.761C75.1557 41.9537 75.1953 42.0558 75.2067 42.0671C75.354 41.6703 75.5184 41.2396 75.6998 40.7748C75.8812 40.31 76.1022 39.8792 76.363 39.4824C76.6351 39.0743 76.9525 38.7342 77.3152 38.4622C77.6893 38.1901 78.1428 38.054 78.6756 38.054C78.9477 38.054 79.2027 38.0994 79.4408 38.1901C79.6902 38.2694 79.9056 38.3941 80.087 38.5642C80.2797 38.7229 80.4327 38.9156 80.5461 39.1423C80.6595 39.3691 80.7161 39.6298 80.7161 39.9245C80.7161 40.1739 80.6141 40.3497 80.4101 40.4517C80.2173 40.5537 79.9963 40.6047 79.7469 40.6047H79.5768L78.8456 39.8735C78.823 39.8735 78.806 39.8679 78.7946 39.8565C78.772 39.8565 78.7493 39.8565 78.7266 39.8565C78.7153 39.8452 78.6983 39.8395 78.6756 39.8395C78.2788 39.8395 77.9671 39.9529 77.7403 40.1796C77.525 40.395 77.3606 40.6671 77.2472 40.9958C77.1339 41.3132 77.0602 41.6533 77.0262 42.0161C77.0035 42.3675 76.9921 42.6906 76.9921 42.9854C76.9921 43.2121 77.0148 43.4445 77.0602 43.6825C77.1055 43.9093 77.1565 44.136 77.2132 44.3627C77.2699 44.5781 77.3209 44.8048 77.3662 45.0429C77.4116 45.2696 77.4343 45.5077 77.4343 45.7571C77.4343 46.2332 77.1792 46.4713 76.6691 46.4713C76.3857 46.4713 76.0909 46.3239 75.7848 46.0292C75.4787 45.7231 75.1727 45.3376 74.8666 44.8729C74.5718 44.4081 74.2884 43.8979 74.0164 43.3424C73.7443 42.7756 73.5062 42.2258 73.3022 41.693C73.0981 41.1602 72.9337 40.6784 72.809 40.2476C72.6957 39.8168 72.639 39.4994 72.639 39.2954ZM81.3283 41.71C81.3283 41.0979 81.402 40.4857 81.5494 39.8735C81.6967 39.2614 81.9291 38.7116 82.2465 38.2241C82.5753 37.7366 82.9947 37.3399 83.5049 37.0338C84.0263 36.7277 84.6555 36.5746 85.3924 36.5746C85.8118 36.5746 86.1803 36.654 86.4977 36.8127C86.8151 36.9601 87.0815 37.1585 87.2969 37.4079C87.5123 37.6573 87.671 37.952 87.773 38.2921C87.8864 38.6209 87.9431 38.9666 87.9431 39.3294C87.9431 39.9075 87.807 40.4687 87.5349 41.0128C87.2742 41.557 86.9171 42.0388 86.4637 42.4582C86.0215 42.8663 85.5114 43.1781 84.9333 43.3935C84.3551 43.5975 83.7656 43.6429 83.1648 43.5295C83.1761 43.8583 83.2838 44.1247 83.4879 44.3287C83.7033 44.5214 83.9583 44.6688 84.2531 44.7708C84.5478 44.8729 84.8539 44.9409 85.1713 44.9749C85.4887 44.9976 85.7721 45.0089 86.0215 45.0089C86.2823 45.0089 86.526 44.9862 86.7527 44.9409C86.9795 44.8955 87.2062 44.8445 87.4329 44.7878C87.6596 44.7312 87.8864 44.6801 88.1131 44.6348C88.3512 44.5894 88.6006 44.5668 88.8613 44.5668C88.9633 44.5668 89.0654 44.5724 89.1674 44.5838C89.2694 44.5951 89.3658 44.6235 89.4565 44.6688C89.5472 44.7028 89.6208 44.7652 89.6775 44.8559C89.7342 44.9352 89.7625 45.0372 89.7625 45.1619C89.7625 45.3773 89.6832 45.5587 89.5245 45.7061C89.3658 45.8421 89.1617 45.9611 88.9123 46.0632C88.6743 46.1652 88.4078 46.2446 88.1131 46.3012C87.8184 46.3466 87.5293 46.3863 87.2459 46.4203C86.9738 46.4429 86.7187 46.4543 86.4807 46.4543C86.2539 46.4656 86.0839 46.4713 85.9705 46.4713C85.245 46.4713 84.5932 46.3579 84.015 46.1312C83.4369 45.8931 82.9494 45.57 82.5526 45.1619C82.1559 44.7425 81.8498 44.2437 81.6344 43.6655C81.4303 43.076 81.3283 42.4242 81.3283 41.71ZM83.1308 40.6047C83.1308 41.0015 83.1818 41.2906 83.2838 41.472C83.3972 41.6533 83.6636 41.744 84.083 41.744C84.3778 41.744 84.6669 41.693 84.9503 41.591C85.2337 41.4776 85.4887 41.3246 85.7155 41.1319C85.9535 40.9391 86.1406 40.7124 86.2766 40.4517C86.4127 40.1909 86.4807 39.9075 86.4807 39.6015C86.4807 39.4314 86.4637 39.2557 86.4297 39.0743C86.407 38.8929 86.3503 38.7286 86.2596 38.5812C86.1689 38.4225 86.0499 38.2978 85.9025 38.2071C85.7665 38.1051 85.5851 38.054 85.3584 38.054C85.0183 38.054 84.7065 38.1334 84.4231 38.2921C84.151 38.4395 83.9187 38.6379 83.7259 38.8873C83.5332 39.1253 83.3858 39.3974 83.2838 39.7035C83.1818 39.9982 83.1308 40.2986 83.1308 40.6047ZM98.1288 44.2437C97.698 44.5384 97.3239 44.8048 97.0065 45.0429C96.7004 45.2696 96.4 45.4623 96.1052 45.6211C95.8105 45.7798 95.4931 45.8988 95.153 45.9781C94.8242 46.0575 94.4161 46.0972 93.9286 46.0972C92.8744 46.0972 92.0922 45.8194 91.582 45.264C91.0719 44.6971 90.8168 43.8583 90.8168 42.7473C90.8168 42.3165 90.8735 41.8687 90.9869 41.4039C91.1002 40.9391 91.2646 40.48 91.48 40.0266C91.7067 39.5618 91.9731 39.1253 92.2792 38.7172C92.5853 38.2978 92.931 37.9293 93.3165 37.6119C93.7019 37.2945 94.11 37.0451 94.5408 36.8637C94.9829 36.671 95.4477 36.5746 95.9352 36.5746C96.7514 36.654 97.3919 36.8581 97.8567 37.1868C98.3215 37.5042 98.6729 37.918 98.911 38.4281C99.149 38.9269 99.3134 39.4881 99.4041 40.1116C99.4948 40.7238 99.5628 41.3586 99.6082 42.0161C99.6648 42.6736 99.7329 43.3311 99.8122 43.9886C99.8916 44.6461 100.056 45.2526 100.305 45.8081C100.158 46.1822 100.016 46.4429 99.8802 46.5903C99.7555 46.749 99.6138 46.7774 99.4551 46.6753C99.2964 46.5733 99.1094 46.3239 98.894 45.9271C98.6899 45.5304 98.4348 44.9692 98.1288 44.2437ZM92.2622 42.7813C92.2622 43.4275 92.3812 43.9036 92.6193 44.2097C92.8687 44.5044 93.3051 44.6518 93.9286 44.6518C94.3934 44.6518 94.8356 44.5724 95.255 44.4137C95.6858 44.2437 96.0599 44.017 96.3773 43.7336C96.6947 43.4388 96.9498 43.0874 97.1425 42.6793C97.3352 42.2712 97.4316 41.8177 97.4316 41.3189C97.4316 41.1149 97.4372 40.8314 97.4486 40.4687C97.4599 40.0946 97.4372 39.7262 97.3806 39.3634C97.3239 39.0006 97.2162 38.6889 97.0575 38.4281C96.8988 38.1561 96.6607 38.02 96.3433 38.02C95.7538 38.02 95.2097 38.1731 94.7109 38.4792C94.2121 38.7739 93.7813 39.1537 93.4185 39.6185C93.0557 40.0832 92.7723 40.5991 92.5683 41.1659C92.3642 41.7214 92.2622 42.2598 92.2622 42.7813ZM101.003 37.867C101.003 37.833 101.008 37.8046 101.02 37.782C101.02 37.7593 101.025 37.731 101.037 37.6969C101.082 37.6403 101.15 37.5666 101.241 37.4759C101.331 37.3852 101.388 37.3399 101.411 37.3399H104.829C104.829 37.2152 104.812 37.0168 104.778 36.7447C104.744 36.4726 104.71 36.1722 104.676 35.8435C104.653 35.5147 104.647 35.1746 104.659 34.8232C104.67 34.4604 104.715 34.1373 104.795 33.8539C104.885 33.5592 105.021 33.3211 105.203 33.1397C105.395 32.947 105.662 32.8507 106.002 32.8507C106.002 33.9956 106.081 34.9139 106.24 35.6054C106.399 36.2969 106.608 36.8297 106.869 37.2038C107.141 37.5779 107.447 37.8216 107.787 37.935C108.127 38.0484 108.473 38.0994 108.825 38.0881C109.187 38.0654 109.539 38.0087 109.879 37.918C110.219 37.8273 110.519 37.765 110.78 37.731C111.052 37.6969 111.268 37.7253 111.426 37.816C111.585 37.8953 111.664 38.0937 111.664 38.4111C111.664 38.6492 111.608 38.8192 111.494 38.9213C111.392 39.0233 111.188 39.1027 110.882 39.1593C110.791 39.1707 110.638 39.1933 110.423 39.2274C110.219 39.25 109.987 39.2727 109.726 39.2954C109.465 39.318 109.187 39.3464 108.893 39.3804C108.598 39.4031 108.32 39.4257 108.059 39.4484C107.799 39.4711 107.561 39.4881 107.345 39.4994C107.13 39.4994 106.971 39.4994 106.869 39.4994C106.869 39.5561 106.863 39.6525 106.852 39.7885C106.841 39.9245 106.835 40.0152 106.835 40.0606C106.835 40.5594 106.914 41.0468 107.073 41.523C107.232 41.9878 107.402 42.4525 107.583 42.9173C107.776 43.3821 107.952 43.8469 108.11 44.3117C108.269 44.7765 108.348 45.2583 108.348 45.7571C108.348 45.8478 108.337 45.9441 108.314 46.0462C108.303 46.1369 108.269 46.2219 108.212 46.3012C108.167 46.3693 108.093 46.4203 107.991 46.4543C107.901 46.4996 107.77 46.494 107.6 46.4373C107.17 46.3239 106.846 46.0802 106.631 45.7061C106.427 45.332 106.274 44.8899 106.172 44.3797C106.07 43.8583 106.002 43.3084 105.968 42.7303C105.934 42.1521 105.877 41.6137 105.798 41.1149C105.73 40.6047 105.616 40.1739 105.458 39.8225C105.299 39.4597 105.044 39.2387 104.693 39.1593L101.411 38.4111C101.365 38.4111 101.297 38.3658 101.207 38.2751C101.116 38.1731 101.059 38.0994 101.037 38.054C101.025 38.0314 101.02 38.003 101.02 37.969C101.008 37.9463 101.003 37.9123 101.003 37.867ZM112.311 41.71C112.311 41.0979 112.384 40.4857 112.532 39.8735C112.679 39.2614 112.911 38.7116 113.229 38.2241C113.558 37.7366 113.977 37.3399 114.487 37.0338C115.009 36.7277 115.638 36.5746 116.375 36.5746C116.794 36.5746 117.162 36.654 117.48 36.8127C117.797 36.9601 118.064 37.1585 118.279 37.4079C118.495 37.6573 118.653 37.952 118.755 38.2921C118.869 38.6209 118.925 38.9666 118.925 39.3294C118.925 39.9075 118.789 40.4687 118.517 41.0128C118.256 41.557 117.899 42.0388 117.446 42.4582C117.004 42.8663 116.494 43.1781 115.915 43.3935C115.337 43.5975 114.748 43.6429 114.147 43.5295C114.158 43.8583 114.266 44.1247 114.47 44.3287C114.686 44.5214 114.941 44.6688 115.235 44.7708C115.53 44.8729 115.836 44.9409 116.154 44.9749C116.471 44.9976 116.754 45.0089 117.004 45.0089C117.265 45.0089 117.508 44.9862 117.735 44.9409C117.962 44.8955 118.188 44.8445 118.415 44.7878C118.642 44.7312 118.869 44.6801 119.095 44.6348C119.333 44.5894 119.583 44.5668 119.844 44.5668C119.946 44.5668 120.048 44.5724 120.15 44.5838C120.252 44.5951 120.348 44.6235 120.439 44.6688C120.529 44.7028 120.603 44.7652 120.66 44.8559C120.716 44.9352 120.745 45.0372 120.745 45.1619C120.745 45.3773 120.665 45.5587 120.507 45.7061C120.348 45.8421 120.144 45.9611 119.895 46.0632C119.656 46.1652 119.39 46.2446 119.095 46.3012C118.801 46.3466 118.512 46.3863 118.228 46.4203C117.956 46.4429 117.701 46.4543 117.463 46.4543C117.236 46.4656 117.066 46.4713 116.953 46.4713C116.227 46.4713 115.575 46.3579 114.997 46.1312C114.419 45.8931 113.932 45.57 113.535 45.1619C113.138 44.7425 112.832 44.2437 112.617 43.6655C112.413 43.076 112.311 42.4242 112.311 41.71ZM114.113 40.6047C114.113 41.0015 114.164 41.2906 114.266 41.472C114.379 41.6533 114.646 41.744 115.065 41.744C115.36 41.744 115.649 41.693 115.933 41.591C116.216 41.4776 116.471 41.3246 116.698 41.1319C116.936 40.9391 117.123 40.7124 117.259 40.4517C117.395 40.1909 117.463 39.9075 117.463 39.6015C117.463 39.4314 117.446 39.2557 117.412 39.0743C117.389 38.8929 117.333 38.7286 117.242 38.5812C117.151 38.4225 117.032 38.2978 116.885 38.2071C116.749 38.1051 116.567 38.054 116.341 38.054C116.001 38.054 115.689 38.1334 115.405 38.2921C115.133 38.4395 114.901 38.6379 114.708 38.8873C114.515 39.1253 114.368 39.3974 114.266 39.7035C114.164 39.9982 114.113 40.2986 114.113 40.6047ZM129.349 37.6459C129.349 37.5439 129.349 37.4419 129.349 37.3399C129.36 37.2265 129.383 37.1245 129.417 37.0338C129.462 36.9317 129.519 36.8581 129.587 36.8127C129.666 36.756 129.78 36.7277 129.927 36.7277C129.939 36.7277 129.95 36.7277 129.961 36.7277C129.984 36.7277 130.007 36.7277 130.029 36.7277C130.063 36.739 130.092 36.7447 130.114 36.7447C130.33 37.0394 130.517 37.4192 130.675 37.884C130.834 38.3375 130.987 38.8249 131.135 39.3464C131.282 39.8565 131.441 40.378 131.611 40.9108C131.781 41.4323 132.002 41.9027 132.274 42.3222C132.546 42.7416 132.88 43.076 133.277 43.3254C133.674 43.5748 134.167 43.6825 134.757 43.6485C135.017 43.6485 135.187 43.5068 135.267 43.2234C135.346 42.94 135.386 42.5772 135.386 42.1351C135.397 41.693 135.386 41.2055 135.352 40.6727C135.329 40.1399 135.329 39.6355 135.352 39.1593C135.386 38.6719 135.471 38.2468 135.607 37.884C135.754 37.5212 136.004 37.2775 136.355 37.1528C136.502 37.4475 136.621 37.9123 136.712 38.5472C136.814 39.1707 136.888 39.8962 136.933 40.7238C136.978 41.54 137.001 42.4299 137.001 43.3935C137.001 44.3457 136.978 45.298 136.933 46.2502C136.888 47.1911 136.82 48.098 136.729 48.9709C136.638 49.8438 136.536 50.609 136.423 51.2666C136.31 51.9241 136.174 52.4399 136.015 52.814C135.867 53.1994 135.709 53.3638 135.539 53.3071C135.301 53.0804 135.114 52.7856 134.978 52.4229C134.853 52.0601 134.762 51.6577 134.705 51.2155C134.66 50.7734 134.643 50.303 134.654 49.8042C134.666 49.3167 134.683 48.8236 134.705 48.3248C134.74 47.826 134.774 47.3385 134.808 46.8624C134.853 46.3863 134.876 45.9498 134.876 45.553C134.467 45.587 134.048 45.5247 133.617 45.366C133.198 45.2073 132.784 44.9635 132.376 44.6348C131.968 44.2947 131.577 43.8866 131.203 43.4105C130.84 42.9343 130.517 42.3959 130.233 41.795C129.961 41.1942 129.746 40.548 129.587 39.8565C129.428 39.1537 129.349 38.4168 129.349 37.6459ZM138.021 42.9854C138.021 42.2825 138.186 41.6307 138.515 41.0298C138.843 40.4177 139.274 39.8962 139.807 39.4654C140.351 39.0233 140.957 38.6775 141.626 38.4281C142.307 38.1787 142.992 38.054 143.684 38.054C144.069 38.054 144.409 38.1787 144.704 38.4281C145.01 38.6775 145.265 38.9836 145.469 39.3464C145.673 39.6978 145.826 40.0719 145.928 40.4687C146.042 40.8655 146.099 41.2112 146.099 41.506C146.099 42.1408 145.945 42.7586 145.639 43.3595C145.333 43.9489 144.937 44.4761 144.449 44.9409C143.962 45.3943 143.412 45.7628 142.8 46.0462C142.187 46.3296 141.575 46.4713 140.963 46.4713C140.419 46.4713 139.96 46.3806 139.586 46.1992C139.212 46.0065 138.911 45.7571 138.685 45.451C138.458 45.1336 138.288 44.7652 138.174 44.3457C138.072 43.9149 138.021 43.4615 138.021 42.9854ZM139.467 43.1554C139.467 43.4501 139.489 43.7109 139.535 43.9376C139.591 44.153 139.682 44.34 139.807 44.4988C139.943 44.6575 140.119 44.7822 140.334 44.8729C140.549 44.9522 140.816 44.9919 141.133 44.9919C141.553 44.9919 141.972 44.8785 142.392 44.6518C142.811 44.4137 143.185 44.119 143.514 43.7676C143.854 43.4048 144.126 43.008 144.33 42.5772C144.534 42.1465 144.636 41.727 144.636 41.3189C144.636 41.1375 144.619 40.9391 144.585 40.7238C144.551 40.5084 144.494 40.31 144.415 40.1286C144.336 39.9472 144.222 39.7942 144.075 39.6695C143.928 39.5448 143.741 39.4824 143.514 39.4824C143.31 39.4824 143.066 39.5504 142.783 39.6865C142.511 39.8225 142.221 39.9982 141.915 40.2136C141.621 40.429 141.326 40.6727 141.031 40.9448C140.748 41.2169 140.487 41.489 140.249 41.761C140.011 42.0331 139.818 42.2938 139.671 42.5432C139.535 42.7926 139.467 42.9967 139.467 43.1554ZM146.762 39.4994C146.762 39.4314 146.762 39.3124 146.762 39.1423C146.773 38.9609 146.779 38.7739 146.779 38.5812C146.779 38.3885 146.779 38.2128 146.779 38.054C146.79 37.884 146.796 37.765 146.796 37.6969C146.875 37.5609 146.966 37.4305 147.068 37.3058C147.181 37.1698 147.295 37.0791 147.408 37.0338C147.533 36.9771 147.663 36.9658 147.799 36.9998C147.946 37.0338 148.094 37.1471 148.241 37.3399V37.4759V37.6969C148.23 37.7536 148.207 37.8897 148.173 38.1051C148.139 38.3091 148.099 38.5358 148.054 38.7852C148.009 39.0346 147.963 39.267 147.918 39.4824C147.884 39.6865 147.867 39.8168 147.867 39.8735C147.867 40.0889 147.89 40.361 147.935 40.6897C147.98 41.0072 148.043 41.3416 148.122 41.693C148.213 42.0444 148.32 42.3959 148.445 42.7473C148.581 43.0987 148.74 43.4161 148.921 43.6995C149.103 43.9716 149.301 44.1983 149.516 44.3797C149.743 44.5611 150.004 44.6518 150.299 44.6518C150.661 44.6518 150.979 44.5554 151.251 44.3627C151.534 44.17 151.778 43.9206 151.982 43.6145C152.186 43.3084 152.351 42.9627 152.475 42.5772C152.611 42.1918 152.719 41.8064 152.798 41.4209C152.878 41.0242 152.934 40.6444 152.968 40.2816C153.002 39.9189 153.019 39.6015 153.019 39.3294C153.019 39.0573 152.997 38.8022 152.951 38.5642C152.917 38.3148 152.872 38.071 152.815 37.833C152.759 37.5949 152.708 37.3625 152.662 37.1358C152.628 36.8977 152.611 36.6597 152.611 36.4216C152.611 36.2062 152.685 36.0532 152.832 35.9625C152.991 35.8718 153.167 35.8264 153.359 35.8264C153.598 35.8264 153.79 35.9001 153.938 36.0475C154.085 36.1835 154.198 36.3593 154.278 36.5746C154.368 36.79 154.425 37.0394 154.448 37.3228C154.482 37.5949 154.499 37.867 154.499 38.1391C154.499 38.4111 154.493 38.6719 154.482 38.9213C154.47 39.1593 154.465 39.3521 154.465 39.4994C154.465 39.8849 154.436 40.3213 154.38 40.8088C154.323 41.2962 154.221 41.8007 154.074 42.3222C153.938 42.8323 153.762 43.3368 153.547 43.8356C153.342 44.3344 153.087 44.7822 152.781 45.1789C152.487 45.5644 152.141 45.8761 151.744 46.1142C151.359 46.3522 150.922 46.4713 150.435 46.4713C149.925 46.4713 149.477 46.3522 149.091 46.1142C148.706 45.8648 148.377 45.5417 148.105 45.1449C147.844 44.7368 147.623 44.2777 147.442 43.7676C147.26 43.2574 147.119 42.7473 147.017 42.2372C146.926 41.727 146.858 41.2339 146.813 40.7578C146.779 40.2703 146.762 39.8509 146.762 39.4994ZM155.502 39.2954C155.502 39.1933 155.508 39.0913 155.519 38.9893C155.53 38.8759 155.553 38.7796 155.587 38.7002C155.621 38.6095 155.672 38.5358 155.74 38.4792C155.819 38.4225 155.927 38.3941 156.063 38.3941C156.177 38.3941 156.301 38.4848 156.437 38.6662C156.585 38.8362 156.732 39.0573 156.879 39.3294C157.027 39.5901 157.168 39.8792 157.305 40.1966C157.452 40.514 157.577 40.8088 157.679 41.0808C157.792 41.3416 157.883 41.5683 157.951 41.761C158.019 41.9537 158.058 42.0558 158.07 42.0671C158.217 41.6703 158.381 41.2396 158.563 40.7748C158.744 40.31 158.965 39.8792 159.226 39.4824C159.498 39.0743 159.816 38.7342 160.178 38.4622C160.552 38.1901 161.006 38.054 161.539 38.054C161.811 38.054 162.066 38.0994 162.304 38.1901C162.553 38.2694 162.769 38.3941 162.95 38.5642C163.143 38.7229 163.296 38.9156 163.409 39.1423C163.522 39.3691 163.579 39.6298 163.579 39.9245C163.579 40.1739 163.477 40.3497 163.273 40.4517C163.08 40.5537 162.859 40.6047 162.61 40.6047H162.44L161.709 39.8735C161.686 39.8735 161.669 39.8679 161.658 39.8565C161.635 39.8565 161.612 39.8565 161.59 39.8565C161.578 39.8452 161.561 39.8395 161.539 39.8395C161.142 39.8395 160.83 39.9529 160.603 40.1796C160.388 40.395 160.224 40.6671 160.11 40.9958C159.997 41.3132 159.923 41.6533 159.889 42.0161C159.867 42.3675 159.855 42.6906 159.855 42.9854C159.855 43.2121 159.878 43.4445 159.923 43.6825C159.969 43.9093 160.02 44.136 160.076 44.3627C160.133 44.5781 160.184 44.8048 160.229 45.0429C160.275 45.2696 160.297 45.5077 160.297 45.7571C160.297 46.2332 160.042 46.4713 159.532 46.4713C159.249 46.4713 158.954 46.3239 158.648 46.0292C158.342 45.7231 158.036 45.3376 157.73 44.8729C157.435 44.4081 157.151 43.8979 156.879 43.3424C156.607 42.7756 156.369 42.2258 156.165 41.693C155.961 41.1602 155.797 40.6784 155.672 40.2476C155.559 39.8168 155.502 39.4994 155.502 39.2954ZM68.6259 75.0187C68.3879 74.5766 68.1215 74.0268 67.8267 73.3693C67.5433 72.7004 67.2486 72.0089 66.9425 71.2947C66.6364 70.5692 66.3133 69.8607 65.9732 69.1691C65.6445 68.4776 65.31 67.8768 64.9699 67.3667C64.8339 67.2646 64.6469 67.2023 64.4088 67.1796C64.1707 67.1569 63.9213 67.1513 63.6606 67.1626C63.3999 67.1626 63.1391 67.1569 62.8784 67.1456C62.629 67.1229 62.4079 67.0606 62.2152 66.9585C62.0338 66.8565 61.8978 66.6978 61.8071 66.4824C61.7164 66.267 61.6994 65.9553 61.7561 65.5472H64.6129C64.6695 64.9123 64.7659 64.2832 64.9019 63.6597C65.038 63.0362 65.2193 62.441 65.4461 61.8742C65.6841 61.3074 65.9675 60.7802 66.2963 60.2928C66.6251 59.8053 67.0218 59.3859 67.4866 59.0344C67.9514 58.683 68.4842 58.4053 69.085 58.2012C69.6972 57.9972 70.3887 57.8951 71.1596 57.8951C71.4317 57.8951 71.7037 57.9632 71.9758 58.0992C72.2479 58.2239 72.4916 58.3939 72.707 58.6093C72.9224 58.8247 73.0924 59.0685 73.2171 59.3405C73.3532 59.6126 73.4212 59.8847 73.4212 60.1567C73.2058 60.1567 73.0131 60.1171 72.843 60.0377C72.673 59.947 72.5086 59.8507 72.3499 59.7486C72.1912 59.6353 72.0212 59.5332 71.8398 59.4425C71.6584 59.3405 71.4543 59.2895 71.2276 59.2895C70.5474 59.2895 69.9126 59.4255 69.3231 59.6976C68.745 59.9697 68.2348 60.3325 67.7927 60.7859C67.3619 61.2394 67.0218 61.7665 66.7724 62.3673C66.523 62.9682 66.3983 63.603 66.3983 64.2718C66.3983 64.3172 66.3983 64.4022 66.3983 64.5269C66.4097 64.6403 66.4153 64.765 66.4153 64.901C66.4153 65.037 66.4153 65.1674 66.4153 65.2921C66.4267 65.4168 66.4323 65.5018 66.4323 65.5472C66.8518 65.6832 67.3222 65.7852 67.8437 65.8533C68.3652 65.9213 68.8867 65.9666 69.4081 65.9893C69.9409 66.0006 70.4511 65.995 70.9385 65.9723C71.4373 65.9496 71.8795 65.9213 72.2649 65.8873C72.2989 65.9213 72.3612 65.9836 72.4519 66.0743C72.5426 66.165 72.5936 66.233 72.605 66.2784C72.605 66.3124 72.6106 66.335 72.622 66.3464C72.6447 66.4144 72.656 66.4484 72.656 66.4484C72.656 66.6865 72.5313 66.8735 72.2819 67.0096C72.0325 67.1456 71.7151 67.2476 71.3296 67.3156C70.9442 67.3723 70.5134 67.412 70.0373 67.4347C69.5725 67.4573 69.1191 67.48 68.6769 67.5027C68.2462 67.514 67.855 67.5367 67.5036 67.5707C67.1635 67.5934 66.9255 67.6444 66.7894 67.7238C66.9368 68.4039 67.1975 69.0614 67.5716 69.6963C67.9571 70.3311 68.3482 70.9659 68.745 71.6008C69.1417 72.2356 69.4932 72.8761 69.7992 73.5223C70.1053 74.1685 70.2584 74.8316 70.2584 75.5118C70.213 75.5118 70.1053 75.5118 69.9353 75.5118C69.7766 75.5232 69.6065 75.5175 69.4251 75.4948C69.2438 75.4721 69.068 75.4211 68.898 75.3418C68.7393 75.2738 68.6486 75.1661 68.6259 75.0187ZM74.4245 67.0606C74.4245 66.9926 74.4245 66.8849 74.4245 66.7375C74.4358 66.5788 74.4415 66.4144 74.4415 66.2444C74.4528 66.0743 74.4585 65.9099 74.4585 65.7512C74.4698 65.5925 74.4755 65.4792 74.4755 65.4111C74.6002 65.2298 74.7589 65.0824 74.9516 64.969C75.1557 64.8557 75.3597 64.765 75.5638 64.6969C75.5978 65.3091 75.6941 65.9609 75.8528 66.6525C76.0116 67.344 76.1816 68.0412 76.363 68.744C76.5444 69.4355 76.7031 70.1214 76.8391 70.8016C76.9865 71.4818 77.0602 72.1166 77.0602 72.7061C77.0602 73.2162 76.7994 73.4713 76.278 73.4713C75.9605 73.4713 75.6941 73.3409 75.4787 73.0802C75.2634 72.8194 75.0876 72.4907 74.9516 72.0939C74.8269 71.6858 74.7249 71.238 74.6455 70.7506C74.5662 70.2518 74.5095 69.7643 74.4755 69.2882C74.4528 68.812 74.4358 68.3756 74.4245 67.9788C74.4245 67.582 74.4245 67.276 74.4245 67.0606ZM74.6625 60.6839C74.8779 60.7746 75.0593 60.9219 75.2067 61.126C75.354 61.3301 75.4164 61.5171 75.3937 61.6871C75.3824 61.8459 75.2577 61.9592 75.0196 62.0272C74.7816 62.0839 74.3848 62.0159 73.8293 61.8232C73.8293 61.5171 73.886 61.2507 73.9993 61.024C74.124 60.7972 74.3451 60.6839 74.6625 60.6839ZM77.7233 66.2954C77.7233 66.1933 77.729 66.0913 77.7403 65.9893C77.7517 65.8759 77.7744 65.7796 77.8084 65.7002C77.8424 65.6095 77.8934 65.5358 77.9614 65.4792C78.0408 65.4225 78.1485 65.3941 78.2845 65.3941C78.3979 65.3941 78.5226 65.4848 78.6586 65.6662C78.806 65.8362 78.9533 66.0573 79.1007 66.3294C79.2481 66.5901 79.3898 66.8792 79.5258 67.1966C79.6732 67.514 79.7979 67.8088 79.8999 68.0808C80.0133 68.3416 80.104 68.5683 80.172 68.761C80.24 68.9537 80.2797 69.0558 80.291 69.0671C80.4384 68.6703 80.6028 68.2396 80.7842 67.7748C80.9655 67.31 81.1866 66.8792 81.4473 66.4824C81.7194 66.0743 82.0368 65.7342 82.3996 65.4622C82.7737 65.1901 83.2271 65.054 83.7599 65.054C84.032 65.054 84.2871 65.0994 84.5251 65.1901C84.7745 65.2694 84.9899 65.3941 85.1713 65.5642C85.364 65.7229 85.5171 65.9156 85.6304 66.1423C85.7438 66.3691 85.8005 66.6298 85.8005 66.9245C85.8005 67.1739 85.6985 67.3497 85.4944 67.4517C85.3017 67.5537 85.0806 67.6047 84.8312 67.6047H84.6612L83.93 66.8735C83.9073 66.8735 83.8903 66.8679 83.879 66.8565C83.8563 66.8565 83.8336 66.8565 83.811 66.8565C83.7996 66.8452 83.7826 66.8395 83.7599 66.8395C83.3632 66.8395 83.0514 66.9529 82.8247 67.1796C82.6093 67.395 82.4449 67.6671 82.3316 67.9958C82.2182 68.3132 82.1445 68.6533 82.1105 69.0161C82.0878 69.3675 82.0765 69.6906 82.0765 69.9854C82.0765 70.2121 82.0992 70.4445 82.1445 70.6825C82.1899 70.9093 82.2409 71.136 82.2976 71.3627C82.3542 71.5781 82.4053 71.8048 82.4506 72.0429C82.4959 72.2696 82.5186 72.5077 82.5186 72.7571C82.5186 73.2332 82.2635 73.4713 81.7534 73.4713C81.47 73.4713 81.1753 73.3239 80.8692 73.0292C80.5631 72.7231 80.257 72.3376 79.9509 71.8729C79.6562 71.4081 79.3728 70.8979 79.1007 70.3424C78.8286 69.7756 78.5906 69.2258 78.3865 68.693C78.1825 68.1602 78.0181 67.6784 77.8934 67.2476C77.78 66.8168 77.7233 66.4994 77.7233 66.2954ZM89.6775 72.6721C89.8589 72.5474 90.0743 72.3887 90.3237 72.1959C90.5844 71.9919 90.8452 71.7765 91.1059 71.5498C91.3666 71.323 91.6104 71.085 91.8371 70.8356C92.0638 70.5862 92.2395 70.3481 92.3642 70.1214C92.5003 69.8833 92.5683 69.6623 92.5683 69.4582C92.5683 69.2542 92.4663 69.0841 92.2622 68.9481C91.8994 68.9481 91.5027 68.9651 91.0719 68.9991C90.6411 69.0218 90.2103 69.0331 89.7795 69.0331C89.3488 69.0218 88.9293 68.9821 88.5212 68.9141C88.1244 68.8461 87.7673 68.7214 87.4499 68.54C87.1325 68.3586 86.8774 68.1035 86.6847 67.7748C86.5033 67.4347 86.4126 67.0039 86.4126 66.4824C86.4126 65.8703 86.526 65.3204 86.7527 64.833C86.9908 64.3342 87.3026 63.8977 87.688 63.5236C88.0734 63.1382 88.5042 62.8038 88.9803 62.5204C89.4678 62.2256 89.9553 61.9762 90.4427 61.7722C90.7375 61.8515 91.0095 61.9932 91.2589 62.1973C91.5083 62.4013 91.7237 62.6281 91.9051 62.8775C91.8258 63.1269 91.667 63.3196 91.429 63.4556C91.2023 63.5917 90.9359 63.7107 90.6298 63.8127C90.335 63.9147 90.0233 64.0224 89.6945 64.1358C89.3658 64.2492 89.0654 64.4022 88.7933 64.5949C88.5325 64.7763 88.3115 65.02 88.1301 65.3261C87.9487 65.6209 87.858 66.012 87.858 66.4994C87.858 66.8622 87.9487 67.1286 88.1301 67.2986C88.3115 67.4687 88.5496 67.5877 88.8443 67.6557C89.139 67.7124 89.4735 67.7351 89.8476 67.7238C90.2217 67.7011 90.6014 67.6727 90.9869 67.6387C91.3836 67.6047 91.7691 67.5877 92.1432 67.5877C92.5173 67.5764 92.8517 67.6217 93.1464 67.7238C93.4412 67.8144 93.6736 67.9675 93.8436 68.1829C94.025 68.3983 94.1157 68.7157 94.1157 69.1351C94.1157 69.3165 94.0533 69.5489 93.9286 69.8323C93.8153 70.1157 93.6566 70.4218 93.4525 70.7506C93.2598 71.068 93.0274 71.3854 92.7553 71.7028C92.4946 72.0202 92.2169 72.3093 91.9221 72.57C91.6387 72.8194 91.3496 73.0292 91.0549 73.1992C90.7715 73.3579 90.5051 73.4373 90.2557 73.4373C90.0176 73.4373 89.8589 73.3522 89.7795 73.1822C89.7115 73.0122 89.6775 72.8421 89.6775 72.6721ZM94.4218 64.867C94.4218 64.833 94.4274 64.8046 94.4388 64.782C94.4388 64.7593 94.4445 64.731 94.4558 64.6969C94.5011 64.6403 94.5692 64.5666 94.6598 64.4759C94.7505 64.3852 94.8072 64.3399 94.8299 64.3399H98.2478C98.2478 64.2152 98.2308 64.0168 98.1968 63.7447C98.1628 63.4726 98.1288 63.1722 98.0948 62.8435C98.0721 62.5147 98.0664 62.1746 98.0778 61.8232C98.0891 61.4604 98.1344 61.1373 98.2138 60.8539C98.3045 60.5592 98.4405 60.3211 98.6219 60.1397C98.8146 59.947 99.081 59.8507 99.4211 59.8507C99.4211 60.9956 99.5005 61.9139 99.6592 62.6054C99.8179 63.2969 100.028 63.8297 100.288 64.2038C100.56 64.5779 100.866 64.8216 101.207 64.935C101.547 65.0484 101.892 65.0994 102.244 65.0881C102.607 65.0654 102.958 65.0087 103.298 64.918C103.638 64.8273 103.939 64.765 104.199 64.731C104.471 64.6969 104.687 64.7253 104.846 64.816C105.004 64.8953 105.084 65.0937 105.084 65.4111C105.084 65.6492 105.027 65.8192 104.914 65.9213C104.812 66.0233 104.607 66.1027 104.301 66.1593C104.211 66.1707 104.058 66.1933 103.842 66.2274C103.638 66.25 103.406 66.2727 103.145 66.2954C102.884 66.318 102.607 66.3464 102.312 66.3804C102.017 66.4031 101.739 66.4257 101.479 66.4484C101.218 66.4711 100.98 66.4881 100.764 66.4994C100.549 66.4994 100.39 66.4994 100.288 66.4994C100.288 66.5561 100.283 66.6525 100.271 66.7885C100.26 66.9245 100.254 67.0152 100.254 67.0606C100.254 67.5594 100.334 68.0468 100.492 68.523C100.651 68.9878 100.821 69.4525 101.003 69.9173C101.195 70.3821 101.371 70.8469 101.53 71.3117C101.688 71.7765 101.768 72.2583 101.768 72.7571C101.768 72.8478 101.756 72.9441 101.734 73.0462C101.722 73.1369 101.688 73.2219 101.632 73.3012C101.586 73.3693 101.513 73.4203 101.411 73.4543C101.32 73.4996 101.19 73.494 101.02 73.4373C100.589 73.3239 100.266 73.0802 100.05 72.7061C99.8462 72.332 99.6932 71.8899 99.5912 71.3797C99.4891 70.8583 99.4211 70.3084 99.3871 69.7303C99.3531 69.1521 99.2964 68.6137 99.2171 68.1149C99.149 67.6047 99.0357 67.1739 98.877 66.8225C98.7183 66.4597 98.4632 66.2387 98.1118 66.1593L94.8299 65.4111C94.7845 65.4111 94.7165 65.3658 94.6258 65.2751C94.5351 65.1731 94.4785 65.0994 94.4558 65.054C94.4445 65.0314 94.4388 65.003 94.4388 64.969C94.4274 64.9463 94.4218 64.9123 94.4218 64.867ZM116.834 72.6721C117.015 72.5474 117.231 72.3887 117.48 72.1959C117.741 71.9919 118.001 71.7765 118.262 71.5498C118.523 71.323 118.767 71.085 118.993 70.8356C119.22 70.5862 119.396 70.3481 119.52 70.1214C119.656 69.8833 119.725 69.6623 119.725 69.4582C119.725 69.2542 119.622 69.0841 119.418 68.9481C119.056 68.9481 118.659 68.9651 118.228 68.9991C117.797 69.0218 117.367 69.0331 116.936 69.0331C116.505 69.0218 116.086 68.9821 115.677 68.9141C115.281 68.8461 114.924 68.7214 114.606 68.54C114.289 68.3586 114.034 68.1035 113.841 67.7748C113.66 67.4347 113.569 67.0039 113.569 66.4824C113.569 65.8703 113.682 65.3204 113.909 64.833C114.147 64.3342 114.459 63.8977 114.844 63.5236C115.23 63.1382 115.66 62.8038 116.137 62.5204C116.624 62.2256 117.111 61.9762 117.599 61.7722C117.894 61.8515 118.166 61.9932 118.415 62.1973C118.665 62.4013 118.88 62.6281 119.061 62.8775C118.982 63.1269 118.823 63.3196 118.585 63.4556C118.358 63.5917 118.092 63.7107 117.786 63.8127C117.491 63.9147 117.179 64.0224 116.851 64.1358C116.522 64.2492 116.222 64.4022 115.95 64.5949C115.689 64.7763 115.468 65.02 115.286 65.3261C115.105 65.6209 115.014 66.012 115.014 66.4994C115.014 66.8622 115.105 67.1286 115.286 67.2986C115.468 67.4687 115.706 67.5877 116.001 67.6557C116.295 67.7124 116.63 67.7351 117.004 67.7238C117.378 67.7011 117.758 67.6727 118.143 67.6387C118.54 67.6047 118.925 67.5877 119.299 67.5877C119.673 67.5764 120.008 67.6217 120.303 67.7238C120.597 67.8144 120.83 67.9675 121 68.1829C121.181 68.3983 121.272 68.7157 121.272 69.1351C121.272 69.3165 121.21 69.5489 121.085 69.8323C120.972 70.1157 120.813 70.4218 120.609 70.7506C120.416 71.068 120.184 71.3854 119.912 71.7028C119.651 72.0202 119.373 72.3093 119.078 72.57C118.795 72.8194 118.506 73.0292 118.211 73.1992C117.928 73.3579 117.661 73.4373 117.412 73.4373C117.174 73.4373 117.015 73.3522 116.936 73.1822C116.868 73.0122 116.834 72.8421 116.834 72.6721ZM122.36 63.8127C122.36 63.484 122.338 63.1665 122.292 62.8605C122.247 62.543 122.236 62.2653 122.258 62.0272C122.281 61.7778 122.366 61.5795 122.513 61.4321C122.672 61.2847 122.955 61.211 123.363 61.211C123.488 61.4718 123.607 61.8685 123.721 62.4013C123.845 62.9341 123.964 63.5463 124.078 64.2378C124.191 64.9293 124.299 65.6832 124.401 66.4994C124.503 67.3043 124.593 68.1149 124.673 68.9311C124.764 69.7473 124.837 70.5522 124.894 71.3457C124.962 72.1279 125.013 72.8421 125.047 73.4883C124.673 73.7377 124.372 73.7547 124.146 73.5393C123.919 73.3239 123.732 72.9611 123.585 72.451C123.437 71.9295 123.324 71.3004 123.244 70.5635C123.165 69.8153 123.086 69.0444 123.006 68.2509C122.938 67.446 122.853 66.6581 122.751 65.8873C122.649 65.1051 122.519 64.4135 122.36 63.8127ZM126.645 67.0606C126.645 66.9926 126.645 66.8849 126.645 66.7375C126.657 66.5788 126.662 66.4144 126.662 66.2444C126.674 66.0743 126.679 65.9099 126.679 65.7512C126.691 65.5925 126.696 65.4792 126.696 65.4111C126.821 65.2298 126.98 65.0824 127.172 64.969C127.377 64.8557 127.581 64.765 127.785 64.6969C127.819 65.3091 127.915 65.9609 128.074 66.6525C128.232 67.344 128.402 68.0412 128.584 68.744C128.765 69.4355 128.924 70.1214 129.06 70.8016C129.207 71.4818 129.281 72.1166 129.281 72.7061C129.281 73.2162 129.02 73.4713 128.499 73.4713C128.181 73.4713 127.915 73.3409 127.7 73.0802C127.484 72.8194 127.309 72.4907 127.172 72.0939C127.048 71.6858 126.946 71.238 126.866 70.7506C126.787 70.2518 126.73 69.7643 126.696 69.2882C126.674 68.812 126.657 68.3756 126.645 67.9788C126.645 67.582 126.645 67.276 126.645 67.0606ZM126.883 60.6839C127.099 60.7746 127.28 60.9219 127.428 61.126C127.575 61.3301 127.637 61.5171 127.615 61.6871C127.603 61.8459 127.479 61.9592 127.241 62.0272C127.002 62.0839 126.606 62.0159 126.05 61.8232C126.05 61.5171 126.107 61.2507 126.22 61.024C126.345 60.7972 126.566 60.6839 126.883 60.6839ZM129.57 71.4307C129.57 70.7732 129.735 70.1894 130.063 69.6793C130.392 69.1691 130.8 68.727 131.288 68.3529C131.775 67.9675 132.302 67.6444 132.869 67.3837C133.436 67.1116 133.963 66.8905 134.45 66.7205C134.938 66.5391 135.346 66.3974 135.675 66.2954C136.004 66.182 136.168 66.0913 136.168 66.0233C136.168 65.6265 136.145 65.2411 136.1 64.867C136.066 64.4816 136.026 64.0961 135.981 63.7107C135.935 63.3252 135.89 62.9455 135.845 62.5714C135.811 62.1859 135.794 61.8062 135.794 61.4321V60.3268C136.259 60.1567 136.587 60.1737 136.78 60.3778C136.984 60.5819 137.018 60.9333 136.882 61.4321C136.927 61.6815 136.99 62.0726 137.069 62.6054C137.148 63.1382 137.233 63.739 137.324 64.4079C137.426 65.0767 137.528 65.7796 137.63 66.5164C137.744 67.2533 137.846 67.9618 137.936 68.642C138.038 69.3108 138.123 69.9117 138.191 70.4445C138.259 70.9659 138.31 71.3571 138.344 71.6178C138.356 71.6745 138.367 71.7878 138.378 71.9579C138.39 72.1166 138.395 72.2923 138.395 72.485C138.407 72.6664 138.412 72.8364 138.412 72.9952C138.424 73.1539 138.429 73.2672 138.429 73.3352C137.999 73.3352 137.704 73.3182 137.545 73.2842C137.398 73.2502 137.302 73.1822 137.256 73.0802C137.222 72.9781 137.205 72.8308 137.205 72.6381C137.205 72.4453 137.148 72.1789 137.035 71.8388C136.616 72.1676 136.219 72.4397 135.845 72.6551C135.471 72.8705 135.097 73.0462 134.722 73.1822C134.348 73.3069 133.969 73.3919 133.583 73.4373C133.209 73.494 132.807 73.5223 132.376 73.5223C132.013 73.5223 131.662 73.494 131.322 73.4373C130.993 73.3693 130.698 73.2559 130.437 73.0972C130.177 72.9385 129.967 72.7231 129.808 72.451C129.649 72.1789 129.57 71.8388 129.57 71.4307ZM131.05 71.0736C131.05 71.255 131.089 71.4024 131.169 71.5158C131.248 71.6291 131.35 71.7255 131.475 71.8048C131.599 71.8842 131.73 71.9409 131.866 71.9749C132.013 71.9976 132.155 72.0089 132.291 72.0089C132.688 72.0089 133.113 71.9352 133.566 71.7878C134.031 71.6291 134.456 71.4137 134.842 71.1417C135.238 70.8583 135.561 70.5238 135.811 70.1384C136.072 69.753 136.202 69.3335 136.202 68.8801C136.202 68.5286 136.14 68.2849 136.015 68.1489C135.89 68.0128 135.652 67.9448 135.301 67.9448C134.938 67.9448 134.513 68.0298 134.025 68.1999C133.549 68.3699 133.084 68.5967 132.631 68.8801C132.189 69.1635 131.815 69.4979 131.509 69.8833C131.203 70.2574 131.05 70.6542 131.05 71.0736ZM139.433 68.71C139.433 68.0979 139.506 67.4857 139.654 66.8735C139.801 66.2614 140.034 65.7116 140.351 65.2241C140.68 64.7366 141.099 64.3399 141.609 64.0338C142.131 63.7277 142.76 63.5746 143.497 63.5746C143.916 63.5746 144.285 63.654 144.602 63.8127C144.92 63.9601 145.186 64.1585 145.401 64.4079C145.617 64.6573 145.775 64.952 145.877 65.2921C145.991 65.6209 146.048 65.9666 146.048 66.3294C146.048 66.9075 145.911 67.4687 145.639 68.0128C145.379 68.557 145.022 69.0388 144.568 69.4582C144.126 69.8663 143.616 70.1781 143.038 70.3935C142.46 70.5975 141.87 70.6429 141.269 70.5295C141.281 70.8583 141.388 71.1247 141.592 71.3287C141.808 71.5214 142.063 71.6688 142.358 71.7708C142.652 71.8729 142.958 71.9409 143.276 71.9749C143.593 71.9976 143.877 72.0089 144.126 72.0089C144.387 72.0089 144.63 71.9862 144.857 71.9409C145.084 71.8955 145.311 71.8445 145.537 71.7878C145.764 71.7312 145.991 71.6801 146.218 71.6348C146.456 71.5894 146.705 71.5668 146.966 71.5668C147.068 71.5668 147.17 71.5724 147.272 71.5838C147.374 71.5951 147.47 71.6235 147.561 71.6688C147.652 71.7028 147.725 71.7652 147.782 71.8559C147.839 71.9352 147.867 72.0372 147.867 72.1619C147.867 72.3773 147.788 72.5587 147.629 72.7061C147.47 72.8421 147.266 72.9611 147.017 73.0632C146.779 73.1652 146.512 73.2446 146.218 73.3012C145.923 73.3466 145.634 73.3863 145.35 73.4203C145.078 73.4429 144.823 73.4543 144.585 73.4543C144.358 73.4656 144.188 73.4713 144.075 73.4713C143.349 73.4713 142.698 73.3579 142.119 73.1312C141.541 72.8931 141.054 72.57 140.657 72.1619C140.26 71.7425 139.954 71.2437 139.739 70.6655C139.535 70.076 139.433 69.4242 139.433 68.71ZM141.235 67.6047C141.235 68.0015 141.286 68.2906 141.388 68.472C141.502 68.6533 141.768 68.744 142.187 68.744C142.482 68.744 142.771 68.693 143.055 68.591C143.338 68.4776 143.593 68.3246 143.82 68.1319C144.058 67.9391 144.245 67.7124 144.381 67.4517C144.517 67.1909 144.585 66.9075 144.585 66.6015C144.585 66.4314 144.568 66.2557 144.534 66.0743C144.511 65.8929 144.455 65.7286 144.364 65.5812C144.273 65.4225 144.154 65.2978 144.007 65.2071C143.871 65.1051 143.69 65.054 143.463 65.054C143.123 65.054 142.811 65.1334 142.528 65.2921C142.256 65.4395 142.023 65.6379 141.83 65.8873C141.638 66.1253 141.49 66.3974 141.388 66.7035C141.286 66.9982 141.235 67.2986 141.235 67.6047ZM152.186 72.6721C152.368 72.5474 152.583 72.3887 152.832 72.1959C153.093 71.9919 153.354 71.7765 153.615 71.5498C153.875 71.323 154.119 71.085 154.346 70.8356C154.572 70.5862 154.748 70.3481 154.873 70.1214C155.009 69.8833 155.077 69.6623 155.077 69.4582C155.077 69.2542 154.975 69.0841 154.771 68.9481C154.408 68.9481 154.011 68.9651 153.581 68.9991C153.15 69.0218 152.719 69.0331 152.288 69.0331C151.857 69.0218 151.438 68.9821 151.03 68.9141C150.633 68.8461 150.276 68.7214 149.959 68.54C149.641 68.3586 149.386 68.1035 149.193 67.7748C149.012 67.4347 148.921 67.0039 148.921 66.4824C148.921 65.8703 149.035 65.3204 149.261 64.833C149.499 64.3342 149.811 63.8977 150.197 63.5236C150.582 63.1382 151.013 62.8038 151.489 62.5204C151.976 62.2256 152.464 61.9762 152.951 61.7722C153.246 61.8515 153.518 61.9932 153.768 62.1973C154.017 62.4013 154.232 62.6281 154.414 62.8775C154.334 63.1269 154.176 63.3196 153.938 63.4556C153.711 63.5917 153.444 63.7107 153.138 63.8127C152.844 63.9147 152.532 64.0224 152.203 64.1358C151.874 64.2492 151.574 64.4022 151.302 64.5949C151.041 64.7763 150.82 65.02 150.639 65.3261C150.457 65.6209 150.367 66.012 150.367 66.4994C150.367 66.8622 150.457 67.1286 150.639 67.2986C150.82 67.4687 151.058 67.5877 151.353 67.6557C151.648 67.7124 151.982 67.7351 152.356 67.7238C152.73 67.7011 153.11 67.6727 153.495 67.6387C153.892 67.6047 154.278 67.5877 154.652 67.5877C155.026 67.5764 155.36 67.6217 155.655 67.7238C155.95 67.8144 156.182 67.9675 156.352 68.1829C156.534 68.3983 156.624 68.7157 156.624 69.1351C156.624 69.3165 156.562 69.5489 156.437 69.8323C156.324 70.1157 156.165 70.4218 155.961 70.7506C155.768 71.068 155.536 71.3854 155.264 71.7028C155.003 72.0202 154.725 72.3093 154.431 72.57C154.147 72.8194 153.858 73.0292 153.564 73.1992C153.28 73.3579 153.014 73.4373 152.764 73.4373C152.526 73.4373 152.368 73.3522 152.288 73.1822C152.22 73.0122 152.186 72.8421 152.186 72.6721ZM157.798 62.3843C157.798 62.2596 157.809 62.1066 157.832 61.9252C157.866 61.7325 157.917 61.5511 157.985 61.3811C158.064 61.211 158.16 61.0693 158.274 60.956C158.387 60.8313 158.534 60.7689 158.716 60.7689C158.727 60.7689 158.756 60.7746 158.801 60.7859C158.846 60.7972 158.875 60.8029 158.886 60.8029C159.079 61.5058 159.192 62.203 159.226 62.8945C159.26 63.586 159.249 64.2605 159.192 64.918C159.135 65.5642 159.05 66.1933 158.937 66.8055C158.824 67.4063 158.727 67.9618 158.648 68.472C158.58 68.9821 158.534 69.4412 158.512 69.8493C158.5 70.2574 158.563 70.6032 158.699 70.8866C158.676 70.7052 158.659 70.4898 158.648 70.2404C158.648 69.9797 158.671 69.7133 158.716 69.4412C158.773 69.1691 158.858 68.8971 158.971 68.625C159.096 68.3529 159.271 68.1092 159.498 67.8938C159.725 67.6784 160.014 67.5084 160.365 67.3837C160.728 67.259 161.176 67.1966 161.709 67.1966C162.264 67.1966 162.74 67.293 163.137 67.4857C163.545 67.6784 163.88 67.9448 164.14 68.2849C164.401 68.6137 164.594 69.0048 164.718 69.4582C164.855 69.9003 164.923 70.3765 164.923 70.8866C164.923 71.1247 164.917 71.3967 164.906 71.7028C164.906 71.9976 164.866 72.2753 164.786 72.536C164.718 72.7854 164.588 73.0008 164.395 73.1822C164.214 73.3522 163.942 73.4373 163.579 73.4373C163.579 73.2559 163.591 73.0122 163.613 72.7061C163.636 72.3887 163.647 72.0542 163.647 71.7028C163.659 71.3514 163.647 70.9943 163.613 70.6315C163.591 70.2688 163.517 69.9457 163.392 69.6623C163.267 69.3675 163.092 69.1295 162.865 68.9481C162.65 68.7554 162.349 68.659 161.964 68.659C161.828 68.659 161.658 68.6703 161.454 68.693C161.261 68.7043 161.062 68.7554 160.858 68.8461C160.654 68.9367 160.456 69.0784 160.263 69.2712C160.071 69.4525 159.918 69.7076 159.804 70.0364C159.691 70.3538 159.623 70.7619 159.6 71.2607C159.589 71.7482 159.651 72.349 159.787 73.0632C159.708 73.2672 159.606 73.3863 159.481 73.4203C159.368 73.4543 159.22 73.4713 159.039 73.4713C158.676 73.4713 158.376 73.3466 158.138 73.0972C157.911 72.8364 157.735 72.4907 157.611 72.0599C157.486 71.6291 157.401 71.1303 157.356 70.5635C157.322 69.9967 157.31 69.4072 157.322 68.795C157.333 68.1715 157.361 67.5424 157.407 66.9075C157.463 66.2614 157.514 65.6549 157.56 65.0881C157.616 64.5099 157.667 63.9884 157.713 63.5236C157.769 63.0475 157.798 62.6677 157.798 62.3843ZM165.603 69.9854C165.603 69.2825 165.767 68.6307 166.096 68.0298C166.425 67.4177 166.855 66.8962 167.388 66.4654C167.932 66.0233 168.539 65.6775 169.208 65.4281C169.888 65.1787 170.574 65.054 171.265 65.054C171.651 65.054 171.991 65.1787 172.285 65.4281C172.592 65.6775 172.847 65.9836 173.051 66.3464C173.255 66.6978 173.408 67.0719 173.51 67.4687C173.623 67.8655 173.68 68.2112 173.68 68.506C173.68 69.1408 173.527 69.7586 173.221 70.3595C172.915 70.9489 172.518 71.4761 172.03 71.9409C171.543 72.3943 170.993 72.7628 170.381 73.0462C169.769 73.3296 169.157 73.4713 168.544 73.4713C168 73.4713 167.541 73.3806 167.167 73.1992C166.793 73.0065 166.493 72.7571 166.266 72.451C166.039 72.1336 165.869 71.7652 165.756 71.3457C165.654 70.9149 165.603 70.4615 165.603 69.9854ZM167.048 70.1554C167.048 70.4501 167.071 70.7109 167.116 70.9376C167.173 71.153 167.263 71.34 167.388 71.4988C167.524 71.6575 167.7 71.7822 167.915 71.8729C168.131 71.9522 168.397 71.9919 168.715 71.9919C169.134 71.9919 169.553 71.8785 169.973 71.6518C170.392 71.4137 170.766 71.119 171.095 70.7676C171.435 70.4048 171.707 70.008 171.911 69.5772C172.115 69.1465 172.217 68.727 172.217 68.3189C172.217 68.1375 172.2 67.9391 172.166 67.7238C172.132 67.5084 172.076 67.31 171.996 67.1286C171.917 66.9472 171.804 66.7942 171.656 66.6695C171.509 66.5448 171.322 66.4824 171.095 66.4824C170.891 66.4824 170.647 66.5504 170.364 66.6865C170.092 66.8225 169.803 66.9982 169.497 67.2136C169.202 67.429 168.907 67.6727 168.613 67.9448C168.329 68.2169 168.068 68.489 167.83 68.761C167.592 69.0331 167.4 69.2938 167.252 69.5432C167.116 69.7926 167.048 69.9967 167.048 70.1554ZM173.969 66.1593C173.969 65.9666 174.009 65.7909 174.088 65.6322C174.179 65.4735 174.332 65.3941 174.547 65.3941C174.558 65.3941 174.575 65.3998 174.598 65.4111C174.621 65.4111 174.643 65.4111 174.666 65.4111C174.689 65.4111 174.711 65.4111 174.734 65.4111C174.768 65.4338 174.83 65.4905 174.921 65.5812C175.023 65.6719 175.086 65.7399 175.108 65.7852C175.142 65.8533 175.21 66.0006 175.312 66.2274C175.426 66.4541 175.556 66.7205 175.703 67.0266C175.862 67.3213 176.021 67.6387 176.18 67.9788C176.35 68.3076 176.508 68.625 176.656 68.9311C176.814 69.2372 176.945 69.5036 177.047 69.7303C177.16 69.9457 177.239 70.0874 177.285 70.1554C177.296 70.1894 177.347 70.2574 177.438 70.3595C177.54 70.4501 177.614 70.5068 177.659 70.5295C177.75 70.3708 177.84 70.1327 177.931 69.8153C178.022 69.4979 178.112 69.1521 178.203 68.778C178.305 68.3926 178.407 68.0015 178.509 67.6047C178.611 67.1966 178.725 66.8338 178.849 66.5164C178.985 66.1877 179.133 65.9213 179.291 65.7172C179.45 65.5018 179.631 65.3941 179.835 65.3941C180.13 65.3941 180.408 65.5075 180.669 65.7342C180.941 65.9609 181.196 66.2557 181.434 66.6185C181.683 66.9812 181.916 67.3893 182.131 67.8428C182.358 68.2849 182.568 68.727 182.76 69.1691C182.964 69.5999 183.151 70.0024 183.321 70.3765C183.503 70.7392 183.679 71.0283 183.849 71.2437C183.985 71.1983 184.098 71.085 184.189 70.9036C184.279 70.7222 184.347 70.5352 184.393 70.3424C184.449 70.1384 184.489 69.9513 184.512 69.7813C184.534 69.5999 184.551 69.4809 184.563 69.4242C184.574 69.2995 184.591 69.1068 184.614 68.8461C184.636 68.574 184.659 68.2679 184.682 67.9278C184.716 67.5877 184.744 67.2363 184.767 66.8735C184.789 66.5108 184.812 66.1593 184.835 65.8192C184.869 65.4792 184.892 65.1787 184.903 64.918C184.926 64.6459 184.937 64.4532 184.937 64.3399C184.96 64.3399 185.016 64.3342 185.107 64.3228C185.198 64.3002 185.26 64.2888 185.294 64.2888C185.453 64.2888 185.594 64.3058 185.719 64.3399C185.844 64.3739 185.94 64.4929 186.008 64.6969C186.008 64.7763 186.008 64.918 186.008 65.1221C186.019 65.3261 186.025 65.5472 186.025 65.7852C186.036 66.012 186.042 66.233 186.042 66.4484C186.053 66.6525 186.059 66.7942 186.059 66.8735C186.059 67.0549 186.059 67.3383 186.059 67.7238C186.07 68.0979 186.065 68.5173 186.042 68.9821C186.031 69.4469 185.997 69.923 185.94 70.4105C185.883 70.8866 185.793 71.3287 185.668 71.7368C185.555 72.1336 185.396 72.4623 185.192 72.7231C184.988 72.9725 184.733 73.0972 184.427 73.0972C184.075 73.0972 183.747 73.0122 183.44 72.8421C183.134 72.6721 182.845 72.4453 182.573 72.1619C182.312 71.8785 182.063 71.5668 181.825 71.2267C181.587 70.8753 181.366 70.5238 181.162 70.1724C180.969 69.8096 180.788 69.4695 180.618 69.1521C180.459 68.8234 180.317 68.5456 180.193 68.3189C180.102 68.523 180.017 68.778 179.938 69.0841C179.87 69.3902 179.79 69.7246 179.699 70.0874C179.609 70.4388 179.507 70.7959 179.393 71.1587C179.28 71.5101 179.15 71.8332 179.002 72.1279C178.866 72.4113 178.702 72.6437 178.509 72.8251C178.328 73.0065 178.118 73.0972 177.88 73.0972C177.767 73.0972 177.665 73.1028 177.574 73.1142C177.483 73.1142 177.398 73.1085 177.319 73.0972C177.239 73.0745 177.166 73.0348 177.098 72.9781C177.03 72.9215 176.967 72.8308 176.911 72.7061L174.003 66.4994C174.003 66.4881 173.997 66.4427 173.986 66.3634C173.975 66.2727 173.969 66.2047 173.969 66.1593Z" fill="white"/>
</svg>
