<svg width="36" height="53" viewBox="0 0 36 53" fill="none" xmlns="http://www.w3.org/2000/svg">
<path d="M4.328 50.13C3.27467 50.13 2.40134 49.7833 1.708 49.09C1.01467 48.3833 0.668005 47.52 0.668005 46.5C0.668005 45.4733 1.01467 44.6133 1.708 43.92C2.39467 43.22 3.268 42.87 4.328 42.87C4.96134 42.87 5.54467 43.02 6.078 43.32C6.618 43.62 7.038 44.0267 7.338 44.54L6.33801 45.12C6.15134 44.7733 5.878 44.5 5.51801 44.3C5.16467 44.0933 4.768 43.99 4.328 43.99C3.588 43.99 2.98134 44.2267 2.508 44.7C2.048 45.1667 1.818 45.7667 1.818 46.5C1.818 47.2333 2.048 47.8333 2.508 48.3C2.98134 48.7733 3.588 49.01 4.328 49.01C4.768 49.01 5.168 48.91 5.528 48.71C5.88801 48.5033 6.15801 48.2267 6.33801 47.88L7.338 48.45C7.05134 48.9567 6.63467 49.3667 6.088 49.68C5.56134 49.98 4.97467 50.13 4.328 50.13ZM12.2191 45.71V45H13.2991V50H12.2191V49.28C11.8124 49.8467 11.2291 50.13 10.4691 50.13C9.78242 50.13 9.19575 49.8767 8.70908 49.37C8.22242 48.8633 7.97908 48.24 7.97908 47.5C7.97908 46.76 8.22242 46.1367 8.70908 45.63C9.19575 45.1233 9.78242 44.87 10.4691 44.87C11.2291 44.87 11.8124 45.15 12.2191 45.71ZM9.50908 48.65C9.80908 48.95 10.1858 49.1 10.6391 49.1C11.0924 49.1 11.4691 48.95 11.7691 48.65C12.0691 48.3433 12.2191 47.96 12.2191 47.5C12.2191 47.04 12.0691 46.66 11.7691 46.36C11.4691 46.0533 11.0924 45.9 10.6391 45.9C10.1858 45.9 9.80908 46.0533 9.50908 46.36C9.20908 46.66 9.05908 47.04 9.05908 47.5C9.05908 47.9533 9.20908 48.3367 9.50908 48.65ZM17.2334 44.87C17.8134 44.87 18.2767 45.0567 18.6234 45.43C18.9767 45.7967 19.1534 46.2967 19.1534 46.93V50H18.0734V47.04C18.0734 46.6667 17.9734 46.38 17.7734 46.18C17.5734 45.98 17.3 45.88 16.9534 45.88C16.56 45.88 16.25 46.0033 16.0234 46.25C15.7967 46.49 15.6834 46.8467 15.6834 47.32V50H14.6034V45H15.6834V45.64C16.0167 45.1267 16.5334 44.87 17.2334 44.87ZM22.2836 48.8L23.6736 45H24.8536L22.9036 50H21.6536L19.7036 45H20.8836L22.2836 48.8ZM29.3476 45.71V45H30.4276V50H29.3476V49.28C28.941 49.8467 28.3576 50.13 27.5976 50.13C26.911 50.13 26.3243 49.8767 25.8376 49.37C25.351 48.8633 25.1076 48.24 25.1076 47.5C25.1076 46.76 25.351 46.1367 25.8376 45.63C26.3243 45.1233 26.911 44.87 27.5976 44.87C28.3576 44.87 28.941 45.15 29.3476 45.71ZM26.6376 48.65C26.9376 48.95 27.3143 49.1 27.7676 49.1C28.221 49.1 28.5976 48.95 28.8976 48.65C29.1976 48.3433 29.3476 47.96 29.3476 47.5C29.3476 47.04 29.1976 46.66 28.8976 46.36C28.5976 46.0533 28.221 45.9 27.7676 45.9C27.3143 45.9 26.9376 46.0533 26.6376 46.36C26.3376 46.66 26.1876 47.04 26.1876 47.5C26.1876 47.9533 26.3376 48.3367 26.6376 48.65ZM32.6726 46.38C32.6726 46.5333 32.7526 46.66 32.9126 46.76C33.0726 46.8533 33.306 46.9433 33.6126 47.03C33.846 47.0833 34.0493 47.14 34.2226 47.2C34.396 47.26 34.5793 47.35 34.7726 47.47C34.966 47.5833 35.1126 47.7367 35.2126 47.93C35.3193 48.1167 35.3693 48.3367 35.3626 48.59C35.3626 49.07 35.176 49.4467 34.8026 49.72C34.4293 49.9933 33.966 50.13 33.4126 50.13C32.9193 50.13 32.496 50.0267 32.1426 49.82C31.7893 49.6133 31.5326 49.3267 31.3726 48.96L32.3026 48.42C32.4693 48.9 32.8393 49.14 33.4126 49.14C33.9793 49.14 34.2626 48.9533 34.2626 48.58C34.2626 48.3067 33.946 48.0933 33.3126 47.94C33.0726 47.88 32.8693 47.82 32.7026 47.76C32.5426 47.7 32.3626 47.6133 32.1626 47.5C31.9693 47.3867 31.8193 47.2367 31.7126 47.05C31.6126 46.8633 31.566 46.6467 31.5726 46.4C31.5726 45.94 31.746 45.57 32.0926 45.29C32.446 45.01 32.8826 44.87 33.4026 44.87C33.816 44.87 34.1826 44.9633 34.5026 45.15C34.8293 45.33 35.0793 45.5833 35.2526 45.91L34.3426 46.42C34.176 46.04 33.8626 45.85 33.4026 45.85C33.1893 45.85 33.0126 45.8967 32.8726 45.99C32.7393 46.0833 32.6726 46.2133 32.6726 46.38Z" fill="#1D1C1C"/>
<path d="M30.9979 20.3365C21.1053 20.3365 16.2905 20.3365 13.995 20.3365C12.8905 20.3365 12 19.4411 12 18.3365V1.17594" stroke="#1D1C1C" stroke-width="2" stroke-linecap="round" stroke-linejoin="round"/>
<path d="M6 8.17596C15.318 8.17596 19.8295 8.17596 22.0035 8.17596C23.1081 8.17596 23.9979 9.07139 23.9979 10.176V26.3365" stroke="#F3F4F6" stroke-width="5.5" stroke-linecap="round" stroke-linejoin="round"/>
<path d="M6 8.17596C15.318 8.17596 19.8295 8.17596 22.0035 8.17596C23.1081 8.17596 23.9979 9.07139 23.9979 10.176V26.3365" stroke="#FF9A48" stroke-width="5.5" stroke-linecap="round" stroke-linejoin="round"/>
</svg>
