<svg width="375" height="492" viewBox="0 0 375 492" fill="none" xmlns="http://www.w3.org/2000/svg">
<ellipse cx="189.34" cy="441.357" rx="92.7804" ry="18.9662" fill="#F5F4FA"/>
<rect x="119.147" y="198.975" width="19.2131" height="33.0347" rx="2.55" fill="black"/>
<rect x="119.147" y="198.975" width="19.2131" height="33.0347" rx="2.55" stroke="black" stroke-width="0.57" stroke-linecap="round"/>
<path fill-rule="evenodd" clip-rule="evenodd" d="M174.195 223.684C166.093 231.921 160.15 241.393 145.897 251.268C141.31 254.44 138.331 256.913 137.378 257.345C137.378 257.345 137.512 237.461 137.512 236.821C137.437 235.197 142.531 233.41 144.422 226.261C145.382 223.043 144.249 219.568 141.578 217.533C137.616 214.048 133.758 215.746 135.62 220.423C136.351 221.784 137.274 223.032 138.361 224.131V228.272C138.361 228.272 127.935 226.872 122.796 226.887C120.816 226.887 119.267 227.393 120.19 227.006C124.301 225.263 125.76 219.35 121.575 219.469C122.656 219.272 123.626 218.684 124.301 217.816C125.105 216.327 125.254 213.735 121.501 213.348C121.322 213.348 124.092 213.586 125.135 212.588C126.177 211.59 127.011 207.614 120.473 206.899C117.241 206.527 115.498 209.103 116.705 213.691C116.884 214.331 111.596 213.974 114.292 220.914C109.049 228.987 120.994 234.631 121.143 237.565C121.843 250.97 119.654 266.37 121.918 272.179C127.175 285.717 142.769 277.362 164.604 260.785C172.229 255.021 176.519 237.67 174.329 228.391C174.255 227.989 174.195 223.684 174.195 223.684Z" fill="#E3DCFF"/>
<path fill-rule="evenodd" clip-rule="evenodd" d="M174.195 223.684C166.093 231.921 160.15 241.393 145.897 251.268C141.31 254.44 138.331 256.913 137.378 257.345C137.378 257.345 137.512 237.461 137.512 236.821C137.437 235.197 142.531 233.41 144.422 226.261C145.382 223.043 144.249 219.568 141.578 217.533C137.616 214.048 133.758 215.746 135.62 220.423C136.351 221.784 137.274 223.032 138.361 224.131V228.272C138.361 228.272 127.935 226.872 122.796 226.887C120.816 226.887 119.267 227.393 120.19 227.006C124.301 225.263 125.76 219.35 121.575 219.469C122.656 219.272 123.626 218.684 124.301 217.816C125.105 216.327 125.254 213.735 121.501 213.348C121.322 213.348 124.092 213.586 125.135 212.588C126.177 211.59 127.011 207.614 120.473 206.899C117.241 206.527 115.498 209.103 116.705 213.691C116.884 214.331 111.596 213.974 114.292 220.914C109.049 228.987 120.994 234.631 121.143 237.565C121.843 250.97 119.654 266.37 121.918 272.179C127.175 285.717 142.769 277.362 164.604 260.785C172.229 255.021 176.519 237.67 174.329 228.391C174.255 227.989 174.195 223.684 174.195 223.684Z" stroke="black" stroke-width="0.57" stroke-linecap="round"/>
<path d="M125.522 224.772L134.578 224.354C136.675 224.354 138.375 226.055 138.375 228.152C138.375 230.25 136.675 231.95 134.578 231.95H122.96C120.863 231.95 119.162 230.25 119.162 228.152C119.162 228.152 119.43 226.976 120.205 226.946C122.796 226.886 124.033 224.906 125.522 224.772Z" fill="black"/>
<path fill-rule="evenodd" clip-rule="evenodd" d="M125.522 224.772L134.578 224.354C136.675 224.354 138.375 226.055 138.375 228.152C138.375 230.25 136.675 231.95 134.578 231.95H122.96C120.863 231.95 119.162 230.25 119.162 228.152C119.162 228.152 119.43 226.976 120.205 226.946C122.796 226.886 124.033 224.906 125.522 224.772Z" stroke="black" stroke-width="0.57" stroke-linecap="round"/>
<path d="M137.333 256.287C137.333 256.957 137.333 262.513 137.333 264.166C137.425 261.743 138.029 259.368 139.105 257.196C139.105 257.196 140.148 255.349 139.895 255.557C139.167 256.051 138.394 256.475 137.586 256.823C137.541 256.734 137.437 256.302 137.333 256.287Z" fill="black"/>
<path fill-rule="evenodd" clip-rule="evenodd" d="M137.333 256.287C137.333 256.957 137.333 262.513 137.333 264.166C137.425 261.743 138.029 259.368 139.105 257.196C139.105 257.196 140.148 255.349 139.895 255.557C139.167 256.051 138.394 256.475 137.586 256.823C137.541 256.734 137.437 256.302 137.333 256.287Z" stroke="black" stroke-width="0.57" stroke-linecap="round" stroke-linejoin="round"/>
<path d="M174.21 224.608L169.191 229.314C166.212 243.136 161.744 251.238 159.421 264.777C162.399 262.304 164.544 260.308 167.538 257.776L174.21 224.608Z" fill="black"/>
<path fill-rule="evenodd" clip-rule="evenodd" d="M174.21 224.608L169.191 229.314C166.212 243.136 161.744 251.238 159.421 264.777C162.399 262.304 164.544 260.308 167.538 257.776L174.21 224.608Z" stroke="black" stroke-width="0.57" stroke-linecap="round"/>
<path fill-rule="evenodd" clip-rule="evenodd" d="M165.914 418.943H197.191C197.711 418.959 198.129 419.377 198.145 419.897L199.634 440.986H149.546C148.608 432.154 155.086 429.473 162.712 425.69C165.736 423.501 165.914 418.943 165.914 418.943Z" fill="#E3DCFF"/>
<path fill-rule="evenodd" clip-rule="evenodd" d="M165.914 418.943H197.191C197.711 418.959 198.129 419.377 198.145 419.897L199.634 440.986H149.546C148.608 432.154 155.086 429.473 162.712 425.69C165.736 423.501 165.914 418.943 165.914 418.943Z" stroke="black" stroke-width="0.57" stroke-linecap="round" stroke-linejoin="round"/>
<rect x="148.608" y="437.605" width="52.5159" height="6.41927" rx="0.64" fill="black"/>
<rect x="148.608" y="437.605" width="52.5159" height="6.41927" rx="0.64" stroke="black" stroke-width="0.57" stroke-linecap="round" stroke-linejoin="round"/>
<path fill-rule="evenodd" clip-rule="evenodd" d="M196.715 418.943H227.992C228.509 418.966 228.923 419.38 228.945 419.897L230.435 440.986H180.347C179.408 432.154 185.887 429.473 193.513 425.69C196.477 423.501 196.715 418.943 196.715 418.943Z" fill="#E3DCFF"/>
<path fill-rule="evenodd" clip-rule="evenodd" d="M196.715 418.943H227.992C228.509 418.966 228.923 419.38 228.945 419.897L230.435 440.986H180.347C179.408 432.154 185.887 429.473 193.513 425.69C196.477 423.501 196.715 418.943 196.715 418.943Z" stroke="black" stroke-width="0.57" stroke-linecap="round" stroke-linejoin="round"/>
<rect x="179.408" y="437.605" width="52.5159" height="6.41927" rx="0.64" fill="black"/>
<rect x="179.408" y="437.605" width="52.5159" height="6.41927" rx="0.64" stroke="black" stroke-width="0.57" stroke-linecap="round" stroke-linejoin="round"/>
<path fill-rule="evenodd" clip-rule="evenodd" d="M218.559 221.21C226.616 229.401 232.552 238.854 246.754 248.678C251.325 251.839 254.307 254.317 255.257 254.733C255.257 254.733 255.123 234.937 255.123 234.284C255.123 231.88 247.288 229.743 251.295 210.54C251.629 208.498 251.827 206.435 251.888 204.367C252.274 199.128 256.504 198.253 258.448 201.992C259.382 203.773 259.368 207.483 259.175 209.59C258.997 211.416 260.777 210.199 267.44 210.496C268.872 210.434 270.206 211.22 270.847 212.502C271.488 213.784 271.316 215.323 270.408 216.431C270.245 216.654 274.86 218.153 271.892 222.783C275.632 226.938 270.735 229.03 270.616 229.757C269.711 235.382 273.673 263.651 271.432 269.424C266.194 282.898 249.885 274.588 228.056 258.072C220.473 252.343 216.184 235.055 218.38 225.795C218.499 225.498 218.559 221.195 218.559 221.21Z" fill="#E3DCFF"/>
<path d="M220.148 223.12L224.093 226.808C226.435 237.673 229.948 244.043 231.774 254.686C229.433 252.742 227.735 251.173 225.393 249.183L220.148 223.12Z" fill="black"/>
<path fill-rule="evenodd" clip-rule="evenodd" d="M218.559 221.21C226.616 229.401 232.552 238.854 246.754 248.678C251.325 251.839 254.307 254.317 255.257 254.733C255.257 254.733 255.123 234.936 255.123 234.284C255.123 231.88 247.288 229.743 251.295 210.54C251.629 208.498 251.827 206.435 251.888 204.367C252.274 199.128 256.504 198.253 258.448 201.992C259.382 203.773 259.368 207.483 259.175 209.59C258.997 211.416 260.777 210.199 267.44 210.496C268.872 210.434 270.206 211.22 270.847 212.502C271.488 213.784 271.316 215.323 270.408 216.431C270.245 216.654 274.86 218.153 271.892 222.783C275.632 226.938 270.735 229.03 270.616 229.757C269.711 235.382 273.673 263.651 271.432 269.424C266.194 282.898 249.885 274.588 228.056 258.072C220.473 252.343 216.184 235.055 218.38 225.795C218.499 225.498 218.559 221.195 218.559 221.21Z" stroke="black" stroke-width="0.57" stroke-linecap="round"/>
<path d="M255.272 253.679C255.272 254.347 255.272 259.882 255.272 261.529C255.185 259.117 254.588 256.75 253.521 254.584C253.521 254.584 252.482 252.744 252.719 252.952C253.447 253.449 254.222 253.872 255.034 254.213C255.064 254.124 255.213 253.694 255.272 253.679Z" fill="black"/>
<path fill-rule="evenodd" clip-rule="evenodd" d="M255.272 253.679C255.272 254.347 255.272 259.882 255.272 261.529C255.185 259.117 254.588 256.75 253.521 254.584C253.521 254.584 252.482 252.744 252.719 252.952C253.447 253.449 254.222 253.872 255.034 254.213C255.064 254.124 255.213 253.694 255.272 253.679Z" stroke="black" stroke-width="0.57" stroke-linecap="round" stroke-linejoin="round"/>
<path d="M260.391 210.674C255.94 211.208 254.767 217.426 260.57 217.159C262.84 217.055 265.778 216.802 265.585 216.847C264.873 217.01 255.865 217.485 258.551 221.462C260.243 223.97 267.292 222.946 267.055 222.946C265.542 223.092 264.066 223.499 262.692 224.148C258.522 225.81 259.59 229.327 263.671 229.683C264.71 229.772 266.209 229.802 267.292 229.802" stroke="black" stroke-width="0.57" stroke-linecap="round"/>
<path fill-rule="evenodd" clip-rule="evenodd" d="M174.672 179.718C174.672 192.452 174.672 192.243 174.672 205.037C174.672 238.697 159.361 245.802 158.393 280.445C158.214 286.775 163.889 285.986 164.842 294.49C172.006 296.233 191.13 289.232 198.279 290.975C205.413 289.232 224.239 303.382 231.373 301.639C243.899 246.636 217.462 235.927 217.507 207.271V179.777C217.596 151.494 174.761 152.462 174.672 179.718Z" fill="#E3DCFF"/>
<path fill-rule="evenodd" clip-rule="evenodd" d="M174.672 179.718C174.672 192.452 174.672 192.243 174.672 205.037C174.672 238.697 159.361 245.802 158.393 280.445C158.214 286.775 163.889 285.986 164.842 294.49C172.006 296.233 191.13 289.232 198.279 290.975C205.413 289.232 224.239 303.382 231.373 301.639C243.899 246.636 217.462 235.927 217.507 207.271V179.777C217.596 151.494 174.761 152.462 174.672 179.718Z" stroke="black" stroke-width="0.57" stroke-linecap="round" stroke-linejoin="round"/>
<path fill-rule="evenodd" clip-rule="evenodd" d="M174.672 179.718C174.672 192.452 174.672 192.243 174.672 205.037C174.684 208.78 174.475 212.52 174.046 216.237H218.386C217.789 213.296 217.495 210.302 217.507 207.301V179.807C217.596 151.494 174.761 152.462 174.672 179.718Z" fill="#E3DCFF"/>
<path fill-rule="evenodd" clip-rule="evenodd" d="M174.672 179.718C174.672 192.452 174.672 192.243 174.672 205.037C174.684 208.78 174.475 212.52 174.046 216.237H218.386C217.789 213.296 217.495 210.302 217.507 207.301V179.807C217.596 151.494 174.761 152.462 174.672 179.718Z" stroke="black" stroke-width="0.57" stroke-linecap="round" stroke-linejoin="round"/>
<path fill-rule="evenodd" clip-rule="evenodd" d="M217.462 177.454C215.332 152.328 177.1 153.147 174.836 177.454H217.462Z" fill="#E3DCFF"/>
<path fill-rule="evenodd" clip-rule="evenodd" d="M217.462 177.454C215.332 152.328 177.1 153.147 174.836 177.454H217.462Z" stroke="black" stroke-width="0.57" stroke-linecap="round" stroke-linejoin="round"/>
<path fill-rule="evenodd" clip-rule="evenodd" d="M234.322 279.462C234.322 279.775 234.322 280.073 234.322 280.385C234.59 294.788 229.943 302.726 229.988 315.877C229.988 344.399 230.852 417.722 230.762 419.211H164.246C164.246 419.211 163.651 344.578 164.068 316.607C164.276 301.713 159.957 297.454 158.348 280.549C158.326 280.187 158.326 279.824 158.348 279.462L234.322 279.462Z" fill="#E3DCFF"/>
<path fill-rule="evenodd" clip-rule="evenodd" d="M234.322 279.462C234.322 279.775 234.322 280.073 234.322 280.385C234.59 294.788 229.943 302.726 229.988 315.877C229.988 344.399 230.852 417.722 230.762 419.211H164.246C164.246 419.211 163.651 344.578 164.068 316.607C164.276 301.713 159.957 297.454 158.348 280.549C158.326 280.187 158.326 279.824 158.348 279.462L234.322 279.462Z" stroke="black" stroke-width="0.57" stroke-linecap="round" stroke-linejoin="round"/>
<path fill-rule="evenodd" clip-rule="evenodd" d="M176.623 194.552C177.989 194.551 179.099 193.45 179.109 192.084C179.12 190.718 178.027 189.599 176.662 189.578C175.296 189.556 174.168 190.64 174.136 192.005C174.12 192.675 174.375 193.323 174.843 193.802C175.311 194.282 175.953 194.552 176.623 194.552Z" fill="#FEFEFE"/>
<path fill-rule="evenodd" clip-rule="evenodd" d="M176.623 194.552C177.989 194.551 179.099 193.45 179.109 192.084C179.12 190.718 178.027 189.599 176.662 189.578C175.296 189.556 174.168 190.64 174.136 192.005C174.12 192.675 174.375 193.323 174.843 193.802C175.311 194.282 175.953 194.552 176.623 194.552V194.552Z" stroke="black" stroke-width="0.57" stroke-linecap="round" stroke-linejoin="round"/>
<path fill-rule="evenodd" clip-rule="evenodd" d="M197.504 189.577C196.493 189.578 195.582 190.19 195.201 191.127C194.82 192.064 195.044 193.138 195.768 193.845C196.491 194.551 197.571 194.749 198.498 194.345C199.425 193.941 200.016 193.016 199.992 192.005C199.959 190.655 198.855 189.577 197.504 189.577Z" fill="#FEFEFE"/>
<path fill-rule="evenodd" clip-rule="evenodd" d="M197.504 189.577C196.493 189.578 195.582 190.19 195.201 191.127C194.82 192.064 195.044 193.138 195.768 193.845C196.491 194.551 197.571 194.749 198.498 194.345C199.425 193.941 200.016 193.016 199.992 192.005C199.959 190.655 198.855 189.577 197.504 189.577Z" stroke="black" stroke-width="0.57" stroke-linecap="round" stroke-linejoin="round"/>
<path d="M196.432 316.92C196.432 310.828 186.423 311.394 182.774 302.741" stroke="black" stroke-width="0.57" stroke-linecap="round" stroke-linejoin="round"/>
<path d="M177.561 182.413C176.58 182.267 175.577 182.423 174.687 182.86" stroke="black" stroke-width="0.57" stroke-linecap="round"/>
<path d="M183.673 187.686H215.3" stroke="black" stroke-width="0.57" stroke-linecap="round"/>
<path d="M188.405 187.686H203.107V189.716C203.107 193.776 199.816 197.067 195.756 197.067C191.696 197.067 188.405 193.776 188.405 189.716V187.686Z" fill="black"/>
<path fill-rule="evenodd" clip-rule="evenodd" d="M188.405 187.686H203.107V189.716C203.107 193.776 199.816 197.067 195.756 197.067C191.696 197.067 188.405 193.776 188.405 189.716V187.686Z" stroke="black" stroke-width="0.57" stroke-linecap="round"/>
<path d="M171 187.686H185.703V189.716C185.703 193.776 182.411 197.067 178.351 197.067C174.291 197.067 171 193.776 171 189.716V187.686Z" fill="black"/>
<path fill-rule="evenodd" clip-rule="evenodd" d="M171 187.686H185.703V189.716C185.703 193.776 182.411 197.067 178.351 197.067C174.291 197.067 171 193.776 171 189.716V187.686Z" stroke="black" stroke-width="0.57" stroke-linecap="round"/>
<path d="M196.462 182.413C197.443 182.27 198.445 182.425 199.336 182.86" stroke="black" stroke-width="0.57" stroke-linecap="round"/>
<path fill-rule="evenodd" clip-rule="evenodd" d="M217.149 212.32H174.672C173.027 212.32 171.693 213.654 171.693 215.299C171.693 216.944 173.027 218.278 174.672 218.278H217.12C218.765 218.278 220.098 216.944 220.098 215.299C220.098 213.654 218.765 212.32 217.12 212.32H217.149Z" fill="#E3DCFF"/>
<path fill-rule="evenodd" clip-rule="evenodd" d="M217.149 212.32H174.672C173.027 212.32 171.693 213.654 171.693 215.299C171.693 216.944 173.027 218.278 174.672 218.278H217.12C218.765 218.278 220.098 216.944 220.098 215.299C220.098 213.654 218.765 212.32 217.12 212.32H217.149Z" stroke="black" stroke-width="0.57" stroke-linecap="round"/>
<path d="M217.551 177.245H152.257" stroke="black" stroke-width="0.57" stroke-linecap="round"/>
<path d="M174.121 218.203L173.466 220.84C181.754 219.5 190.114 218.65 198.502 218.293L174.121 218.203Z" fill="black"/>
<path fill-rule="evenodd" clip-rule="evenodd" d="M174.121 218.203L173.466 220.84C181.754 219.5 190.114 218.65 198.502 218.293L174.121 218.203Z" stroke="black" stroke-width="0.57" stroke-linecap="round"/>
<path d="M165.646 419.152L165.006 421.788C173.279 420.451 181.624 419.605 189.998 419.256L165.646 419.152Z" fill="black"/>
<path fill-rule="evenodd" clip-rule="evenodd" d="M165.646 419.152L165.006 421.788C173.279 420.451 181.624 419.605 189.998 419.256L165.646 419.152Z" stroke="black" stroke-width="0.57" stroke-linecap="round"/>
<path d="M196.864 419.152L196.223 421.788C204.497 420.451 212.842 419.605 221.215 419.256L196.864 419.152Z" fill="black"/>
<path fill-rule="evenodd" clip-rule="evenodd" d="M196.864 419.152L196.223 421.788C204.497 420.451 212.842 419.605 221.215 419.256L196.864 419.152Z" stroke="black" stroke-width="0.57" stroke-linecap="round"/>
<path d="M175.387 177.111L174.672 179.777C182.951 178.439 191.301 177.589 199.679 177.23L175.387 177.111Z" fill="black"/>
<path fill-rule="evenodd" clip-rule="evenodd" d="M175.387 177.111L174.672 179.777C182.951 178.439 191.301 177.589 199.679 177.23L175.387 177.111Z" stroke="black" stroke-width="0.57" stroke-linecap="round"/>
<path d="M175.506 192.303C175.353 192.31 175.23 192.433 175.223 192.586C175.223 192.742 175.35 192.869 175.506 192.869C175.582 192.873 175.657 192.845 175.711 192.791C175.765 192.737 175.793 192.662 175.789 192.586C175.789 192.429 175.662 192.303 175.506 192.303Z" fill="black"/>
<path fill-rule="evenodd" clip-rule="evenodd" d="M175.506 192.303C175.353 192.31 175.23 192.433 175.223 192.586C175.223 192.742 175.35 192.869 175.506 192.869C175.582 192.873 175.657 192.845 175.711 192.791C175.765 192.737 175.793 192.662 175.789 192.586C175.789 192.429 175.662 192.303 175.506 192.303V192.303Z" stroke="black" stroke-width="0.57" stroke-linecap="round" stroke-linejoin="round"/>
<path d="M196.119 192.899C196.275 192.899 196.402 192.772 196.402 192.616C196.402 192.459 196.275 192.333 196.119 192.333C195.963 192.333 195.836 192.459 195.836 192.616C195.836 192.772 195.963 192.899 196.119 192.899Z" fill="black"/>
<path fill-rule="evenodd" clip-rule="evenodd" d="M196.119 192.899C196.275 192.899 196.402 192.772 196.402 192.616C196.402 192.459 196.275 192.333 196.119 192.333C195.963 192.333 195.836 192.459 195.836 192.616C195.836 192.772 195.963 192.899 196.119 192.899Z" stroke="black" stroke-width="0.57" stroke-linecap="round" stroke-linejoin="round"/>
<path d="M196.387 419.211V316.726" stroke="black" stroke-width="0.57" stroke-linecap="round"/>
<path d="M185.604 197.054C184.398 197.352 183.251 198.945 185.038 199.601C187.838 200.658 182.7 201.76 185.038 203.533C185.455 203.846 186.051 203.622 186.528 203.533" stroke="#373435" stroke-width="0.57" stroke-linecap="round"/>
<path d="M119.147 213.393C120.449 213.276 121.761 213.367 123.035 213.661" stroke="black" stroke-width="0.57" stroke-linecap="round"/>
<path d="M117.003 220.467C117.36 220.274 123.452 219.112 124.182 218.978" stroke="black" stroke-width="0.57" stroke-linecap="round"/>
<path d="M137.333 194.76L138.212 188.907" stroke="#373435" stroke-width="0.57" stroke-linecap="round"/>
<path d="M141.742 197.948L148.593 193.122" stroke="#373435" stroke-width="0.57" stroke-linecap="round"/>
<path d="M149.665 203.056L144.72 203.86" stroke="#373435" stroke-width="0.57" stroke-linecap="round"/>
<path fill-rule="evenodd" clip-rule="evenodd" d="M38 140.089C38 160.266 57.5624 176.623 81.6941 176.623C84.3288 176.623 86.9091 176.428 89.4154 176.055C92.5801 175.583 95.8301 176.472 98.3877 178.397C99.3619 179.131 100.445 179.868 101.549 180.476C105.136 182.452 109.006 182.953 109.656 182.334C110.305 181.715 108.35 180.201 106.564 177.862C106.272 177.479 105.987 177.062 105.715 176.63C104.113 174.09 105.419 170.889 107.958 169.289C118.544 162.622 125.388 152.024 125.388 140.089C125.388 119.911 105.826 103.554 81.6941 103.554C57.5624 103.554 38 119.911 38 140.089Z" fill="white" stroke="#DEE1EB" stroke-width="2"/>
<path d="M63.1689 151.981H99.1689V115.981H63.1689V151.981Z" fill="white"/>
<path fill-rule="evenodd" clip-rule="evenodd" d="M186.9 104.676C186.9 117.752 174.222 128.353 158.584 128.353C156.876 128.353 155.204 128.226 153.58 127.984C151.529 127.678 149.423 128.254 147.765 129.502C147.134 129.977 146.432 130.456 145.717 130.85C143.393 132.13 140.884 132.455 140.463 132.053C140.043 131.652 141.309 130.671 142.467 129.155C142.656 128.907 142.841 128.637 143.017 128.357C144.055 126.711 143.209 124.636 141.563 123.6C134.703 119.279 130.268 112.411 130.268 104.676C130.268 91.6002 142.945 81 158.584 81C174.222 81 186.9 91.6002 186.9 104.676Z" fill="white" stroke="#DEE1EB" stroke-width="2"/>
<path d="M146.071 111.177H169.071V88.1769H146.071V111.177Z" fill="white"/>
<path d="M291.849 122.172L253.173 138.219L250.291 128.67L291.849 122.172Z" fill="black"/>
<path fill-rule="evenodd" clip-rule="evenodd" d="M291.849 122.172L253.173 138.219L250.291 128.67L291.849 122.172V122.172Z" stroke="black" stroke-width="0.57" stroke-linecap="round" stroke-linejoin="round"/>
<path fill-rule="evenodd" clip-rule="evenodd" d="M283.345 125.181L253.936 131.185L252.961 138.318L283.345 125.181Z" fill="#E3DCFF"/>
<path fill-rule="evenodd" clip-rule="evenodd" d="M283.345 125.181L253.936 131.185L252.961 138.318L283.345 125.181V125.181Z" stroke="black" stroke-width="0.57" stroke-linecap="round" stroke-linejoin="round"/>
<path fill-rule="evenodd" clip-rule="evenodd" d="M266.437 138.488L253.936 131.185L299.053 121L266.437 138.488Z" fill="#E3DCFF"/>
<path fill-rule="evenodd" clip-rule="evenodd" d="M266.437 138.488L253.936 131.185L299.053 121L266.437 138.488V138.488Z" stroke="black" stroke-width="0.57" stroke-linecap="round" stroke-linejoin="round"/>
<path fill-rule="evenodd" clip-rule="evenodd" d="M250.63 128.868L238.115 121.551L299.053 121L250.63 128.868Z" fill="#E3DCFF"/>
<path fill-rule="evenodd" clip-rule="evenodd" d="M250.63 128.868L238.115 121.551L299.053 121L250.63 128.868V128.868Z" stroke="black" stroke-width="0.57" stroke-linecap="round" stroke-linejoin="round"/>
<path d="M246.379 130.973C242.537 132.56 239.229 135.211 236.844 138.615C233.312 143.658 232.097 155.933 238.991 158.659C243.921 160.623 249.995 153.39 247.353 151.144C244.02 148.319 239.104 157.021 239.485 166.866" stroke="black" stroke-width="0.57" stroke-linecap="round"/>
</svg>
