<svg width="31" height="31" viewBox="0 0 31 31" fill="none" xmlns="http://www.w3.org/2000/svg">
<path fill-rule="evenodd" clip-rule="evenodd" d="M21.793 1H9.2215C4.306 1 1 4.451 1 9.584V21.4305C1 26.549 4.306 30 9.2215 30H21.793C26.7085 30 30 26.549 30 21.4305V9.584C30 4.451 26.7085 1 21.793 1Z" stroke="black" stroke-width="1.5" stroke-linecap="round" stroke-linejoin="round"/>
<path fill-rule="evenodd" clip-rule="evenodd" d="M14.2309 9.97456C14.2309 10.6735 14.7978 11.2433 15.4924 11.2433C16.2072 11.2433 16.7756 10.6735 16.7756 9.97456C16.7756 9.27566 16.2072 8.70581 15.5069 8.70581C14.8036 8.70581 14.2309 9.27566 14.2309 9.97456ZM16.7611 14.5751C16.7611 13.8762 16.1913 13.3064 15.4924 13.3064C14.7935 13.3064 14.2236 13.8762 14.2236 14.5751V20.9841C14.2236 21.683 14.7935 22.2529 15.4924 22.2529C16.1913 22.2529 16.7611 21.683 16.7611 20.9841V14.5751Z" fill="#2A2626"/>
</svg>
