<svg width="31" height="53" viewBox="0 0 31 53" fill="none" xmlns="http://www.w3.org/2000/svg">
<path d="M0.243395 43H5.3434V44.1H3.3734V50H2.2234V44.1H0.243395V43ZM7.18924 44.05C7.05591 44.1833 6.89591 44.25 6.70924 44.25C6.52257 44.25 6.35924 44.1833 6.21924 44.05C6.08591 43.91 6.01924 43.7467 6.01924 43.56C6.01924 43.3733 6.08591 43.2133 6.21924 43.08C6.35257 42.94 6.51591 42.87 6.70924 42.87C6.90257 42.87 7.06591 42.94 7.19924 43.08C7.33257 43.2133 7.39924 43.3733 7.39924 43.56C7.39924 43.7467 7.32924 43.91 7.18924 44.05ZM7.24924 50H6.16924V45H7.24924V50ZM14.0087 44.87C14.5753 44.87 15.032 45.0533 15.3787 45.42C15.7253 45.7867 15.8987 46.28 15.8987 46.9V50H14.8187V46.97C14.8187 46.63 14.732 46.3633 14.5587 46.17C14.3853 45.9767 14.1487 45.88 13.8487 45.88C13.5087 45.88 13.242 45.9933 13.0487 46.22C12.8553 46.44 12.7587 46.7667 12.7587 47.2V50H11.6787V46.97C11.6787 46.6233 11.5953 46.3567 11.4287 46.17C11.2687 45.9767 11.0387 45.88 10.7387 45.88C10.4053 45.88 10.1353 45.9933 9.92868 46.22C9.72868 46.4467 9.62868 46.7733 9.62868 47.2V50H8.54868V45H9.62868V45.6C9.94868 45.1133 10.4253 44.87 11.0587 44.87C11.6987 44.87 12.172 45.1333 12.4787 45.66C12.8053 45.1333 13.3153 44.87 14.0087 44.87ZM18.12 44.05C17.9867 44.1833 17.8267 44.25 17.64 44.25C17.4533 44.25 17.29 44.1833 17.15 44.05C17.0167 43.91 16.95 43.7467 16.95 43.56C16.95 43.3733 17.0167 43.2133 17.15 43.08C17.2833 42.94 17.4467 42.87 17.64 42.87C17.8333 42.87 17.9967 42.94 18.13 43.08C18.2633 43.2133 18.33 43.3733 18.33 43.56C18.33 43.7467 18.26 43.91 18.12 44.05ZM18.18 50H17.1V45H18.18V50ZM22.1094 44.87C22.6894 44.87 23.1528 45.0567 23.4994 45.43C23.8528 45.7967 24.0294 46.2967 24.0294 46.93V50H22.9494V47.04C22.9494 46.6667 22.8494 46.38 22.6494 46.18C22.4494 45.98 22.1761 45.88 21.8294 45.88C21.4361 45.88 21.1261 46.0033 20.8994 46.25C20.6728 46.49 20.5594 46.8467 20.5594 47.32V50H19.4794V45H20.5594V45.64C20.8928 45.1267 21.4094 44.87 22.1094 44.87ZM29.2178 45.74V45H30.2778V49.77C30.2778 50.53 30.0278 51.1133 29.5278 51.52C29.0344 51.9267 28.4278 52.13 27.7078 52.13C26.5544 52.13 25.7644 51.7267 25.3378 50.92L26.2678 50.38C26.5278 50.8933 27.0144 51.15 27.7278 51.15C28.1944 51.15 28.5578 51.0267 28.8178 50.78C29.0844 50.54 29.2178 50.2033 29.2178 49.77V49.16C28.8111 49.74 28.2311 50.03 27.4778 50.03C26.7778 50.03 26.1811 49.78 25.6878 49.28C25.2011 48.7733 24.9578 48.1633 24.9578 47.45C24.9578 46.73 25.2011 46.1233 25.6878 45.63C26.1744 45.1233 26.7711 44.87 27.4778 44.87C28.2311 44.87 28.8111 45.16 29.2178 45.74ZM26.4878 48.57C26.7944 48.87 27.1744 49.02 27.6278 49.02C28.0811 49.02 28.4578 48.87 28.7578 48.57C29.0644 48.27 29.2178 47.8967 29.2178 47.45C29.2178 47.0033 29.0644 46.63 28.7578 46.33C28.4578 46.03 28.0811 45.88 27.6278 45.88C27.1744 45.88 26.7944 46.03 26.4878 46.33C26.1878 46.63 26.0378 47.0033 26.0378 47.45C26.0378 47.8967 26.1878 48.27 26.4878 48.57Z" fill="#1D1C1C"/>
<path fill-rule="evenodd" clip-rule="evenodd" d="M24.5 16.25C24.5 21.9113 19.9114 26.5 14.25 26.5C8.58867 26.5 4 21.9113 4 16.25C4 10.5887 8.58867 6 14.25 6C19.9114 6 24.5 10.5887 24.5 16.25Z" stroke="#1D1C1C" stroke-width="1.8" stroke-linecap="round" stroke-linejoin="round"/>
<path d="M9.5 1.5H18.5" stroke="#24A0FF" stroke-width="2" stroke-linecap="round" stroke-linejoin="round"/>
<path d="M18.0526 19.5105L13.875 17.0184V11.6473" stroke="#24A0FF" stroke-width="1.8" stroke-linecap="round" stroke-linejoin="round"/>
</svg>
