<svg width="28" height="42" viewBox="0 0 28 42" fill="none" xmlns="http://www.w3.org/2000/svg">
<path fill-rule="evenodd" clip-rule="evenodd" d="M11.2141 40.9807C10.5543 41.6397 9.68105 42 8.7518 42H8.72205C6.80755 41.9842 5.25005 40.4077 5.25005 38.4851V23.1562L5.15701 23.1091C4.16461 22.5958 0 20.1344 0 14.9385C0 8.55888 6.0515 0.671352 6.30875 0.339191C6.482 0.115993 6.741 -3.8147e-06 7 -3.8147e-06C7.18725 -3.8147e-06 7.378 0.0597534 7.53725 0.186291C7.9205 0.483303 7.98875 1.03515 7.69125 1.41827C7.63 1.49561 1.75 9.15641 1.75 14.9385C1.75 18.3309 3.98884 20.2918 5.25005 21.1278V14.7803C5.25005 14.2953 5.64205 13.9016 6.12505 13.9016C6.60805 13.9016 7.00005 14.2953 7.00005 14.7803V38.4851C7.00005 39.4464 7.7788 40.2337 8.73605 40.2425C9.2208 40.2865 9.64955 40.0668 9.98205 39.7329C10.3163 39.4007 10.5001 38.9578 10.5001 38.4851V21.0896C10.5001 20.6239 10.8623 20.2373 11.3278 20.2127C11.8423 20.1652 12.194 20.5272 12.2466 20.9895L12.7925 25.8225C12.845 26.4939 13.2896 27.065 13.923 27.2777C14.4638 27.4622 15.0308 27.3585 15.4788 27.007C15.9251 26.6555 16.1543 26.1283 16.1088 25.5589L15.9862 24.0408C15.9811 24.0052 15.9783 23.9696 15.9776 23.9341L15.7535 21.1599C15.7151 20.6784 16.0738 20.2531 16.555 20.2144C17.0345 20.181 17.4598 20.536 17.4965 21.0193L17.7118 23.6844C18.0146 24.2486 18.6025 24.6046 19.25 24.6046C20.216 24.6046 21 23.8173 21 22.8471V19.3322C21 19.3019 21.0015 19.2719 21.0045 19.2424C21.0122 19.1666 21.0295 19.0936 21.0551 19.0247C21.1793 18.6911 21.4997 18.4534 21.875 18.4534C21.9363 18.4534 21.9962 18.4597 22.054 18.4718C22.4308 18.5503 22.719 18.8717 22.7477 19.2673C22.7492 19.2887 22.75 19.3103 22.75 19.3321C22.75 20.3023 23.534 21.0896 24.5 21.0896C25.466 21.0896 26.25 20.3023 26.25 19.3321V18.8189C26.25 7.56939 20.44 1.55885 20.3788 1.49733C20.0393 1.15462 20.041 0.597507 20.3823 0.256557C20.5538 0.0860863 20.7778 -3.05176e-05 21.0018 -3.05176e-05C21.224 -3.05176e-05 21.448 0.0860863 21.6195 0.256557C21.8785 0.518421 28 6.80313 28 18.8189V19.3321C28 21.2706 26.4303 22.8471 24.5 22.8471C23.8629 22.8471 23.2651 22.6753 22.75 22.3755V22.8471C22.75 24.7856 21.1803 26.3621 19.25 26.3621C18.7567 26.3621 18.2794 26.2576 17.8441 26.0655C17.7472 26.9738 17.2902 27.8135 16.5585 28.3902C15.6555 29.1019 14.4603 29.3111 13.3718 28.9455C12.9518 28.8049 12.5756 28.5888 12.25 28.3163V38.4851C12.25 39.4288 11.8825 40.3163 11.2141 40.9807Z" fill="black"/>
</svg>
