<svg width="383" height="500" viewBox="0 0 383 500" fill="none" xmlns="http://www.w3.org/2000/svg">
<g filter="url(#filter0_d_1_1137)">
<path d="M193.34 460.323C244.581 460.323 286.12 451.832 286.12 441.357C286.12 430.882 244.581 422.391 193.34 422.391C142.099 422.391 100.56 430.882 100.56 441.357C100.56 451.832 142.099 460.323 193.34 460.323Z" fill="#F5F4FA"/>
<path d="M139.81 198.975H125.697C124.289 198.975 123.147 200.117 123.147 201.525V229.46C123.147 230.868 124.289 232.01 125.697 232.01H139.81C141.218 232.01 142.36 230.868 142.36 229.46V201.525C142.36 200.117 141.218 198.975 139.81 198.975Z" fill="black"/>
<path d="M139.81 198.975H125.697C124.289 198.975 123.147 200.117 123.147 201.525V229.46C123.147 230.868 124.289 232.01 125.697 232.01H139.81C141.218 232.01 142.36 230.868 142.36 229.46V201.525C142.36 200.117 141.218 198.975 139.81 198.975Z" stroke="black" stroke-width="0.57" stroke-linecap="round"/>
<path fill-rule="evenodd" clip-rule="evenodd" d="M178.195 223.684C170.093 231.921 164.15 241.393 149.897 251.268C145.31 254.44 142.331 256.913 141.378 257.344C141.378 257.344 141.512 237.461 141.512 236.821C141.437 235.197 146.531 233.41 148.422 226.261C149.382 223.043 148.249 219.568 145.578 217.533C141.616 214.048 137.758 215.746 139.62 220.422C140.351 221.783 141.274 223.032 142.361 224.131V228.272C142.361 228.272 131.935 226.872 126.796 226.886C124.816 226.886 123.267 227.393 124.19 227.006C128.301 225.263 129.76 219.35 125.575 219.469C126.656 219.272 127.626 218.683 128.301 217.816C129.105 216.327 129.254 213.735 125.501 213.348C125.322 213.348 128.092 213.586 129.135 212.588C130.177 211.59 131.011 207.614 124.473 206.899C121.241 206.526 119.498 209.103 120.705 213.69C120.884 214.331 115.596 213.973 118.292 220.914C113.049 228.986 124.994 234.631 125.143 237.565C125.843 250.97 123.654 266.37 125.918 272.179C131.175 285.717 146.769 277.362 168.604 260.785C176.229 255.021 180.519 237.67 178.329 228.391C178.255 227.989 178.195 223.684 178.195 223.684Z" fill="#E3DCFF"/>
<path fill-rule="evenodd" clip-rule="evenodd" d="M178.195 223.684C170.093 231.921 164.15 241.393 149.897 251.268C145.31 254.44 142.331 256.913 141.378 257.344C141.378 257.344 141.512 237.461 141.512 236.821C141.437 235.197 146.531 233.41 148.422 226.261C149.382 223.043 148.249 219.568 145.578 217.533C141.616 214.048 137.758 215.746 139.62 220.422C140.351 221.783 141.274 223.032 142.361 224.131V228.272C142.361 228.272 131.935 226.872 126.796 226.886C124.816 226.886 123.267 227.393 124.19 227.006C128.301 225.263 129.76 219.35 125.575 219.469C126.656 219.272 127.626 218.683 128.301 217.816C129.105 216.327 129.254 213.735 125.501 213.348C125.322 213.348 128.092 213.586 129.135 212.588C130.177 211.59 131.011 207.614 124.473 206.899C121.241 206.526 119.498 209.103 120.705 213.69C120.884 214.331 115.596 213.973 118.292 220.914C113.049 228.986 124.994 234.631 125.143 237.565C125.843 250.97 123.654 266.37 125.918 272.179C131.175 285.717 146.769 277.362 168.604 260.785C176.229 255.021 180.519 237.67 178.329 228.391C178.255 227.989 178.195 223.684 178.195 223.684Z" stroke="black" stroke-width="0.57" stroke-linecap="round"/>
<path d="M129.522 224.771L138.578 224.354C140.675 224.354 142.375 226.055 142.375 228.152C142.375 230.25 140.675 231.95 138.578 231.95H126.96C124.863 231.95 123.162 230.25 123.162 228.152C123.162 228.152 123.43 226.976 124.205 226.946C126.796 226.886 128.033 224.906 129.522 224.771Z" fill="black"/>
<path fill-rule="evenodd" clip-rule="evenodd" d="M129.522 224.771L138.578 224.354C140.675 224.354 142.375 226.055 142.375 228.152C142.375 230.25 140.675 231.95 138.578 231.95H126.96C124.863 231.95 123.162 230.25 123.162 228.152C123.162 228.152 123.43 226.976 124.205 226.946C126.796 226.886 128.033 224.906 129.522 224.771Z" stroke="black" stroke-width="0.57" stroke-linecap="round"/>
<path d="M141.333 256.287C141.333 256.957 141.333 262.513 141.333 264.166C141.425 261.743 142.029 259.368 143.105 257.196C143.105 257.196 144.148 255.349 143.895 255.557C143.167 256.051 142.394 256.475 141.586 256.823C141.541 256.734 141.437 256.302 141.333 256.287Z" fill="black"/>
<path fill-rule="evenodd" clip-rule="evenodd" d="M141.333 256.287C141.333 256.957 141.333 262.513 141.333 264.166C141.425 261.743 142.029 259.368 143.105 257.196C143.105 257.196 144.148 255.349 143.895 255.557C143.167 256.051 142.394 256.475 141.586 256.823C141.541 256.734 141.437 256.302 141.333 256.287Z" stroke="black" stroke-width="0.57" stroke-linecap="round" stroke-linejoin="round"/>
<path d="M178.21 224.608L173.191 229.314C170.212 243.136 165.744 251.238 163.421 264.777C166.399 262.304 168.544 260.308 171.538 257.776L178.21 224.608Z" fill="black"/>
<path fill-rule="evenodd" clip-rule="evenodd" d="M178.21 224.608L173.191 229.314C170.212 243.136 165.744 251.238 163.421 264.777C166.399 262.304 168.544 260.308 171.538 257.776L178.21 224.608Z" stroke="black" stroke-width="0.57" stroke-linecap="round"/>
<path fill-rule="evenodd" clip-rule="evenodd" d="M169.914 418.943H201.192C201.711 418.959 202.129 419.377 202.145 419.896L203.634 440.986H153.546C152.608 432.154 159.086 429.473 166.712 425.69C169.736 423.501 169.914 418.943 169.914 418.943Z" fill="#E3DCFF"/>
<path fill-rule="evenodd" clip-rule="evenodd" d="M169.914 418.943H201.192C201.711 418.959 202.129 419.377 202.145 419.896L203.634 440.986H153.546C152.608 432.154 159.086 429.473 166.712 425.69C169.736 423.501 169.914 418.943 169.914 418.943Z" stroke="black" stroke-width="0.57" stroke-linecap="round" stroke-linejoin="round"/>
<path d="M204.484 437.605H153.248C152.895 437.605 152.608 437.892 152.608 438.245V443.384C152.608 443.738 152.895 444.024 153.248 444.024H204.484C204.837 444.024 205.124 443.738 205.124 443.384V438.245C205.124 437.892 204.837 437.605 204.484 437.605Z" fill="black"/>
<path d="M204.484 437.605H153.248C152.895 437.605 152.608 437.892 152.608 438.245V443.384C152.608 443.738 152.895 444.024 153.248 444.024H204.484C204.837 444.024 205.124 443.738 205.124 443.384V438.245C205.124 437.892 204.837 437.605 204.484 437.605Z" stroke="black" stroke-width="0.57" stroke-linecap="round" stroke-linejoin="round"/>
<path fill-rule="evenodd" clip-rule="evenodd" d="M200.715 418.943H231.992C232.509 418.966 232.923 419.38 232.945 419.896L234.435 440.986H184.347C183.408 432.154 189.887 429.473 197.513 425.69C200.477 423.501 200.715 418.943 200.715 418.943Z" fill="#E3DCFF"/>
<path fill-rule="evenodd" clip-rule="evenodd" d="M200.715 418.943H231.992C232.509 418.966 232.923 419.38 232.945 419.896L234.435 440.986H184.347C183.408 432.154 189.887 429.473 197.513 425.69C200.477 423.501 200.715 418.943 200.715 418.943Z" stroke="black" stroke-width="0.57" stroke-linecap="round" stroke-linejoin="round"/>
<path d="M235.284 437.605H184.048C183.695 437.605 183.408 437.892 183.408 438.245V443.384C183.408 443.738 183.695 444.024 184.048 444.024H235.284C235.637 444.024 235.924 443.738 235.924 443.384V438.245C235.924 437.892 235.637 437.605 235.284 437.605Z" fill="black"/>
<path d="M235.284 437.605H184.048C183.695 437.605 183.408 437.892 183.408 438.245V443.384C183.408 443.738 183.695 444.024 184.048 444.024H235.284C235.637 444.024 235.924 443.738 235.924 443.384V438.245C235.924 437.892 235.637 437.605 235.284 437.605Z" stroke="black" stroke-width="0.57" stroke-linecap="round" stroke-linejoin="round"/>
<path fill-rule="evenodd" clip-rule="evenodd" d="M222.559 221.21C230.616 229.401 236.552 238.854 250.754 248.678C255.325 251.839 258.307 254.317 259.257 254.733C259.257 254.733 259.123 234.936 259.123 234.284C259.123 231.88 251.288 229.743 255.295 210.54C255.629 208.498 255.827 206.435 255.888 204.367C256.274 199.128 260.504 198.253 262.448 201.992C263.382 203.773 263.368 207.483 263.175 209.59C262.997 211.416 264.777 210.199 271.44 210.496C272.872 210.434 274.206 211.22 274.847 212.502C275.488 213.784 275.316 215.323 274.408 216.431C274.245 216.654 278.86 218.153 275.892 222.783C279.632 226.938 274.735 229.03 274.616 229.757C273.711 235.382 277.673 263.651 275.432 269.424C270.194 282.898 253.885 274.588 232.056 258.072C224.473 252.343 220.184 235.055 222.38 225.795C222.499 225.498 222.559 221.195 222.559 221.21Z" fill="#E3DCFF"/>
<path d="M224.148 223.12L228.094 226.808C230.435 237.674 233.948 244.043 235.774 254.686C233.433 252.742 231.735 251.173 229.393 249.183L224.148 223.12Z" fill="black"/>
<path fill-rule="evenodd" clip-rule="evenodd" d="M222.559 221.21C230.616 229.401 236.552 238.854 250.754 248.678C255.325 251.839 258.307 254.317 259.257 254.733C259.257 254.733 259.123 234.936 259.123 234.284C259.123 231.88 251.288 229.743 255.295 210.54C255.629 208.498 255.827 206.435 255.888 204.367C256.274 199.128 260.504 198.253 262.448 201.992C263.382 203.773 263.368 207.483 263.175 209.59C262.997 211.416 264.777 210.199 271.44 210.496C272.872 210.434 274.206 211.22 274.847 212.502C275.488 213.784 275.316 215.323 274.408 216.431C274.245 216.654 278.86 218.153 275.892 222.783C279.632 226.938 274.735 229.03 274.616 229.757C273.711 235.382 277.673 263.651 275.432 269.424C270.194 282.898 253.885 274.588 232.056 258.072C224.473 252.343 220.184 235.055 222.38 225.795C222.499 225.498 222.559 221.195 222.559 221.21Z" stroke="black" stroke-width="0.57" stroke-linecap="round"/>
<path d="M259.272 253.679C259.272 254.347 259.272 259.882 259.272 261.529C259.185 259.117 258.588 256.75 257.521 254.584C257.521 254.584 256.482 252.744 256.719 252.952C257.447 253.449 258.222 253.872 259.034 254.213C259.064 254.124 259.213 253.694 259.272 253.679Z" fill="black"/>
<path fill-rule="evenodd" clip-rule="evenodd" d="M259.272 253.679C259.272 254.347 259.272 259.882 259.272 261.529C259.185 259.117 258.588 256.75 257.521 254.584C257.521 254.584 256.482 252.744 256.719 252.952C257.447 253.449 258.222 253.872 259.034 254.213C259.064 254.124 259.213 253.694 259.272 253.679Z" stroke="black" stroke-width="0.57" stroke-linecap="round" stroke-linejoin="round"/>
<path d="M264.392 210.674C259.94 211.208 258.767 217.426 264.57 217.159C266.84 217.055 269.778 216.802 269.585 216.847C268.873 217.01 259.865 217.485 262.551 221.462C264.243 223.97 271.292 222.946 271.055 222.946C269.542 223.092 268.066 223.499 266.692 224.148C262.522 225.81 263.59 229.327 267.671 229.683C268.71 229.772 270.209 229.802 271.292 229.802" stroke="black" stroke-width="0.57" stroke-linecap="round"/>
<path fill-rule="evenodd" clip-rule="evenodd" d="M178.672 179.717C178.672 192.452 178.672 192.243 178.672 205.037C178.672 238.697 163.361 245.802 162.393 280.445C162.214 286.775 167.889 285.985 168.842 294.49C176.006 296.232 195.13 289.232 202.279 290.975C209.413 289.232 228.239 303.382 235.373 301.639C247.899 246.636 221.462 235.927 221.507 207.271V179.777C221.596 151.494 178.761 152.462 178.672 179.717Z" fill="#E3DCFF"/>
<path fill-rule="evenodd" clip-rule="evenodd" d="M178.672 179.717C178.672 192.452 178.672 192.243 178.672 205.037C178.672 238.697 163.361 245.802 162.393 280.445C162.214 286.775 167.889 285.985 168.842 294.49C176.006 296.232 195.13 289.232 202.279 290.975C209.413 289.232 228.239 303.382 235.373 301.639C247.899 246.636 221.462 235.927 221.507 207.271V179.777C221.596 151.494 178.761 152.462 178.672 179.717Z" stroke="black" stroke-width="0.57" stroke-linecap="round" stroke-linejoin="round"/>
<path fill-rule="evenodd" clip-rule="evenodd" d="M178.672 179.717C178.672 192.452 178.672 192.243 178.672 205.037C178.684 208.78 178.475 212.519 178.046 216.237H222.386C221.789 213.296 221.495 210.302 221.507 207.301V179.807C221.596 151.494 178.761 152.462 178.672 179.717Z" fill="#E3DCFF"/>
<path fill-rule="evenodd" clip-rule="evenodd" d="M178.672 179.717C178.672 192.452 178.672 192.243 178.672 205.037C178.684 208.78 178.475 212.519 178.046 216.237H222.386C221.789 213.296 221.495 210.302 221.507 207.301V179.807C221.596 151.494 178.761 152.462 178.672 179.717Z" stroke="black" stroke-width="0.57" stroke-linecap="round" stroke-linejoin="round"/>
<path fill-rule="evenodd" clip-rule="evenodd" d="M221.462 177.454C219.332 152.328 181.1 153.147 178.836 177.454H221.462Z" fill="#E3DCFF"/>
<path fill-rule="evenodd" clip-rule="evenodd" d="M221.462 177.454C219.332 152.328 181.1 153.147 178.836 177.454H221.462Z" stroke="black" stroke-width="0.57" stroke-linecap="round" stroke-linejoin="round"/>
<path fill-rule="evenodd" clip-rule="evenodd" d="M238.322 279.462C238.322 279.775 238.322 280.073 238.322 280.385C238.59 294.788 233.943 302.726 233.988 315.877C233.988 344.399 234.852 417.722 234.762 419.211H168.246C168.246 419.211 167.65 344.578 168.067 316.607C168.276 301.713 163.957 297.454 162.348 280.549C162.326 280.187 162.326 279.824 162.348 279.462H238.322Z" fill="#E3DCFF"/>
<path fill-rule="evenodd" clip-rule="evenodd" d="M238.322 279.462C238.322 279.775 238.322 280.073 238.322 280.385C238.59 294.788 233.943 302.726 233.988 315.877C233.988 344.399 234.852 417.722 234.762 419.211H168.246C168.246 419.211 167.65 344.578 168.067 316.607C168.276 301.713 163.957 297.454 162.348 280.549C162.326 280.187 162.326 279.824 162.348 279.462H238.322Z" stroke="black" stroke-width="0.57" stroke-linecap="round" stroke-linejoin="round"/>
<path fill-rule="evenodd" clip-rule="evenodd" d="M180.623 194.552C181.989 194.551 183.099 193.45 183.11 192.084C183.12 190.718 182.027 189.599 180.662 189.578C179.296 189.556 178.168 190.639 178.136 192.005C178.12 192.675 178.375 193.323 178.843 193.802C179.311 194.282 179.953 194.552 180.623 194.552Z" fill="#FEFEFE"/>
<path fill-rule="evenodd" clip-rule="evenodd" d="M180.623 194.552C181.989 194.551 183.099 193.45 183.11 192.084C183.12 190.718 182.027 189.599 180.662 189.578C179.296 189.556 178.168 190.639 178.136 192.005C178.12 192.675 178.375 193.323 178.843 193.802C179.311 194.282 179.953 194.552 180.623 194.552Z" stroke="black" stroke-width="0.57" stroke-linecap="round" stroke-linejoin="round"/>
<path fill-rule="evenodd" clip-rule="evenodd" d="M201.504 189.577C200.493 189.577 199.582 190.19 199.201 191.127C198.82 192.064 199.044 193.138 199.768 193.844C200.491 194.551 201.571 194.749 202.498 194.345C203.425 193.941 204.016 193.016 203.992 192.005C203.959 190.655 202.855 189.577 201.504 189.577Z" fill="#FEFEFE"/>
<path fill-rule="evenodd" clip-rule="evenodd" d="M201.504 189.577C200.493 189.577 199.582 190.19 199.201 191.127C198.82 192.064 199.044 193.138 199.768 193.844C200.491 194.551 201.571 194.749 202.498 194.345C203.425 193.941 204.016 193.016 203.992 192.005C203.959 190.655 202.855 189.577 201.504 189.577Z" stroke="black" stroke-width="0.57" stroke-linecap="round" stroke-linejoin="round"/>
<path d="M200.432 316.92C200.432 310.828 190.423 311.394 186.774 302.741" stroke="black" stroke-width="0.57" stroke-linecap="round" stroke-linejoin="round"/>
<path d="M181.561 182.413C180.58 182.267 179.577 182.423 178.687 182.86" stroke="black" stroke-width="0.57" stroke-linecap="round"/>
<path d="M187.673 187.686H219.3" stroke="black" stroke-width="0.57" stroke-linecap="round"/>
<path d="M192.405 187.686H207.107V189.716C207.107 193.776 203.816 197.067 199.756 197.067C195.696 197.067 192.405 193.776 192.405 189.716V187.686Z" fill="black"/>
<path fill-rule="evenodd" clip-rule="evenodd" d="M192.405 187.686H207.107V189.716C207.107 193.776 203.816 197.067 199.756 197.067C195.696 197.067 192.405 193.776 192.405 189.716V187.686Z" stroke="black" stroke-width="0.57" stroke-linecap="round"/>
<path d="M175 187.686H189.703V189.716C189.703 193.776 186.411 197.067 182.351 197.067C178.291 197.067 175 193.776 175 189.716V187.686Z" fill="black"/>
<path fill-rule="evenodd" clip-rule="evenodd" d="M175 187.686H189.703V189.716C189.703 193.776 186.411 197.067 182.351 197.067C178.291 197.067 175 193.776 175 189.716V187.686Z" stroke="black" stroke-width="0.57" stroke-linecap="round"/>
<path d="M200.462 182.413C201.443 182.27 202.445 182.425 203.336 182.86" stroke="black" stroke-width="0.57" stroke-linecap="round"/>
<path fill-rule="evenodd" clip-rule="evenodd" d="M221.149 212.32H178.672C177.027 212.32 175.693 213.654 175.693 215.299C175.693 216.944 177.027 218.278 178.672 218.278H221.12C222.765 218.278 224.098 216.944 224.098 215.299C224.098 213.654 222.765 212.32 221.12 212.32H221.149Z" fill="#E3DCFF"/>
<path fill-rule="evenodd" clip-rule="evenodd" d="M221.149 212.32H178.672C177.027 212.32 175.693 213.654 175.693 215.299C175.693 216.944 177.027 218.278 178.672 218.278H221.12C222.765 218.278 224.098 216.944 224.098 215.299C224.098 213.654 222.765 212.32 221.12 212.32H221.149Z" stroke="black" stroke-width="0.57" stroke-linecap="round"/>
<path d="M221.551 177.245H156.257" stroke="black" stroke-width="0.57" stroke-linecap="round"/>
<path d="M178.121 218.203L177.466 220.84C185.754 219.5 194.114 218.65 202.502 218.293L178.121 218.203Z" fill="black"/>
<path fill-rule="evenodd" clip-rule="evenodd" d="M178.121 218.203L177.466 220.84C185.754 219.5 194.114 218.65 202.502 218.293L178.121 218.203Z" stroke="black" stroke-width="0.57" stroke-linecap="round"/>
<path d="M169.646 419.152L169.006 421.788C177.279 420.451 185.624 419.605 193.998 419.256L169.646 419.152Z" fill="black"/>
<path fill-rule="evenodd" clip-rule="evenodd" d="M169.646 419.152L169.006 421.788C177.279 420.451 185.624 419.605 193.998 419.256L169.646 419.152Z" stroke="black" stroke-width="0.57" stroke-linecap="round"/>
<path d="M200.864 419.152L200.223 421.788C208.497 420.451 216.842 419.605 225.215 419.256L200.864 419.152Z" fill="black"/>
<path fill-rule="evenodd" clip-rule="evenodd" d="M200.864 419.152L200.223 421.788C208.497 420.451 216.842 419.605 225.215 419.256L200.864 419.152Z" stroke="black" stroke-width="0.57" stroke-linecap="round"/>
<path d="M179.387 177.111L178.672 179.777C186.95 178.439 195.3 177.589 203.679 177.23L179.387 177.111Z" fill="black"/>
<path fill-rule="evenodd" clip-rule="evenodd" d="M179.387 177.111L178.672 179.777C186.95 178.439 195.3 177.589 203.679 177.23L179.387 177.111Z" stroke="black" stroke-width="0.57" stroke-linecap="round"/>
<path d="M179.506 192.303C179.353 192.31 179.23 192.433 179.223 192.586C179.223 192.742 179.35 192.869 179.506 192.869C179.582 192.873 179.657 192.845 179.711 192.791C179.765 192.737 179.793 192.662 179.789 192.586C179.789 192.429 179.662 192.303 179.506 192.303Z" fill="black"/>
<path fill-rule="evenodd" clip-rule="evenodd" d="M179.506 192.303C179.353 192.31 179.23 192.433 179.223 192.586C179.223 192.742 179.35 192.869 179.506 192.869C179.582 192.873 179.657 192.845 179.711 192.791C179.765 192.737 179.793 192.662 179.789 192.586C179.789 192.429 179.662 192.303 179.506 192.303Z" stroke="black" stroke-width="0.57" stroke-linecap="round" stroke-linejoin="round"/>
<path d="M200.119 192.899C200.275 192.899 200.402 192.772 200.402 192.616C200.402 192.459 200.275 192.333 200.119 192.333C199.963 192.333 199.836 192.459 199.836 192.616C199.836 192.772 199.963 192.899 200.119 192.899Z" fill="black"/>
<path fill-rule="evenodd" clip-rule="evenodd" d="M200.119 192.899C200.275 192.899 200.402 192.772 200.402 192.616C200.402 192.459 200.275 192.333 200.119 192.333C199.963 192.333 199.836 192.459 199.836 192.616C199.836 192.772 199.963 192.899 200.119 192.899Z" stroke="black" stroke-width="0.57" stroke-linecap="round" stroke-linejoin="round"/>
<path d="M200.387 419.211V316.726" stroke="black" stroke-width="0.57" stroke-linecap="round"/>
<path d="M189.604 197.054C188.398 197.352 187.251 198.945 189.038 199.601C191.838 200.658 186.7 201.76 189.038 203.533C189.455 203.846 190.051 203.622 190.527 203.533" stroke="#373435" stroke-width="0.57" stroke-linecap="round"/>
<path d="M123.147 213.393C124.449 213.276 125.761 213.367 127.035 213.661" stroke="black" stroke-width="0.57" stroke-linecap="round"/>
<path d="M121.003 220.467C121.36 220.274 127.452 219.112 128.182 218.978" stroke="black" stroke-width="0.57" stroke-linecap="round"/>
<path d="M141.333 194.76L142.212 188.907" stroke="#373435" stroke-width="0.57" stroke-linecap="round"/>
<path d="M145.742 197.948L152.593 193.122" stroke="#373435" stroke-width="0.57" stroke-linecap="round"/>
<path d="M153.665 203.056L148.72 203.86" stroke="#373435" stroke-width="0.57" stroke-linecap="round"/>
<path fill-rule="evenodd" clip-rule="evenodd" d="M42 140.089C42 160.266 61.5625 176.623 85.6941 176.623C88.3288 176.623 90.9091 176.428 93.4155 176.055C96.5801 175.583 99.8301 176.472 102.388 178.397C103.362 179.131 104.445 179.868 105.549 180.476C109.136 182.452 113.006 182.953 113.656 182.334C114.305 181.715 112.35 180.201 110.564 177.862C110.272 177.479 109.987 177.062 109.715 176.631C108.113 174.09 109.419 170.889 111.958 169.289C122.544 162.622 129.388 152.024 129.388 140.089C129.388 119.911 109.826 103.554 85.6941 103.554C61.5625 103.554 42 119.911 42 140.089Z" fill="white" stroke="#DEE1EB" stroke-width="2"/>
<path d="M67.1689 151.981H103.169V115.981H67.1689V151.981Z" fill="white"/>
<path fill-rule="evenodd" clip-rule="evenodd" d="M190.9 104.676C190.9 117.752 178.223 128.353 162.584 128.353C160.876 128.353 159.204 128.226 157.58 127.984C155.529 127.678 153.423 128.254 151.766 129.502C151.134 129.977 150.432 130.456 149.717 130.85C147.393 132.13 144.884 132.455 144.463 132.053C144.043 131.652 145.309 130.671 146.467 129.155C146.656 128.907 146.841 128.637 147.017 128.357C148.055 126.711 147.209 124.636 145.563 123.6C138.703 119.279 134.268 112.411 134.268 104.676C134.268 91.6002 146.945 81 162.584 81C178.223 81 190.9 91.6002 190.9 104.676Z" fill="white" stroke="#DEE1EB" stroke-width="2"/>
<path d="M150.071 111.177H173.071V88.1769H150.071V111.177Z" fill="white"/>
<path d="M295.849 122.172L257.173 138.219L254.291 128.67L295.849 122.172Z" fill="black"/>
<path fill-rule="evenodd" clip-rule="evenodd" d="M295.849 122.172L257.173 138.219L254.291 128.67L295.849 122.172Z" stroke="black" stroke-width="0.57" stroke-linecap="round" stroke-linejoin="round"/>
<path fill-rule="evenodd" clip-rule="evenodd" d="M287.345 125.181L257.936 131.185L256.961 138.318L287.345 125.181Z" fill="#E3DCFF"/>
<path fill-rule="evenodd" clip-rule="evenodd" d="M287.345 125.181L257.936 131.185L256.961 138.318L287.345 125.181Z" stroke="black" stroke-width="0.57" stroke-linecap="round" stroke-linejoin="round"/>
<path fill-rule="evenodd" clip-rule="evenodd" d="M270.437 138.488L257.936 131.185L303.053 121L270.437 138.488Z" fill="#E3DCFF"/>
<path fill-rule="evenodd" clip-rule="evenodd" d="M270.437 138.488L257.936 131.185L303.053 121L270.437 138.488Z" stroke="black" stroke-width="0.57" stroke-linecap="round" stroke-linejoin="round"/>
<path fill-rule="evenodd" clip-rule="evenodd" d="M254.63 128.868L242.115 121.551L303.053 121L254.63 128.868Z" fill="#E3DCFF"/>
<path fill-rule="evenodd" clip-rule="evenodd" d="M254.63 128.868L242.115 121.551L303.053 121L254.63 128.868Z" stroke="black" stroke-width="0.57" stroke-linecap="round" stroke-linejoin="round"/>
<path d="M250.378 130.973C246.537 132.56 243.229 135.211 240.844 138.615C237.312 143.658 236.097 155.933 242.991 158.659C247.921 160.623 253.995 153.39 251.353 151.144C248.019 148.319 243.104 157.02 243.485 166.866" stroke="black" stroke-width="0.57" stroke-linecap="round"/>
<path d="M67 157.52H103V121.52H67V157.52Z" fill="white"/>
<path d="M152 112.61H175V89.61H152V112.61Z" fill="white"/>
</g>
<defs>
<filter id="filter0_d_1_1137" x="0" y="0" width="383" height="500" filterUnits="userSpaceOnUse" color-interpolation-filters="sRGB">
<feFlood flood-opacity="0" result="BackgroundImageFix"/>
<feColorMatrix in="SourceAlpha" type="matrix" values="0 0 0 0 0 0 0 0 0 0 0 0 0 0 0 0 0 0 127 0" result="hardAlpha"/>
<feOffset dy="4"/>
<feGaussianBlur stdDeviation="2"/>
<feComposite in2="hardAlpha" operator="out"/>
<feColorMatrix type="matrix" values="0 0 0 0 0 0 0 0 0 0 0 0 0 0 0 0 0 0 0.25 0"/>
<feBlend mode="normal" in2="BackgroundImageFix" result="effect1_dropShadow_1_1137"/>
<feBlend mode="normal" in="SourceGraphic" in2="effect1_dropShadow_1_1137" result="shape"/>
</filter>
</defs>
</svg>
