<svg width="375" height="492" viewBox="0 0 375 492" fill="none" xmlns="http://www.w3.org/2000/svg">
<g clip-path="url(#clip0_1_1506)">
<path d="M496.08 169.8H42" stroke="black" stroke-width="0.57" stroke-linecap="round"/>
<path d="M496.08 124.535H42" stroke="black" stroke-width="0.57" stroke-linecap="round"/>
<path fill-rule="evenodd" clip-rule="evenodd" d="M117.911 132.351H103.628C98.6556 132.351 95.5371 135.874 95.5371 140.859V154.307C95.5371 159.293 98.6423 162.816 103.628 162.816H117.903C122.897 162.816 126 159.293 126 154.307V140.859C126.007 135.874 122.902 132.351 117.911 132.351Z" fill="#DDE9FF" stroke="#130F26" stroke-width="0.8" stroke-linecap="round" stroke-linejoin="round"/>
<path fill-rule="evenodd" clip-rule="evenodd" d="M108.667 142.314C108.667 143.998 107.303 145.361 105.619 145.361C103.937 145.361 102.572 143.998 102.572 142.314C102.572 140.63 103.937 139.266 105.619 139.266C107.302 139.268 108.665 140.632 108.667 142.314Z" stroke="#130F26" stroke-width="0.8" stroke-linecap="round" stroke-linejoin="round"/>
<path d="M126.007 152.493C124.484 150.925 121.553 147.757 118.367 147.757C115.179 147.757 113.342 154.745 110.276 154.745C107.211 154.745 104.426 151.585 101.969 153.611C99.5127 155.635 97.1883 159.773 97.1883 159.773" stroke="#130F26" stroke-width="0.8" stroke-linecap="round" stroke-linejoin="round"/>
<path fill-rule="evenodd" clip-rule="evenodd" d="M171.448 132.351H157.165C152.193 132.351 149.074 135.874 149.074 140.859V154.307C149.074 159.293 152.179 162.816 157.165 162.816H171.44C176.434 162.816 179.538 159.293 179.538 154.307V140.859C179.544 135.874 176.439 132.351 171.448 132.351Z" fill="#E6FFD9" stroke="#130F26" stroke-width="0.8" stroke-linecap="round" stroke-linejoin="round"/>
<path fill-rule="evenodd" clip-rule="evenodd" d="M162.204 142.314C162.204 143.998 160.84 145.361 159.157 145.361C157.474 145.361 156.109 143.998 156.109 142.314C156.109 140.63 157.474 139.266 159.157 139.266C160.839 139.268 162.202 140.632 162.204 142.314Z" stroke="#130F26" stroke-width="0.8" stroke-linecap="round" stroke-linejoin="round"/>
<path d="M179.544 152.493C178.021 150.925 175.09 147.757 171.904 147.757C168.716 147.757 166.879 154.745 163.813 154.745C160.748 154.745 157.963 151.585 155.506 153.611C153.05 155.635 150.725 159.773 150.725 159.773" stroke="#130F26" stroke-width="0.8" stroke-linecap="round" stroke-linejoin="round"/>
<path d="M140.451 141.11H133.951C132.388 141.11 131.121 142.377 131.121 143.94V150.44C131.121 152.003 132.388 153.27 133.951 153.27H140.451C142.014 153.27 143.281 152.003 143.281 150.44V143.94C143.281 142.377 142.014 141.11 140.451 141.11Z" fill="black"/>
<path d="M137.311 149.42C137.371 149.42 137.446 149.39 137.506 149.345C137.701 149.226 137.761 149.016 137.791 148.791C137.806 148.491 137.746 148.146 137.761 147.831C137.761 147.712 137.836 147.622 137.956 147.607C138.001 147.607 138.031 147.607 138.075 147.607C138.345 147.607 138.615 147.682 138.87 147.682C139.065 147.682 139.245 147.637 139.41 147.472C139.5 147.367 139.545 147.277 139.56 147.127V147.067C139.575 146.932 139.53 146.812 139.455 146.692V146.677C139.455 146.677 139.44 146.632 139.35 146.572C139.335 146.557 139.32 146.557 139.305 146.542C139.245 146.512 139.185 146.512 139.11 146.497H138.975C138.705 146.497 138.435 146.527 138.165 146.527C138.105 146.527 138.031 146.527 137.971 146.527C137.851 146.512 137.776 146.437 137.761 146.317C137.701 145.733 137.791 144.504 137.341 144.504C137.236 144.504 137.116 144.564 136.951 144.698C136.846 144.803 136.786 144.908 136.756 145.043L136.711 145.403C136.681 145.718 136.711 146.048 136.711 146.347C136.711 146.482 136.651 146.572 136.501 146.587C136.442 146.587 136.367 146.587 136.307 146.587C135.842 146.587 135.362 146.542 135.122 146.932C135.047 147.052 135.032 147.172 135.092 147.292C135.242 147.607 135.677 147.667 136.097 147.667C136.232 147.667 136.382 147.667 136.501 147.652C136.636 147.652 136.726 147.726 136.741 147.861C136.771 148.251 136.741 148.626 136.786 148.986C136.801 149.136 136.831 149.226 136.951 149.315L137.041 149.36C137.101 149.39 137.176 149.435 137.311 149.42Z" fill="white"/>
<path fill-rule="evenodd" clip-rule="evenodd" d="M64.3742 132.351H50.0909C45.1185 132.351 42 135.874 42 140.859V154.307C42 159.293 45.1053 162.816 50.0909 162.816H64.3659C69.3598 162.816 72.4634 159.293 72.4634 154.307V140.859C72.47 135.874 69.3647 132.351 64.3742 132.351Z" fill="#FBFFDD" stroke="#130F26" stroke-width="0.8" stroke-linecap="round" stroke-linejoin="round"/>
<path fill-rule="evenodd" clip-rule="evenodd" d="M55.1299 142.314C55.1299 143.998 53.7663 145.361 52.0824 145.361C50.4002 145.361 49.0349 143.998 49.0349 142.314C49.0349 140.63 50.4002 139.266 52.0824 139.266C53.7646 139.268 55.1282 140.632 55.1299 142.314Z" stroke="#130F26" stroke-width="0.8" stroke-linecap="round" stroke-linejoin="round"/>
<path d="M72.4703 152.493C70.9466 150.925 68.0163 147.757 64.8301 147.757C61.6423 147.757 59.8049 154.745 56.7393 154.745C53.6736 154.745 50.8886 151.585 48.4321 153.611C45.9757 155.635 43.6512 159.773 43.6512 159.773" stroke="#130F26" stroke-width="0.8" stroke-linecap="round" stroke-linejoin="round"/>
<path d="M86.9144 141.11H80.4139C78.8509 141.11 77.5839 142.377 77.5839 143.94V150.44C77.5839 152.003 78.8509 153.27 80.4139 153.27H86.9144C88.4774 153.27 89.7444 152.003 89.7444 150.44V143.94C89.7444 142.377 88.4774 141.11 86.9144 141.11Z" fill="black"/>
<path d="M83.7739 149.42C83.8339 149.42 83.9088 149.39 83.9688 149.345C84.1637 149.226 84.2236 149.016 84.2536 148.791C84.2686 148.491 84.2086 148.146 84.2236 147.831C84.2236 147.712 84.2986 147.622 84.4185 147.607C84.4635 147.607 84.4935 147.607 84.5384 147.607C84.8083 147.607 85.0781 147.682 85.3329 147.682C85.5278 147.682 85.7077 147.637 85.8726 147.472C85.9625 147.367 86.0075 147.277 86.0225 147.127V147.067C86.0375 146.932 85.9925 146.812 85.9175 146.692V146.677C85.9175 146.677 85.9026 146.632 85.8126 146.572C85.7976 146.557 85.7826 146.557 85.7676 146.542C85.7077 146.512 85.6477 146.512 85.5728 146.497H85.4378C85.168 146.497 84.8982 146.527 84.6284 146.527C84.5684 146.527 84.4935 146.527 84.4335 146.527C84.3136 146.512 84.2386 146.437 84.2236 146.317C84.1637 145.733 84.2536 144.504 83.8039 144.504C83.699 144.504 83.579 144.564 83.4141 144.698C83.3092 144.803 83.2493 144.908 83.2193 145.043L83.1743 145.403C83.1443 145.718 83.1743 146.048 83.1743 146.347C83.1743 146.482 83.1143 146.572 82.9644 146.587C82.9045 146.587 82.8295 146.587 82.7696 146.587C82.3049 146.587 81.8252 146.542 81.5853 146.932C81.5104 147.052 81.4954 147.172 81.5553 147.292C81.7052 147.607 82.14 147.667 82.5597 147.667C82.6946 147.667 82.8445 147.667 82.9644 147.652C83.0993 147.652 83.1893 147.726 83.2043 147.861C83.2343 148.251 83.2043 148.626 83.2493 148.986C83.2642 149.136 83.2942 149.226 83.4141 149.315L83.5041 149.36C83.5641 149.39 83.639 149.435 83.7739 149.42Z" fill="white"/>
<path fill-rule="evenodd" clip-rule="evenodd" d="M224.985 132.351H210.702C205.73 132.351 202.611 135.874 202.611 140.859V154.307C202.611 159.293 205.716 162.816 210.702 162.816H224.977C229.971 162.816 233.075 159.293 233.075 154.307V140.859C233.081 135.874 229.976 132.351 224.985 132.351Z" fill="#F6E2FF" stroke="#130F26" stroke-width="0.8" stroke-linecap="round" stroke-linejoin="round"/>
<path fill-rule="evenodd" clip-rule="evenodd" d="M215.741 142.314C215.741 143.998 214.377 145.361 212.694 145.361C211.011 145.361 209.646 143.998 209.646 142.314C209.646 140.63 211.011 139.266 212.694 139.266C214.376 139.268 215.739 140.632 215.741 142.314Z" stroke="#130F26" stroke-width="0.8" stroke-linecap="round" stroke-linejoin="round"/>
<path d="M233.082 152.493C231.558 150.925 228.628 147.757 225.441 147.757C222.254 147.757 220.416 154.745 217.35 154.745C214.285 154.745 211.5 151.585 209.043 153.611C206.587 155.635 204.262 159.773 204.262 159.773" stroke="#130F26" stroke-width="0.8" stroke-linecap="round" stroke-linejoin="round"/>
<path d="M193.989 141.11H187.488C185.925 141.11 184.658 142.377 184.658 143.94V150.44C184.658 152.003 185.925 153.27 187.488 153.27H193.989C195.551 153.27 196.819 152.003 196.819 150.44V143.94C196.819 142.377 195.551 141.11 193.989 141.11Z" fill="black"/>
<path d="M190.848 149.42C190.908 149.42 190.983 149.39 191.043 149.345C191.238 149.226 191.298 149.016 191.328 148.791C191.343 148.491 191.283 148.146 191.298 147.831C191.298 147.712 191.373 147.622 191.493 147.607C191.538 147.607 191.568 147.607 191.613 147.607C191.882 147.607 192.152 147.682 192.407 147.682C192.602 147.682 192.782 147.637 192.947 147.472C193.037 147.367 193.082 147.277 193.097 147.127V147.067C193.112 146.932 193.067 146.812 192.992 146.692V146.677C192.992 146.677 192.977 146.632 192.887 146.572C192.872 146.557 192.857 146.557 192.842 146.542C192.782 146.512 192.722 146.512 192.647 146.497H192.512C192.242 146.497 191.972 146.527 191.702 146.527C191.643 146.527 191.568 146.527 191.508 146.527C191.388 146.512 191.313 146.437 191.298 146.317C191.238 145.733 191.328 144.504 190.878 144.504C190.773 144.504 190.653 144.564 190.488 144.698C190.383 144.803 190.323 144.908 190.293 145.043L190.248 145.403C190.218 145.718 190.248 146.048 190.248 146.347C190.248 146.482 190.188 146.572 190.039 146.587C189.979 146.587 189.904 146.587 189.844 146.587C189.379 146.587 188.899 146.542 188.659 146.932C188.584 147.052 188.57 147.172 188.629 147.292C188.779 147.607 189.214 147.667 189.634 147.667C189.769 147.667 189.919 147.667 190.039 147.652C190.173 147.652 190.263 147.726 190.278 147.861C190.308 148.251 190.278 148.626 190.323 148.986C190.338 149.136 190.368 149.226 190.488 149.315L190.578 149.36C190.638 149.39 190.713 149.435 190.848 149.42Z" fill="white"/>
<path fill-rule="evenodd" clip-rule="evenodd" d="M278.522 132.351H264.239C259.267 132.351 256.148 135.874 256.148 140.859V154.307C256.148 159.293 259.254 162.816 264.239 162.816H278.514C283.508 162.816 286.612 159.293 286.612 154.307V140.859C286.618 135.874 283.513 132.351 278.522 132.351Z" fill="#DCF5FF" stroke="#130F26" stroke-width="0.8" stroke-linecap="round" stroke-linejoin="round"/>
<path fill-rule="evenodd" clip-rule="evenodd" d="M269.278 142.314C269.278 143.998 267.915 145.361 266.231 145.361C264.548 145.361 263.183 143.998 263.183 142.314C263.183 140.63 264.548 139.266 266.231 139.266C267.913 139.268 269.276 140.632 269.278 142.314Z" stroke="#130F26" stroke-width="0.8" stroke-linecap="round" stroke-linejoin="round"/>
<path d="M286.619 152.493C285.095 150.925 282.165 147.757 278.978 147.757C275.791 147.757 273.953 154.745 270.888 154.745C267.822 154.745 265.037 151.585 262.58 153.611C260.124 155.635 257.799 159.773 257.799 159.773" stroke="#130F26" stroke-width="0.8" stroke-linecap="round" stroke-linejoin="round"/>
<path d="M247.525 141.11H241.025C239.462 141.11 238.195 142.377 238.195 143.94V150.44C238.195 152.003 239.462 153.27 241.025 153.27H247.525C249.088 153.27 250.355 152.003 250.355 150.44V143.94C250.355 142.377 249.088 141.11 247.525 141.11Z" fill="black"/>
<path d="M244.385 149.42C244.445 149.42 244.52 149.39 244.58 149.345C244.775 149.226 244.835 149.016 244.865 148.791C244.88 148.491 244.82 148.146 244.835 147.831C244.835 147.712 244.91 147.622 245.03 147.607C245.075 147.607 245.105 147.607 245.15 147.607C245.419 147.607 245.689 147.682 245.944 147.682C246.139 147.682 246.319 147.637 246.484 147.472C246.574 147.367 246.619 147.277 246.634 147.127V147.067C246.649 146.932 246.604 146.812 246.529 146.692V146.677C246.529 146.677 246.514 146.632 246.424 146.572C246.409 146.557 246.394 146.557 246.379 146.542C246.319 146.512 246.259 146.512 246.184 146.497H246.049C245.779 146.497 245.509 146.527 245.24 146.527C245.18 146.527 245.105 146.527 245.045 146.527C244.925 146.512 244.85 146.437 244.835 146.317C244.775 145.733 244.865 144.504 244.415 144.504C244.31 144.504 244.19 144.564 244.025 144.698C243.92 144.803 243.86 144.908 243.83 145.043L243.786 145.403C243.756 145.718 243.786 146.048 243.786 146.347C243.786 146.482 243.726 146.572 243.576 146.587C243.516 146.587 243.441 146.587 243.381 146.587C242.916 146.587 242.436 146.542 242.197 146.932C242.122 147.052 242.107 147.172 242.167 147.292C242.316 147.607 242.751 147.667 243.171 147.667C243.306 147.667 243.456 147.667 243.576 147.652C243.711 147.652 243.8 147.726 243.815 147.861C243.845 148.251 243.815 148.626 243.86 148.986C243.875 149.136 243.905 149.226 244.025 149.315L244.115 149.36C244.175 149.39 244.25 149.435 244.385 149.42Z" fill="white"/>
<path fill-rule="evenodd" clip-rule="evenodd" d="M332.059 132.351H317.776C312.804 132.351 309.685 135.874 309.685 140.859V154.307C309.685 159.293 312.791 162.816 317.776 162.816H332.051C337.045 162.816 340.149 159.293 340.149 154.307V140.859C340.155 135.874 337.05 132.351 332.059 132.351Z" fill="#FFD7D7" stroke="#130F26" stroke-width="0.8" stroke-linecap="round" stroke-linejoin="round"/>
<path fill-rule="evenodd" clip-rule="evenodd" d="M322.815 142.314C322.815 143.998 321.452 145.361 319.768 145.361C318.085 145.361 316.72 143.998 316.72 142.314C316.72 140.63 318.085 139.266 319.768 139.266C321.45 139.268 322.814 140.632 322.815 142.314Z" stroke="#130F26" stroke-width="0.8" stroke-linecap="round" stroke-linejoin="round"/>
<path d="M340.156 152.493C338.632 150.925 335.702 147.757 332.515 147.757C329.328 147.757 327.49 154.745 324.425 154.745C321.359 154.745 318.574 151.585 316.117 153.611C313.661 155.635 311.337 159.773 311.337 159.773" stroke="#130F26" stroke-width="0.8" stroke-linecap="round" stroke-linejoin="round"/>
<path d="M301.062 141.11H294.562C292.999 141.11 291.732 142.377 291.732 143.94V150.44C291.732 152.003 292.999 153.27 294.562 153.27H301.062C302.625 153.27 303.892 152.003 303.892 150.44V143.94C303.892 142.377 302.625 141.11 301.062 141.11Z" fill="black"/>
<path d="M297.922 149.42C297.982 149.42 298.057 149.39 298.117 149.345C298.312 149.226 298.372 149.016 298.402 148.791C298.417 148.491 298.357 148.146 298.372 147.831C298.372 147.712 298.447 147.622 298.567 147.607C298.612 147.607 298.642 147.607 298.687 147.607C298.956 147.607 299.226 147.682 299.481 147.682C299.676 147.682 299.856 147.637 300.021 147.472C300.111 147.367 300.156 147.277 300.171 147.127V147.067C300.186 146.932 300.141 146.812 300.066 146.692V146.677C300.066 146.677 300.051 146.632 299.961 146.572C299.946 146.557 299.931 146.557 299.916 146.542C299.856 146.512 299.796 146.512 299.721 146.497H299.586C299.316 146.497 299.046 146.527 298.777 146.527C298.717 146.527 298.642 146.527 298.582 146.527C298.462 146.512 298.387 146.437 298.372 146.317C298.312 145.733 298.402 144.504 297.952 144.504C297.847 144.504 297.727 144.564 297.562 144.698C297.457 144.803 297.397 144.908 297.367 145.043L297.323 145.403C297.293 145.718 297.323 146.048 297.323 146.347C297.323 146.482 297.263 146.572 297.113 146.587C297.053 146.587 296.978 146.587 296.918 146.587C296.453 146.587 295.973 146.542 295.734 146.932C295.659 147.052 295.644 147.172 295.704 147.292C295.853 147.607 296.288 147.667 296.708 147.667C296.843 147.667 296.993 147.667 297.113 147.652C297.248 147.652 297.338 147.726 297.353 147.861C297.382 148.251 297.353 148.626 297.397 148.986C297.412 149.136 297.442 149.226 297.562 149.315L297.652 149.36C297.712 149.39 297.787 149.435 297.922 149.42Z" fill="white"/>
<path fill-rule="evenodd" clip-rule="evenodd" d="M385.597 132.351H371.313C366.341 132.351 363.222 135.874 363.222 140.859V154.307C363.222 159.293 366.328 162.816 371.313 162.816H385.588C390.582 162.816 393.686 159.293 393.686 154.307V140.859C393.692 135.874 390.587 132.351 385.597 132.351Z" fill="#E3E6FF" stroke="#130F26" stroke-width="0.8" stroke-linecap="round" stroke-linejoin="round"/>
<path fill-rule="evenodd" clip-rule="evenodd" d="M376.352 142.314C376.352 143.998 374.989 145.361 373.305 145.361C371.623 145.361 370.257 143.998 370.257 142.314C370.257 140.63 371.623 139.266 373.305 139.266C374.987 139.268 376.351 140.632 376.352 142.314Z" stroke="#130F26" stroke-width="0.8" stroke-linecap="round" stroke-linejoin="round"/>
<path d="M393.693 152.493C392.169 150.925 389.239 147.757 386.053 147.757C382.865 147.757 381.027 154.745 377.962 154.745C374.896 154.745 372.111 151.585 369.655 153.611C367.198 155.635 364.874 159.773 364.874 159.773" stroke="#130F26" stroke-width="0.8" stroke-linecap="round" stroke-linejoin="round"/>
<path d="M354.6 141.11H348.099C346.536 141.11 345.269 142.377 345.269 143.94V150.44C345.269 152.003 346.536 153.27 348.099 153.27H354.6C356.162 153.27 357.43 152.003 357.43 150.44V143.94C357.43 142.377 356.162 141.11 354.6 141.11Z" fill="black"/>
<path d="M351.459 149.42C351.519 149.42 351.594 149.39 351.654 149.345C351.849 149.226 351.909 149.016 351.939 148.791C351.954 148.491 351.894 148.146 351.909 147.831C351.909 147.712 351.984 147.622 352.104 147.607C352.149 147.607 352.179 147.607 352.224 147.607C352.494 147.607 352.763 147.682 353.018 147.682C353.213 147.682 353.393 147.637 353.558 147.472C353.648 147.367 353.693 147.277 353.708 147.127V147.067C353.723 146.932 353.678 146.812 353.603 146.692V146.677C353.603 146.677 353.588 146.632 353.498 146.572C353.483 146.557 353.468 146.557 353.453 146.542C353.393 146.512 353.333 146.512 353.258 146.497H353.123C352.853 146.497 352.584 146.527 352.314 146.527C352.254 146.527 352.179 146.527 352.119 146.527C351.999 146.512 351.924 146.437 351.909 146.317C351.849 145.733 351.939 144.504 351.489 144.504C351.384 144.504 351.264 144.564 351.099 144.698C350.995 144.803 350.935 144.908 350.905 145.043L350.86 145.403C350.83 145.718 350.86 146.048 350.86 146.347C350.86 146.482 350.8 146.572 350.65 146.587C350.59 146.587 350.515 146.587 350.455 146.587C349.99 146.587 349.511 146.542 349.271 146.932C349.196 147.052 349.181 147.172 349.241 147.292C349.391 147.607 349.825 147.667 350.245 147.667C350.38 147.667 350.53 147.667 350.65 147.652C350.785 147.652 350.875 147.726 350.89 147.861C350.92 148.251 350.89 148.626 350.935 148.986C350.95 149.136 350.98 149.226 351.099 149.315L351.189 149.36C351.249 149.39 351.324 149.435 351.459 149.42Z" fill="white"/>
<path d="M185.5 460.799C235.482 460.799 276 452.516 276 442.299C276 432.082 235.482 423.799 185.5 423.799C135.518 423.799 95 432.082 95 442.299C95 452.516 135.518 460.799 185.5 460.799Z" fill="#F5F4FA"/>
<path fill-rule="evenodd" clip-rule="evenodd" d="M147.24 319.548L160.335 234.468C140.257 259.706 127.708 330.471 125.072 345.319C123.964 353.437 123.922 358.976 125.423 363.308C127.133 368.244 129.629 369.646 131.522 369.253C132.826 370.655 136.597 370.978 137.551 368.931C138.014 367.949 140.439 368.846 140.846 365.551C141.435 360.756 136.64 360.686 134.915 355.919C134.27 354.18 136.317 355.232 137.523 354.152C139.093 352.75 138.126 355.4 138.925 356.956C140.467 359.761 141.028 362.172 144.912 361.009C148.081 360.055 145.333 349.792 145.178 347.128C144.982 343.636 144.73 341.856 144.73 338.084C144.73 332.602 145.445 329.994 146.062 324.834C146.272 323.067 147.183 321.399 147.183 319.576" fill="#E3DCFF"/>
<path d="M137.593 368.482C141.393 368.846 142.248 364.065 139.388 361.696C135.686 358.625 135.462 356.999 135.027 354.685" stroke="black" stroke-width="0.57" stroke-linecap="round" stroke-linejoin="round"/>
<path d="M132.966 355.148C132.732 358.12 133.138 361.109 134.158 363.911C135.728 368.594 128.928 373.558 125.367 363.308C123.866 358.976 123.964 353.493 125.016 345.319C127.652 330.471 140.201 259.664 160.279 234.468" stroke="black" stroke-width="0.57" stroke-linecap="round" stroke-linejoin="round"/>
<path d="M132.966 356.76C132.279 354.11 134.368 354.461 135.896 354.419C137.299 354.18 138.42 353.283 138.462 353.732C138.911 358.625 140.313 359.915 141.645 360.602C144.912 362.313 146.861 358.976 146.3 356.606C144.362 349.198 143.853 341.49 144.8 333.892C147.001 313.126 155.218 288.758 160.784 268.693" stroke="black" stroke-width="0.57" stroke-linecap="round" stroke-linejoin="round"/>
<path d="M135.924 354.419C138.406 353.816 140.762 353.171 141.673 347.408" stroke="black" stroke-width="0.57" stroke-linecap="round" stroke-linejoin="round"/>
<path d="M131.564 369.253C136.219 373.025 139.43 367.851 136.934 364.388C134.13 360.49 133.611 358.387 133.653 354.643" stroke="black" stroke-width="0.57" stroke-linecap="round" stroke-linejoin="round"/>
<path fill-rule="evenodd" clip-rule="evenodd" d="M178.941 420.108H149.497C149.008 420.122 148.614 420.516 148.6 421.005L147.197 440.859H194.266C195.15 432.544 189.065 430.021 181.886 426.459C179.236 424.398 178.941 420.108 178.941 420.108Z" fill="#E3DCFF"/>
<path fill-rule="evenodd" clip-rule="evenodd" d="M178.941 420.108H149.497C149.008 420.122 148.614 420.516 148.6 421.005L147.197 440.859H194.266C195.15 432.544 189.065 430.021 181.886 426.459C179.236 424.398 178.941 420.108 178.941 420.108Z" stroke="black" stroke-width="0.57" stroke-linecap="round" stroke-linejoin="round"/>
<path d="M194.593 437.676H146.435C146.082 437.676 145.795 437.963 145.795 438.316V443.079C145.795 443.433 146.082 443.719 146.435 443.719H194.593C194.947 443.719 195.233 443.433 195.233 443.079V438.316C195.233 437.963 194.947 437.676 194.593 437.676Z" fill="black"/>
<path d="M194.593 437.676H146.435C146.082 437.676 145.795 437.963 145.795 438.316V443.079C145.795 443.433 146.082 443.719 146.435 443.719H194.593C194.947 443.719 195.233 443.433 195.233 443.079V438.316C195.233 437.963 194.947 437.676 194.593 437.676Z" stroke="black" stroke-width="0.57" stroke-linecap="round" stroke-linejoin="round"/>
<path d="M179.53 420.528L180.147 422.996C172.352 421.755 164.492 420.959 156.606 420.612L179.53 420.528Z" fill="black"/>
<path fill-rule="evenodd" clip-rule="evenodd" d="M179.53 420.528L180.147 422.996C172.352 421.755 164.492 420.959 156.606 420.612L179.53 420.528Z" stroke="black" stroke-width="0.57" stroke-linecap="round"/>
<path fill-rule="evenodd" clip-rule="evenodd" d="M209.325 420.108H179.881C179.391 420.122 178.998 420.516 178.983 421.005L177.581 440.859H224.65C225.534 432.544 219.448 430.021 212.27 426.459C209.535 424.398 209.325 420.108 209.325 420.108Z" fill="#E3DCFF"/>
<path fill-rule="evenodd" clip-rule="evenodd" d="M209.325 420.108H179.881C179.391 420.122 178.998 420.516 178.983 421.005L177.581 440.859H224.65C225.534 432.544 219.448 430.021 212.27 426.459C209.535 424.398 209.325 420.108 209.325 420.108Z" stroke="black" stroke-width="0.57" stroke-linecap="round" stroke-linejoin="round"/>
<path d="M141.968 287.622C141.624 290.238 141.032 292.815 140.201 295.32C134.368 312.594 146.342 324.077 146.44 322.577C146.679 318.973 149.595 310.112 149.918 305.008C150.52 295.838 150.717 285.084 151.039 275.69C151.334 267.025 149.637 262.454 149.637 254.574C148.301 256.411 147.304 258.472 146.693 260.659C143.79 270.278 143.075 277.989 141.968 287.622Z" fill="black"/>
<path fill-rule="evenodd" clip-rule="evenodd" d="M141.968 287.622C141.624 290.238 141.032 292.815 140.201 295.32C134.368 312.594 146.342 324.077 146.44 322.577C146.679 318.973 149.595 310.112 149.918 305.008C150.52 295.838 150.717 285.084 151.039 275.69C151.334 267.025 149.637 262.454 149.637 254.574C148.301 256.411 147.304 258.472 146.693 260.659C143.79 270.278 143.075 277.989 141.968 287.622Z" stroke="#373435" stroke-width="0.57" stroke-linecap="round"/>
<path d="M224.992 437.676H176.819C176.466 437.676 176.179 437.963 176.179 438.316V443.079C176.179 443.433 176.466 443.719 176.819 443.719H224.992C225.345 443.719 225.632 443.433 225.632 443.079V438.316C225.632 437.963 225.345 437.676 224.992 437.676Z" fill="black"/>
<path d="M224.992 437.676H176.819C176.466 437.676 176.179 437.963 176.179 438.316V443.079C176.179 443.433 176.466 443.719 176.819 443.719H224.992C225.345 443.719 225.632 443.433 225.632 443.079V438.316C225.632 437.963 225.345 437.676 224.992 437.676Z" stroke="black" stroke-width="0.57" stroke-linecap="round" stroke-linejoin="round"/>
<path d="M208.919 420.528L209.535 422.996C201.74 421.755 193.88 420.959 185.994 420.612L208.919 420.528Z" fill="black"/>
<path fill-rule="evenodd" clip-rule="evenodd" d="M208.919 420.528L209.535 422.996C201.74 421.755 193.88 420.959 185.994 420.612L208.919 420.528Z" stroke="black" stroke-width="0.57" stroke-linecap="round"/>
<path fill-rule="evenodd" clip-rule="evenodd" d="M199.51 194.9C199.51 206.888 199.51 206.692 199.51 218.736C199.3 248.321 216.854 248.924 214.821 289.725C214.527 295.67 209.662 294.941 208.75 302.947C202.02 304.588 184.003 297.998 177.273 299.638C170.571 297.998 153.914 311.458 147.197 309.817C145.403 301.909 143.201 297.198 143.244 290.973C143.524 253.116 159.214 243.694 159.186 220.867V194.984C159.143 168.33 199.482 169.241 199.51 194.9Z" fill="#E3DCFF"/>
<path fill-rule="evenodd" clip-rule="evenodd" d="M199.51 194.9C199.51 206.888 199.51 206.692 199.51 218.736C199.3 248.321 216.854 248.924 214.821 289.725C214.527 295.67 209.662 294.941 208.75 302.947C202.02 304.588 184.003 297.998 177.273 299.638C170.571 297.998 153.914 311.458 147.197 309.817C145.403 301.909 143.201 297.198 143.244 290.973C143.524 253.116 159.214 243.694 159.186 220.867V194.984C159.143 168.33 199.482 169.241 199.51 194.9Z" stroke="black" stroke-width="0.57" stroke-linecap="round" stroke-linejoin="round"/>
<path fill-rule="evenodd" clip-rule="evenodd" d="M214.948 288.8C214.948 289.094 214.948 289.375 214.948 289.669C215.214 303.227 210.825 310.701 210.867 323.081C210.952 349.932 211.681 418.72 211.597 420.108C212.704 420.458 148.572 421.005 148.852 420.43C148.852 420.43 148.249 352.624 148.628 326.292C148.978 320.081 140.397 316.856 140.86 301.657C140.972 298.292 141.912 294.941 143.314 289.823C143.348 289.483 143.348 289.14 143.314 288.8H214.948Z" fill="#E3DCFF"/>
<path fill-rule="evenodd" clip-rule="evenodd" d="M214.948 288.8C214.948 289.094 214.948 289.375 214.948 289.669C215.214 303.227 210.825 310.701 210.867 323.081C210.952 349.932 211.681 418.72 211.597 420.108C212.704 420.458 148.572 421.005 148.852 420.43C148.852 420.43 148.249 352.624 148.628 326.292C148.978 320.081 140.397 316.856 140.86 301.657C140.972 298.292 141.912 294.941 143.314 289.823C143.348 289.483 143.348 289.14 143.314 288.8H214.948Z" stroke="black" stroke-width="0.57" stroke-linecap="round" stroke-linejoin="round"/>
<path fill-rule="evenodd" clip-rule="evenodd" d="M197.94 208.865C196.992 208.871 196.134 208.304 195.767 207.429C195.4 206.555 195.597 205.546 196.265 204.873C196.934 204.2 197.942 203.997 198.819 204.359C199.695 204.721 200.267 205.575 200.267 206.524C200.268 207.811 199.228 208.857 197.94 208.865Z" fill="white"/>
<path fill-rule="evenodd" clip-rule="evenodd" d="M197.94 208.865C196.992 208.871 196.134 208.304 195.767 207.429C195.4 206.555 195.597 205.546 196.265 204.873C196.934 204.2 197.942 203.997 198.819 204.359C199.695 204.721 200.267 205.575 200.267 206.524C200.268 207.811 199.228 208.857 197.94 208.865Z" stroke="black" stroke-width="0.57" stroke-linecap="round" stroke-linejoin="round"/>
<path d="M179.096 324.077C179.096 320.726 172.478 319.548 168.215 313.197C165.318 308.423 164.127 302.807 164.836 297.268" stroke="black" stroke-width="0.57" stroke-linecap="round" stroke-linejoin="round"/>
<path d="M197.183 198.223C197.88 197.601 198.742 197.192 199.665 197.045" stroke="black" stroke-width="0.57" stroke-linecap="round"/>
<path fill-rule="evenodd" clip-rule="evenodd" d="M159.606 225.592H199.566C201.115 225.592 202.371 226.848 202.371 228.397C202.371 229.945 201.115 231.201 199.566 231.201H159.606C158.057 231.201 156.802 229.945 156.802 228.397C156.802 226.848 158.057 225.592 159.606 225.592Z" fill="#E3DCFF"/>
<path fill-rule="evenodd" clip-rule="evenodd" d="M159.606 225.592H199.566C201.115 225.592 202.371 226.848 202.371 228.397C202.371 229.945 201.115 231.201 199.566 231.201H159.606C158.057 231.201 156.802 229.945 156.802 228.397C156.802 226.848 158.057 225.592 159.606 225.592Z" stroke="black" stroke-width="0.57" stroke-linecap="round"/>
<path d="M159.186 192.573H220.654" stroke="black" stroke-width="0.57" stroke-linecap="round"/>
<path d="M200.085 231.131L200.688 233.613C192.899 232.352 185.043 231.552 177.161 231.215L200.085 231.131Z" fill="black"/>
<path fill-rule="evenodd" clip-rule="evenodd" d="M200.085 231.131L200.688 233.613C192.899 232.352 185.043 231.552 177.161 231.215L200.085 231.131Z" stroke="black" stroke-width="0.57" stroke-linecap="round"/>
<path d="M198.865 192.474L199.468 194.956C191.675 193.695 183.814 192.895 175.927 192.559L198.865 192.474Z" fill="black"/>
<path fill-rule="evenodd" clip-rule="evenodd" d="M198.865 192.474L199.468 194.956C191.675 193.695 183.814 192.895 175.927 192.559L198.865 192.474Z" stroke="black" stroke-width="0.57" stroke-linecap="round"/>
<path d="M199.608 217.516C198.466 216.898 197.756 215.702 197.758 214.404" stroke="black" stroke-width="0.57" stroke-linecap="round"/>
<path d="M199.51 204.813C199.657 204.813 199.777 204.932 199.777 205.079C199.781 205.151 199.754 205.222 199.703 205.272C199.652 205.323 199.582 205.35 199.51 205.346C199.363 205.346 199.244 205.227 199.244 205.079C199.251 204.935 199.366 204.82 199.51 204.813Z" fill="black"/>
<path fill-rule="evenodd" clip-rule="evenodd" d="M199.51 204.813C199.657 204.813 199.777 204.932 199.777 205.079C199.781 205.151 199.754 205.222 199.703 205.272C199.652 205.323 199.582 205.35 199.51 205.346C199.363 205.346 199.244 205.227 199.244 205.079C199.251 204.935 199.366 204.82 199.51 204.813Z" stroke="black" stroke-width="0.57" stroke-linecap="round" stroke-linejoin="round"/>
<path fill-rule="evenodd" clip-rule="evenodd" d="M270.808 207.94C274.762 209.987 271.831 213.815 271.046 215.862C271.046 215.862 272.589 217.376 271.873 218.75C269.602 223.097 265.76 224.499 257.502 230.065C243.733 239.333 223.963 251.686 209.62 255.303C205.646 256.129 201.741 257.258 197.94 258.682C191.56 261.332 174.973 267.221 186.723 251.097C190.523 245.867 187.003 241.717 192.332 244.465C208.568 236.964 228.997 229.042 244.013 218.4C249.93 214.193 249.131 213.268 254.221 206.369C255.791 204.238 259.829 204.098 260.166 206.369C260.306 207.337 256.058 210.8 256.044 211.978C256.044 214.221 261.372 210.295 260.488 211.571C259.843 212.511 269.055 209.664 270.864 207.856" fill="#E3DCFF"/>
<path d="M264.12 215.189C266.295 213.524 268.092 211.416 269.392 209.005C270.373 207.323 271.537 207.87 272.294 209.005C273.36 210.52 273.093 212.539 271.046 215.904C269.291 218.581 267.017 220.879 264.358 222.662C262.858 223.629 263.713 226.013 261.484 227.485C252.861 232.645 229.235 252.639 196.987 259.159" stroke="black" stroke-width="0.57" stroke-linecap="round" stroke-linejoin="round"/>
<path d="M265.213 214.249C263.363 216.114 257.754 219.605 257.53 217.516C257.418 216.633 259.787 212.637 260.432 211.697C261.47 210.183 260.012 207.715 259.955 206.201C259.955 205.584 258.89 204.028 256.38 205.094C251.585 207.141 250.477 212.791 250.071 213.422C248.668 215.553 246.201 216.913 243.957 218.498C228.941 229.126 208.512 237.062 192.275 244.563" stroke="black" stroke-width="0.57" stroke-linecap="round" stroke-linejoin="round"/>
<path fill-rule="evenodd" clip-rule="evenodd" d="M259.605 218.4C263.096 217.138 270.303 209.594 270.64 205.164C270.92 201.63 267.471 196.877 265.031 199.555C263.699 201.041 265.634 203.762 264.428 205.64C263.975 206.329 263.474 206.985 262.928 207.603C260.656 210.181 257.957 212.348 254.95 214.011C252.664 215.161 253.001 219.353 257.922 218.75C258.498 218.718 259.065 218.6 259.605 218.4Z" fill="#E3DCFF"/>
<path fill-rule="evenodd" clip-rule="evenodd" d="M259.605 218.4C263.096 217.138 270.303 209.594 270.64 205.164C270.92 201.63 267.471 196.877 265.031 199.555C263.699 201.041 265.634 203.762 264.428 205.64C263.975 206.329 263.474 206.985 262.928 207.603C260.656 210.181 257.957 212.348 254.95 214.011C252.664 215.161 253.001 219.353 257.922 218.75C258.498 218.718 259.065 218.6 259.605 218.4Z" stroke="black" stroke-width="0.57" stroke-linecap="round"/>
<path d="M257.754 229.645C258.217 229.112 263.657 227.864 268.116 223.742C270.583 221.442 273.724 217.572 271.018 215.862" stroke="black" stroke-width="0.57" stroke-linecap="round"/>
<path fill-rule="evenodd" clip-rule="evenodd" d="M251.403 221.723C250.066 219.096 250.717 215.894 252.973 213.997C253.93 213.108 255.246 212.715 256.534 212.932C257.822 213.149 258.936 213.951 259.549 215.105C260.902 217.729 260.249 220.942 257.979 222.83C257.021 223.719 255.706 224.113 254.418 223.896C253.13 223.679 252.016 222.876 251.403 221.723Z" fill="#E3DCFF"/>
<path fill-rule="evenodd" clip-rule="evenodd" d="M256.506 228.887C255.314 227.485 261.245 218.778 263.517 221.975C265.788 225.172 269.209 219.451 269.742 220.405C270.275 221.358 267.821 223.601 266.63 224.611C265.438 225.62 257.754 230.374 256.562 228.929" fill="#E3DCFF"/>
<path d="M257.123 212.581C256.24 213.212 255.427 211.768 256.408 210.674C257.13 209.739 258.102 209.029 259.212 208.627" stroke="black" stroke-width="0.57" stroke-linecap="round"/>
<path fill-rule="evenodd" clip-rule="evenodd" d="M261.119 209.875L257.726 212.328L275.421 168.414L276.641 168.961L261.119 209.875Z" fill="#E3DCFF"/>
<path fill-rule="evenodd" clip-rule="evenodd" d="M261.119 209.875L257.726 212.328L275.421 168.414L276.641 168.961L261.119 209.875Z" stroke="black" stroke-width="0.57" stroke-linecap="round"/>
<path d="M197.029 259.117C198.15 258.963 200.338 258.079 201.922 257.925C204.207 257.551 206.464 257.026 208.68 256.355C208.68 256.355 210.405 255.766 210.405 255.822C210.405 256.187 211.498 259.467 211.414 259.453C210.582 259.291 209.738 259.202 208.89 259.187C205.764 259.285 202.637 258.921 199.44 259.299C198.767 259.299 197.926 259.397 197.155 259.496L197.029 259.117Z" fill="black"/>
<path d="M179.096 420.626V324.119" stroke="black" stroke-width="0.57" stroke-linecap="round"/>
</g>
<defs>
<clipPath id="clip0_1_1506">
<rect width="375" height="492" fill="white"/>
</clipPath>
</defs>
</svg>
